<svg version="1" xmlns="http://www.w3.org/2000/svg" width="2342.667" height="2342.667" viewBox="0 0 1757.000000 1757.000000"><path d="M16.9 54.2c-.6 5.4-.4 474.5.2 475.3.5.7 54 1 162.3 1 149.3 0 161.4.1 159.8 1.6-1.3 1.3-34.6 22.7-60.8 39.2l-4.1 2.6-4-3.7c-2.1-2-9.7-9.1-16.8-15.7-7.2-6.6-15-13.9-17.5-16.3-2.5-2.3-5.5-4.5-6.7-4.8-1.7-.4-5.5 1.3-14 6.2-22 12.7-47.8 28.6-61.3 37.9-7.4 5.1-14.8 9.9-16.5 10.7-2.6 1.3-11.8 1.6-61.5 1.7-32.1.1-58.7.4-59 .7-.3.3-.5 107.4-.5 238.1 0 211.4.1 237.6 1.5 238.2.8.4 53.6.7 117.2.7l115.8-.1 9.8 9.5c18.6 18 47.6 42.9 79.7 68.4 6.1 4.8 12.4 9.8 14 11.1 1.7 1.4 6.9 5.3 11.7 8.7 4.8 3.5 8.7 6.6 8.7 7 .1 1.3-7 8.8-8.3 8.8-.6 0-2.5-1.2-4.2-2.8-1.7-1.5-7-6.3-11.9-10.7-4.8-4.4-9.3-8.1-10-8.3-.8-.2-2.4 5.5-4.8 18l-3.6 18.3 7.7 7.4c24.4 23.4 29.1 27.5 51.7 46.2 18 14.8 21.7 17.4 53.3 36.5 14.4 8.7 27.9 16.9 30 18.2 7.4 4.5 20.9 11 30.2 14.5 46.3 17.5 87 31.3 117.5 39.8 5.5 1.6 35.9 8 49.5 10.5 1.4.3 5.9 1.2 10 2 4.1.9 8.6 1.8 10 2 1.4.3 5.9 1.1 10 1.9 4.1.9 8.6 1.7 10 2 1.4.3 3.6.7 5 1 10 2.1 34.6 6.6 39 7 2.5.3 9.5.7 15.5 1 28 1.3 33.6 1.6 41.5 2.1 9.4.6 42.3 1.3 62.7 1.4 12.1 0 13.2.2 13.8 1.9.4 1.2-2.2 8.8-6.8 20.3-8.4 20.6-9.3 23.2-17.2 48.3-7 22.5-7.5 24.2-11.5 39.5-1.8 6.9-4.3 16.4-5.6 21.1-1.4 4.7-2.6 9.6-2.9 10.7-.5 2.8-5.2 20.3-7 26.2-7.6 24.8-16.9 60.6-26 100.5-2.5 11-5 21.8-5.6 23.9-1.1 3.9-1.3 4.8-2.5 11.3-.6 3.1-.4 3.3 2.2 3.4 27 .5 448.5-.4 452.6-1 .3-.1.9-2 1.3-4.4.4-2.3.9-5.1 1.1-6.2.2-1 .6-3.7.9-6 .3-2.2.8-5.1 1-6.5.2-1.4.7-4.5 1-7 1.4-10.1 3.6-21.9 5.5-28.5 12.9-45.3 13-45.7 22-69.1 13.9-36.2 17.4-43.8 44.3-97.4 16.9-33.6 23-44.7 32-58.3 6.2-9.2 11.6-16.6 12.1-16.4.5.2 1.8 2.9 3 6.1 3.1 8.3 5.8 11 16.6 16.1 9.5 4.6 11.7 5.5 19.3 7.5 12.4 3.4 34.1 1.9 43.7-3l3.9-2 1.6 3c.9 1.6 2 5.4 2.6 8.3.6 2.8 1.5 7 1.9 9.2 3.4 16.9.7 35.6-6.8 48-9.6 15.6-24.3 25.6-52.2 35.5-9.1 3.2-18.1 3.8-21.5 1.6-2.8-1.9-5.9-7.5-6.9-12.6-.4-1.9-1.9-7-3.3-11.3-3-9.3-3.7-9.8-16.3-10-14.6-.2-27.1 5.2-38.2 16.6-5.9 5.9-9.5 12-11.4 18.9-5.1 18.7-2.9 43.6 6.7 75.7 4.7 15.9 8.2 23.6 18.1 39.6 6.5 10.4 8 12.3 12.8 15.2 8.5 5.2 15.8 7.6 20.5 6.8 3.7-.5 23-6 60-16.8 15.1-4.4 45.5-15.9 53-19.9 2.2-1.2 22.1-14.5 44.2-29.5 32.2-21.9 41.4-28.7 46.4-34.1 8.4-9.1 15.6-18.9 22.2-30.2 4.7-8.1 5.9-11.2 8-21 1.4-6.3 2.8-14.2 3.2-17.5.4-3.3.9-7.1 1.1-8.5 2.7-16.4 2.2-53.7-1-69-4.6-21.8-8.2-33.2-15.1-47-10-20.1-14.8-28-21.3-34.7l-4-4.1 7-7.4c9.2-9.5 14.4-16.5 15.5-20.8 2-7.2 2.4-5.6-20.9-69-5-13.6-9.9-26.8-15.9-43.5-1.8-5-3.7-9.3-4.2-9.6-.5-.4-2.1.3-3.6 1.6-1.4 1.3-10 8.7-19.1 16.6-9.1 7.9-17.4 15.2-18.5 16.2-1.1 1-2.8 2.3-3.7 2.8-1.8 1-2 .6-7.3-11.6-4.7-10.7-9.5-21.4-10.6-23.5-4.2-7.7-23.4-38-26-41-2.9-3.3-17.4-19-30.4-32.8-3.3-3.6-9.8-9.4-14.5-13.1-4.7-3.6-9.2-7.1-10-7.8-.8-.6-6.6-5.1-12.7-9.9-6.2-4.7-11.3-9-11.3-9.5s75.5-.9 178.5-.9c169.3 0 178.5-.1 178.6-1.8.5-7.6.4-472.2-.2-473.7-.6-2-1.6-2-187-2.1-102.5 0-187.1.3-188.1.8-1.4.7-1.6 2.7-1.7 14-.1 7.2-.3 13.3-.4 13.4-.2.2-2.6-3.3-5.5-7.6-12-18.1-31.9-38.7-49.2-51-15.7-11.1-30-18.7-50-26.6-4.7-1.8-8-3.4-7.5-3.5.6 0 9.6-.2 20-.3 10.5-.2 19.3-.4 19.6-.4.4-.1.8-22 .8-48.6.2-39.5 0-48.4-1.1-48.9-.8-.2-6.1.3-12 1.3-5.8 1-12.3 2.1-14.5 2.4-3.3.5-14 2.4-22.3 4-9.3 1.7-25.5 5.1-37 7.8-7.4 1.7-13.9 3.1-14.5 3.2-.5.1-1.9.5-3 .9-1.1.3-3.1.8-4.5 1.1-24.8 4.6-107.5 29.4-149 44.6-4.7 1.7-12.3 4.5-17 6.2-9.1 3.2-21.6 8.1-26.5 10.2-1.6.7-5.7 2.3-9 3.6-3.3 1.2-7.3 2.8-9 3.5-1.6.8-5.5 2.3-8.5 3.5-6.9 2.6-12 5-12 5.5 0 .2 20 .3 44.5.2 24.5-.1 44.5.1 44.5.4 0 .3-5 2.5-11.1 4.9-23.5 9-50.8 24.7-69.9 40.3-4.7 3.8-9.2 7.7-10 8.6-4.1 4.4-4.9 4.6-19.8 4.8-7.9.1-14.7.5-15 .8-.3.3-.5 8-.5 17.1l.1 16.5-3.3 4.9c-9.5 14-27.5 47.4-27.5 50.8 0 3-4.4 3.8-32.6 5.8l-9.1.6-.1-47.7c0-35.5-.3-47.9-1.1-48.5-.7-.4-5-.6-9.6-.4-8.1.2-8.7.4-20.2 6.5-18.8 9.9-46.4 25.3-64.8 36.1-23.1 13.6-21.6 12.7-42.8 26.1-13.2 8.3-19.3 11.6-20.5 11.1-.9-.3-2.7-.7-3.8-.8-2.1-.1-8.1-8.6-42.9-61.7-5.9-8.8-19.1-28.8-29.3-44.3-10.3-15.6-19.1-29-19.7-29.8-.5-.9-4.1-6.2-8-11.9-3.8-5.7-7.2-10.9-7.5-11.4-1.2-2.4-8.6-13-9.2-13.3-.5-.2-.8-.7-.8-1.2 0-.4-8.6-13.7-19.2-29.6-10.5-15.9-25.9-39.3-34.3-51.9-8.4-12.7-25.8-39-38.7-58.5-28.9-43.7-53.4-80.8-77.6-117.5-10.2-15.4-23.5-35.4-29.5-44.5-12.1-18.1-16.4-24.9-15.2-23.8.5.5 1.3-.2 1.9-1.3.6-1.2 10.6-8.2 22.1-15.4l21-13.3V53.5l-188.3-.3C55 53 17 53.2 16.9 54.2zM313 190.4c0 .2-.8 1-1.7 1.7-1.6 1.3-1.7 1.2-.4-.4 1.3-1.6 2.1-2.1 2.1-1.3zm-51 37c0 .2-.8 1-1.7 1.7-1.6 1.3-1.7 1.2-.4-.4 1.3-1.6 2.1-2.1 2.1-1.3zM161.5 273c4.3 1.4 11.9 9 13.2 13.2 5.7 18.8-12.1 34.9-30.3 27.3-4.4-1.8-10.2-8.2-11.4-12.4-5.1-18.5 10.6-34 28.5-28.1zm244 192.9c5.8 8.8 10.5 16.4 10.5 16.9s-4.2 3.6-9.2 6.8c-5.1 3.2-10.2 6.3-11.3 7-2 1.3-2 1.1-2-22.6 0-13.2.3-24 .8-24 .4 0 5.4 7.2 11.2 15.9zm60.9 84.9c13.3 20.2 24.5 37.2 24.9 37.8.4.7-2.8 1-10.6.9-6.2 0-12 .3-13 .8-1.6.7-1.7 10.2-1.5 184.6l.3 183.9-5.7 3.6c-3.2 2-5.8 4-5.8 4.5s2.5 2.8 5.5 5.1l5.5 4.2v8.9c0 4.9-.4 8.9-.9 8.9-1.9 0-38.6-27.7-45.7-34.5-1.1-1.1-3.8-3.5-6-5.3-6.6-5.5-19.4-18.4-19.5-19.6 0-.6-.1-78.3-.1-172.8l-.1-171.6-2.6-.4c-1.4-.2-19.6-.3-40.3-.3-20.8 0-37.4-.3-37-.6 1.1-1.1 123.7-74.6 125.3-75.1.8-.3 1.8-.3 2.2-.1.5.3 11.7 17 25.1 37.1zm1108.3 175.4c6 2.7 9.4 8.5 8.7 15.1-.7 8.4-7.2 14-15.9 13.9-13.7-.3-19.7-17.5-9.3-26.8 1.2-1.2 3-2.4 3.8-2.7 2.8-1 9.9-.7 12.7.5zm-704.8 73.2c-3.8 11.2-4.1 13.3-4.4 28.6-.8 37.9 13.8 73.3 46.3 111.9l3.7 4.5v60.5c0 33.3.3 61.1.7 61.6.4.7 16.6 1 46.2 1 27.9 0 45.6.3 45.6.9 0 .5-.3.6-.7.3-.3-.4-1.1-.3-1.7.2-.7.6-6.5 1.9-13.1 3-6.6 1.2-13.1 2.3-14.5 2.5-1.4.3-4.1.7-6 1-1.9.3-4.4.7-5.5 1-1.1.2-4.2.7-6.9 1-2.7.4-5.2.9-5.5 1.1-.3.1-3.1.6-6.1 1-3 .4-5.7.8-6 1-1.3.8-18.3 2.8-26 3-69.1 2.1-86.5 2.4-94 1.3-2.5-.4-10.8-1.4-18.5-2.3-7.7-.9-15.1-1.8-16.5-2-1.4-.2-4.7-.7-7.5-1-2.7-.4-6.1-.8-7.5-1-1.4-.2-5.2-.7-8.5-1.1-3.3-.3-6.7-.8-7.6-.9-.9-.2-4-.6-6.9-1-5.7-.7-5.7-.7-17.5-3.1-12-2.3-15.6-3.4-15-4.4.3-.5 27.7-.9 63.1-.9 34.4 0 62.8-.2 63.1-.5.3-.3.6-62.1.7-137.3l.1-136.8 4.5-.5c2.5-.3 9-.5 14.6-.6l10.1-.1-2.8 8.1zm495.3 176.8c0 51.8.3 78.7 1 79.5.6.7.8 1.3.5 1.3-.5 0-13.8-9.9-34.3-25.6-7.7-5.8-15.4-10.7-26.9-16.8-2.7-1.5-6.3-3.6-8-4.7-1.6-1-3.9-2.3-5-2.8s-1.4-1-.7-1c.9-.1 1.2-4 1.2-15.9 0-13.8.2-15.9 1.8-17.2.9-.8 4.2-3.5 7.2-6 10-8.2 11.3-9.4 20.9-19.1 15.1-15.2 25.6-27.8 36.3-43.7 2.7-4 5.2-7.1 5.5-6.8.3.2.5 35.7.5 78.8zm-858.1-32.5c1.3 1.6 1.2 1.7-.3.4-1-.7-1.8-1.5-1.8-1.7 0-.8.8-.3 2.1 1.3zm7.4 5.1c-.3.3-1.1 0-1.8-.7-.9-1-.8-1.1.6-.5 1 .3 1.5.9 1.2 1.2zm37.6 25.9c1.3 1.6 1.2 1.7-.3.4-1-.7-1.8-1.5-1.8-1.7 0-.8.8-.3 2.1 1.3zm9.9 6.9c0 .2-.9 0-2-.6s-2-1.3-2-1.6c0-.2.9 0 2 .6s2 1.3 2 1.6zm706.7 11c-.3.3-1.2.4-1.9.1-.8-.3-.5-.6.6-.6 1.1-.1 1.7.2 1.3.5zm3.8 1.4c.3.6-.1.7-.9.4-1.8-.7-2.1-1.4-.7-1.4.6 0 1.3.4 1.6 1zm-9.5.4c0 .2-.7.7-1.6 1-.8.3-1.2.2-.9-.4.6-1 2.5-1.4 2.5-.6zm13.1 2.3c1.3 1.6 1.2 1.7-.3.4-1.7-1.3-2.2-2.1-1.4-2.1.2 0 1 .8 1.7 1.7zm-17.2-.4c-.2.1-1.3.9-2.4 1.7-1.9 1.4-1.9 1.4-.6-.3.7-.9 1.8-1.7 2.4-1.7.6 0 .8.1.6.3zm24.1 5.4c0 .7-3.9-1.7-4.6-2.8-.3-.6.5-.3 2 .6 1.4 1 2.6 1.9 2.6 2.2zm-32-1.2c0 .2-1.3 1.1-3 2-3.8 1.9-4 1.1-.2-.9 3.1-1.7 3.2-1.8 3.2-1.1zm39 5.1c0 .2-.9 0-2-.6s-2-1.3-2-1.6c0-.2.9 0 2 .6s2 1.3 2 1.6zm-48-.6c-.8.5-1.9 1-2.5 1-.5 0-.3-.5.5-1s2-1 2.5-1c.6 0 .3.5-.5 1zm-4.5 1.9c-.6.5-2.1 1.1-3.5 1.5-2.1.5-2 .3.5-.9 3.5-1.7 4.2-1.8 3-.6zm-8.5 3.6c-1.4.8-2.9 1.4-3.5 1.4-.5 0 .1-.6 1.5-1.4 1.4-.8 3-1.4 3.5-1.4.6 0-.1.6-1.5 1.4zm-5.3 2.1c-.3.3-1.2.4-1.9.1-.8-.3-.5-.6.6-.6 1.1-.1 1.7.2 1.3.5zm-5.2 1.4c-2.7 1.2-4.3 1.2-2.5 0 .8-.5 2.2-.9 3-.9 1 0 .8.3-.5.9zm-9 3c-2.7 1.2-4.3 1.2-2.5 0 .8-.5 2.2-.9 3-.9 1 0 .8.3-.5.9zm-5.2 1.7c-.7.2-1.9.2-2.5 0-.7-.3-.2-.5 1.2-.5s1.9.2 1.3.5zm-5.6.9c-.3.3-1.2.4-1.9.1-.8-.3-.5-.6.6-.6 1.1-.1 1.7.2 1.3.5zm-4 1c-.3.3-1.2.4-1.9.1-.8-.3-.5-.6.6-.6 1.1-.1 1.7.2 1.3.5zm-4 1c-.3.3-1.2.4-1.9.1-.8-.3-.5-.6.6-.6 1.1-.1 1.7.2 1.3.5zm-4.4 1.1c-.7.2-1.9.2-2.5 0-.7-.3-.2-.5 1.2-.5s1.9.2 1.3.5zm-5 1c-.7.2-1.9.2-2.5 0-.7-.3-.2-.5 1.2-.5s1.9.2 1.3.5zm-8 1c-.7.2-1.9.2-2.5 0-.7-.3-.2-.5 1.2-.5s1.9.2 1.3.5zm-12.3.7c0 .2-.7.7-1.6 1-.8.3-1.2.2-.9-.4.6-1 2.5-1.4 2.5-.6zm5.3.3c-.7.2-2.1.2-3 0-1-.3-.4-.5 1.2-.5 1.7 0 2.4.2 1.8.5zm-16.9 2.4c-.8 1.4-2.1 1.1-2.1-.5 0-.8.6-1.2 1.4-.9.7.3 1 .9.7 1.4zm6.4-1.4c-1 .2-2.6.2-3.5 0-1-.3-.2-.5 1.7-.5s2.7.2 1.8.5zm-11.3 3.3c-1.1.5-2.7.9-3.5.9-.9 0-.8-.4.5-.9 1.1-.5 2.7-.9 3.5-.9.9 0 .8.4-.5.9zm-9.7 2.9c-5 2-10.6 3.6-9.8 2.8.8-.8 11.4-4.5 13-4.6.8 0-.6.8-3.2 1.8zm-15.3 5.1c-2.7 1-5.7 1.8-6.5 1.8-.8 0 .8-.8 3.5-1.8 2.8-1 5.7-1.8 6.5-1.8.8 0-.7.8-3.5 1.8zm-10 3c-1.1.5-2.7.9-3.5.9-.9 0-.8-.4.5-.9 1.1-.5 2.7-.9 3.5-.9.9 0 .8.4-.5.9zm-6.5 2c-.8.5-2.2.9-3 .9-1 0-.8-.3.5-.9 2.7-1.2 4.3-1.2 2.5 0zm-5 1.4c0 .5-10.4 3.6-11.7 3.5-.8-.1 9.5-3.7 11-3.8.4-.1.7.1.7.3zm-16.5 4.6c-.3.5-1.4 1-2.3.9-1.4 0-1.3-.2.3-.9 2.7-1.1 2.7-1.1 2 0zm-5.5 2c-.8.5-2.4.9-3.5.9-1.6-.1-1.6-.2.5-.9 3.5-1.1 4.8-1.1 3 0zm-415.5 1.8c-.3.3-1.1 0-1.8-.7-.9-1-.8-1.1.6-.5 1 .3 1.5.9 1.2 1.2zm409.2-.2c-.3.3-1.2.4-1.9.1-.8-.3-.5-.6.6-.6 1.1-.1 1.7.2 1.3.5zm-7.6 2c-2.5.8-4.7 1.2-4.9.9-.5-.5 5.6-2.3 7.8-2.3.8 0-.5.6-2.9 1.4zm-8.1 2.4c-.8.5-2.4.9-3.5.9-1.6-.1-1.6-.2.5-.9 3.5-1.1 4.8-1.1 3 0zm-6.1 1.4c-.2.2-1.7.6-3.4 1-2.2.5-2.6.4-1.5-.4 1.4-.9 5.9-1.5 4.9-.6zm322.2 1.3c1.3 1.7 1.3 1.7-.6.3-1.1-.8-2.2-1.6-2.4-1.7-.2-.2 0-.3.6-.3s1.7.8 2.4 1.7zM1038 1061c-.8.5-2.2.9-3 .9-1 0-.8-.3.5-.9 2.7-1.2 4.3-1.2 2.5 0zm-5.3 1.6c-.3.3-1.2.4-1.9.1-.8-.3-.5-.6.6-.6 1.1-.1 1.7.2 1.3.5zm-5.2 1.4c-1.1.5-2.7.9-3.5.9-.9 0-.8-.4.5-.9 1.1-.5 2.7-.9 3.5-.9.9 0 .8.4-.5.9zm349.6.7c1.3 1.6 1.2 1.7-.3.4-1-.7-1.8-1.5-1.8-1.7 0-.8.8-.3 2.1 1.3zm-358.8 2c-.7.2-1.9.2-2.5 0-.7-.3-.2-.5 1.2-.5s1.9.2 1.3.5zm-5 1c-.7.2-2.1.2-3 0-1-.3-.4-.5 1.2-.5 1.7 0 2.4.2 1.8.5zM436 1078.4c0 .2-.8 1-1.7 1.7-1.6 1.3-1.7 1.2-.4-.4 1.3-1.6 2.1-2.1 2.1-1.3zm-17.7 25.1c-.3.9-.8 1.4-1 1.1-.3-.3-.2-.9.2-1.5.9-1.6 1.5-1.3.8.4zm-8 12c-.3.9-.8 1.4-1 1.1-.3-.3-.2-.9.2-1.5.9-1.6 1.5-1.3.8.4z"/><path d="M477.8 54.8l-11.8.3V75c0 14.2.3 20 1.1 20 .6 0 6.4-2.9 12.9-6.4 18.5-10.2 44.8-23.2 60-29.5 5.2-2.2 8.6-4.1 7.5-4.1-8.3-.3-60.3-.4-69.7-.2zM1383.5 55l-18 .5-.2 237.8c-.1 178.3.2 237.9 1 238.4 1.5 1 373.5 1 375 .1.9-.5 1.2-59.2 1.3-237.7.1-130.3-.2-237.4-.5-238-.6-.8-46.3-1.2-170.7-1.4-93.4-.1-178 0-187.9.3zM920.2 132.6c-11.1 4.6-13.8 19.7-4.9 28.1 13.6 12.9 34.9-.9 28.2-18.3-1.7-4.5-7.4-10.3-10.3-10.5-.9-.1-3.5-.3-5.7-.4-2.2-.2-5.5.3-7.3 1.1zM616.9 149.2c-7.7.7-17.5 2.9-22.7 5-1.5.6-3.3 1.2-3.9 1.4-.7.1-4.7 2.1-8.9 4.3-23.6 12.8-39.9 31.9-48.2 56.8-3.7 11-4.6 16.9-4.6 30.3-.1 11.8.6 18 2.8 26 11.6 43.4 51.7 74 96.1 73.4 23-.2 40.5-6.1 59-19.9 15.8-11.8 28.2-28.7 34.4-47.1 5.5-16.3 6.5-38.8 2.6-54.4-3.5-13.8-8.8-25.3-16.7-36-3.9-5.3-14.1-15.8-18.3-19-7-5.3-9.7-7-16-10.2-17.4-9-35.7-12.5-55.6-10.6zm-12.4 26.2c1.8.8 5 3 7.2 4.9 14.3 13 10.9 37.1-6.5 46.1-4.2 2.1-12.1 3.3-17 2.4-21.7-3.8-31-28.3-17.3-45.6 8-10 21-13 33.6-7.8zM785.6 155.5c-12.8 4.4-16.6 21.1-6.8 30.2 5.8 5.4 12.8 6.6 19.7 3.4 10.6-4.9 14.3-17.3 7.8-26.5-4.9-7-12.9-9.7-20.7-7.1zM899.7 271.6c-.1.1-2 .5-4.2.8-11.2 1.7-18.5 4.7-27.5 11.5-10.7 8-19.7 22.1-22.4 35.1-1.9 8.7-1.3 22.8 1.3 31 6.8 21.6 25.7 38 48.1 41.6 15.7 2.6 33.9-2.1 46.2-11.8 31.5-24.9 31.4-70.9-.2-96-9.1-7.2-22.2-11.8-34.8-12.2-3.4-.1-6.3-.1-6.5 0zm-4.8 21.9c3.5 1.7 7.4 6.7 8.8 11 2 6.1-.8 14-6.5 18.3-3 2.3-4.5 2.7-10.2 2.7-7.8 0-11.6-2.3-15.1-9.4-2.7-5.3-2.6-9.7 0-15 4.4-8.6 14.7-12 23-7.6z"/></svg>