<?xml version="1.0" encoding="utf-8"?>
<!-- Generator: Adobe Illustrator 22.0.1, SVG Export Plug-In . SVG Version: 6.00 Build 0)  -->
<svg version="1.1" xmlns="http://www.w3.org/2000/svg" xmlns:xlink="http://www.w3.org/1999/xlink" x="0px" y="0px"
	 viewBox="0 0 1756.8 1668.5" style="enable-background:new 0 0 1756.8 1668.5;" xml:space="preserve">
<style type="text/css">
	.st0{display:none;}
	.st1{fill:#69BB8D;}
	.st2{fill:#0194D2;}
	.st3{fill:#F9A988;}
	.st4{fill:#FE4C5B;}
	.st5{fill:#4D4D50;}
	.st6{fill:#99C5E4;}
</style>
<g id="Layer_2" class="st0">
</g>
<g id="LOGO-IcleanPSD_Image">
	<title>LOGO-Iclean</title>
	<path class="st1" d="M1385.8,1024.9l-2,0.8c4.2,3.3,8.2,6.4,12.2,9.5c9.5,7.3,19,14.6,28.5,21.9c2,1.6,3.9,3.3,5.7,5.2
		c6.4,6.9,12.8,13.9,19.2,20.8c5.1,5.5,10.2,11,15.3,16.5c1,1.1,1.9,2.2,2.6,3.4c7.1,11.4,14.1,22.8,21.2,34.3
		c0.9,1.5,1.7,3.1,2.4,4.7c4.7,10.5,9.3,21,14,31.5c0.3,0.7,0.7,1.4,0.9,2c1.2,0.4,1.7-0.2,2.3-0.8c10.2-8.9,20.5-17.9,30.7-26.8
		c4.3-3.8,8.7-7.5,12.8-11.1c1.7,0.2,1.7,1.3,2,2.2c5.6,15.3,11.3,30.6,16.9,45.9c7.6,20.7,15.1,41.4,22.8,62.1
		c1.2,3.3,1.6,6.8,1,10.3c-0.5,3.3-1.8,6.4-3.8,9.1c-4.8,6.2-10.1,12-15.8,17.4c-1.3,1.3-3,2.4-3.7,4.3c-1.7,0.6-2.8,2.1-4,3.3
		c-10.8,10.7-21.5,21.4-32.3,32.1c-1.2,1.3-2.6,2.4-4,3.5c-11.6,8.2-23.2,16.4-34.8,24.7c-5.3,3.8-10.9,7.3-15.7,11.7
		c-4.5,4.1-9.5,7.6-13.5,12.2c-5.6,3.7-11.9,5.2-18.4,6.1c-6,0.8-12.1,1.2-18.2,1.1c-2.1,0-4.1-0.3-6.1-0.8c-3.2-1-6.5-1.7-9.7-2.6
		c-1.5-0.4-3-1-4.5-1.6c-5.4-2.5-10.7-5-16-7.6c-4.7-2.1-8.3-6.2-9.8-11.1c-0.8-2.4-1.6-4.8-2.5-7.3c-0.2-0.6-0.2-1.3-1.1-1.5
		s-1.3,0.7-1.7,1.3c-6.2,9.1-12.4,18.3-18.5,27.4c-1.3,1.9-2.4,3.8-3.4,5.8c-8.8,17.2-17.5,34.5-26.4,51.7s-17,35.1-25.2,52.8
		c-3.7,8-6.5,16.3-9.7,24.5c-3.3,8.5-6.5,17-9.9,25.5c-2.7,6.8-4.4,14-6.6,21c-3.3,10.7-6.2,21.5-9.4,32.2c-1.4,4.9-2.5,9.9-3.2,15
		c-2,13.2-4,26.5-6.1,39.8c-0.1,1.3-0.5,2.5-1.2,3.6c-4.6,0.7-435.5,1.3-453,0.7c-0.8,0.1-1.6-0.1-2.2-0.6c-0.5-1.5,0.3-2.8,0.6-4.2
		c5.2-22.4,10.6-44.8,15.7-67.2c4.1-18.1,9.1-35.9,14.4-53.7c5.5-18.2,10.1-36.6,15-55c2.1-8,4.3-16,6.3-24.1
		c2.5-10.6,6.1-20.9,9.3-31.2c1.7-5.5,3.6-10.9,5.2-16.4c3.6-12.5,8.8-24.3,13.7-36.3l4.9-12c0.5-1.3,1.3-2.6,1.1-4.1
		c-1.1-1.6-3-2.6-4.9-2.4c-1.3,0-2.6,0-3.8,0c-15.4,0-30.7,0.2-46.1-0.1c-8.9-0.2-17.9-1-26.8-1.5l-1.4-0.1
		c-10.1-0.4-20.2-0.6-30.2-1.4c-8.5-0.7-17-0.2-25.3-1.6c-7.9-1.3-15.7-2.9-23.5-4.4c-15.4-3-30.7-6.1-46.1-9.1
		c-16.8-3.3-33.6-6.5-50.3-9.9c-3.9-0.8-7.7-2.2-11.5-3.2c-26.7-7.4-52.8-16.5-78.9-25.6c-14.9-5.2-29.5-11.3-44.4-16.7
		c-7.3-2.6-13.9-6.5-20.4-10.4c-20.9-12.7-41.8-25.4-62.8-38.1c-5.4-3.2-9.9-7.6-14.8-11.5c-8.1-6.5-16.1-13.1-24.1-19.8
		c-3.9-3.3-7.7-6.7-11.5-10.2c-9.7-9-19.4-18.1-29.1-27.2c-0.7-0.6-1.3-1.4-2.1-2.3c2.4-12.3,4.8-24.6,7.2-36.8
		c1.5-0.5,2.1,0.4,2.8,1.1c7,6.3,14,12.6,21,19c0.9,1.1,2.1,1.9,3.3,2.6c4.4-2.8,7-5.8,8.4-9.5c0.5-0.6,1-1.2,1.5-1.8
		c2.3-4,4.6-8,6.9-12.1c5-8.8,9.8-17.6,15.6-25.8c6.2-8.9,12-18.1,18.1-27.1c5.6-8.3,10.9-16.9,17.2-24.8
		c4.6-5.9,9.2-11.9,13.8-17.8c6.2-7.9,12.4-15.9,18.6-23.8c5.4-6.7,10.3-13.9,14.5-21.4c1.9-3.2,2.8-6.8,2.8-10.5
		c0.9-0.9,1.3-2.2,1.2-3.5c0-3.5-0.1-7-0.1-10.5c0-1.6-0.8-3.1-2.2-4c-2.9-2.2-5.7-4.6-8.7-6.7c-2.6-1.8-4.8-4.2-7.9-5.3
		c-2.2-2.8-5.4-4.5-8-6.7c-1.3-1.1-2.9-1.9-3.8-3.5c1.3-1.6,3.1-2.3,4.7-3.3c2.4-1.5,5.1-2.6,7.1-4.7c2-0.3,3.5-1.4,5.2-2.4
		c8.6-5,17.1-10,25.7-15c1.1-0.6,2.1-1.5,3.4-1.5c0.2,0,0.3,0.1,0.5,0.2c17.6,12.1,35.3,24.3,52.9,36.4c6.4,4.4,12.8,9,19.2,13.5
		c2.5,1.5,4,4.2,4.1,7.2c0,1.1,0.2,2.2,0.4,3.3c1.2,6.6,2.4,13.2,3.5,19.8c0.2,2.3,1.8,4.2,4,4.8c8.3,2.8,16.6,5.8,24.8,8.8
		c8.7,3.1,17.5,6.2,26.1,9.4c13.7,5.2,27.4,10.6,41.1,15.9c3.9,1.5,7.7,3.2,11.7,4.1c4.3,1,8.7,2,13.1,2.8c4.1,0.8,8.1,1.7,12.3,1.4
		c1.6-0.1,3.2-0.4,4.7,0.4c-1.2,0.6-2.6,0-3.9,1c4.5,1,8.8,1.9,13.2,2.9c10.4,2.5,21,4.2,31.6,5.3c5.9,0.6,11.7,1.4,17.6,2.2
		c6.5,0.8,13,1.7,19.5,2.5c6.3,0.8,12.7,1.6,19,2.3c7.9,0.9,15.7,2.4,23.8,1.8c9.6-0.7,19.2-0.4,28.8-0.9c11-0.6,22-0.4,33.1-1
		c6.5-0.4,13.1-0.3,19.7-0.4c1.3,0,2.6-0.1,3.8-0.2c7.4-1.2,14.8-2.4,22.2-3.7c18.4-3.1,36.8-6.3,55.2-9.4c0.9-0.2,1.9-0.4,2.8-0.6
		c0.9-0.3,2,0.3,2.7-1l-3.3-0.5c1.3-0.7,2.8-0.8,4.2-0.4c2.7,0.3,5.4,0.1,8-0.8c13.5-3.7,27.1-7.3,40.7-11c11.1-3,22.2-5.9,33.2-9.1
		c10.1-2.9,20.1-6.2,30.2-9.4c8.2-2.6,16.4-5.3,24.6-7.9c1.7-0.5,3.4-0.8,4.7-2.2c2.7-0.3,5.4-0.7,8.1-0.9
		c8.1-0.5,16.2-1.6,24.2-3.1c29.2-5.1,57.3-15.2,82.9-30c0.8-0.5,1.7-0.8,2.7-0.8c4.4,2,8.1,5,11.9,7.7c3.4,2.4,7.1,4.1,10.6,6.3
		c0.7,0.3,1.5,0.5,2.3,0.5c0.8,1,1.8,1.8,3,2.3c4.9,2.7,9.8,5.4,14.6,8.2c5.6,3.3,11.6,6,16.8,10.1c11.5,8.9,23,17.6,34.6,26.4
		c1,0.8,1.9,1.7,3.2,1.9c0.8,1.2,1.8,2.2,3,3c3.1,2.3,6.2,4.4,9.1,6.9C1379.7,1022.9,1382.3,1024.7,1385.8,1024.9z"/>
	<path class="st2" d="M1741.4,10.9c0.7,0.5,1,1.3,1,2.1c0.4,8.6,0.1,471.1-0.3,474.6c-0.7,0.8-1.7,0.7-2.7,0.7c-1.3,0-2.6,0-3.8,0
		h-363.8c-2.1,0.2-4.2,0-6.3-0.3c-0.2-0.6-0.3-1.3-0.4-1.9c0-158.2,0-316.3,0-474.3c0.8-0.8,1.9-1.2,3-1c1.1,0,2.2,0,3.4,0h364.7
		C1738,10.8,1739.9,10.9,1741.4,10.9z"/>
	<path class="st2" d="M1385.8,1024.9c-3.5-0.2-6.1-2-8.7-4.2c-2.9-2.5-6-4.7-9.1-6.9c-1.2-0.8-2.2-1.8-3-3c0-1.3,0.1-2.6,0.1-3.8
		c0-50.3,0-100.6,0-150.9c0-1.4-0.1-2.9-0.2-4.3c1-1.8,2-3.6,3.1-5.4c4.5-7.5,8.7-15.2,12.6-23.1c1.8-3.6,2.6-7.1,1.8-11
		c-0.1-0.3-0.1-0.6-0.2-0.9c0.4-1.4,0.8-2.8,1.3-4.1c7.1-17.6,12.3-36,15.6-54.7c2.1-11.9,3.3-24,3.5-36.2
		c0.1-6.1-0.1-12.1-0.6-18.2c-0.4-4.6-0.8-9.2-1.5-13.8c-1.3-8.4-3.2-16.6-5.7-24.7c-1-3.2-1.5-6.6-3.7-9.3
		c-0.6-7.2-1.7-14.3-3.4-21.2c-4.3-17-11.5-32.8-20.3-47.8c-0.9-1.5-1.7-3.1-2.5-4.6c0.1-7.8,0.1-15.7,0.2-23.5c0-1.7,0-3.5,0-4.9
		c0.8-0.8,1.9-1.2,3-1c1.1,0,2.2,0,3.4,0H1736c1.9,0,3.8,0.1,5.3,0.1c1.1,1.1,0.9,2.1,0.9,3c0,1.1,0,2.2,0,3.3
		c0,154.8,0,309.6,0,464.4c0,2.1,0.3,4.2-0.4,6.2c-0.4-0.2-0.8-0.2-1,0.3c-1.9,0-3.8,0.1-5.8,0.1h-343.5
		C1389.7,1025,1387.7,1024.9,1385.8,1024.9z M1595.2,657.4c-28.2-0.9-54.1,22.4-54.3,53.5c-0.2,32.1,26.3,54.4,53.9,54.5
		s54-21.8,54.3-53.7C1649.4,680.2,1623.3,656.7,1595.2,657.4z"/>
	<path class="st2" d="M341.4,486.6c-2.4-0.1-4.8-0.2-7.2-0.2H22.7c-1.9,0-3.8-0.1-5.3-0.1c-1.3-1.1-1-2.1-1-3c0-1.3,0-2.5,0-3.8V10
		c0.7-0.9,1.8-1.3,2.9-1.1c1.1,0,2.2,0,3.4,0h364.7c1.9,0,3.8,0.1,5.3,0.1c0.2,0.2,0.5,0.4,0.7,0.6c0.1,0.1,0.1,0.3,0.1,0.5
		l0.1,81.6v3.4l-43,27.1c-0.8,1.6,0.6,3.2-1.3,3.8c-1.4-0.8-1.6-2.8-3.7-3.3c-3.6,2.6-7.4,5.2-11.1,7.9
		c-16.4,11.9-32.9,23.8-49.3,35.6c-9.8,7.1-19.7,14.2-29.5,21.3c-1,0.7-2.2,1.3-2.4,3.2c3.2,5,6.6,10.2,10,15.4
		c12,18.3,24.1,36.6,36.2,54.8c11.1,16.8,22.2,33.6,33.3,50.4c19.5,29.5,39,58.9,58.4,88.4c1,1.5,2.2,2.8,2.6,4.5
		c-0.1,0.6-0.2,1.3-0.2,1.9c0,15.7,0,31.3,0.1,46.9c-0.5,0.6-1.1,1.1-1.7,1.6c-14,8.9-28,17.9-42,26.8
		C347.2,483.3,344.2,484.9,341.4,486.6z M191.6,193.8c-42-0.8-77.6,34.5-77.5,77.2c0.1,41.8,33.5,77.2,77,77.4
		c43.8,0.2,77.5-35.3,77.7-77.1C269.1,228.3,233.5,193,191.6,193.8z"/>
	<path class="st2" d="M718.8,1023c-1.5-0.8-3.2-0.5-4.7-0.4c-4.2,0.3-8.3-0.6-12.3-1.4c-4.4-0.9-8.7-1.8-13.1-2.8
		c-4.1-0.9-7.9-2.7-11.7-4.1c-13.7-5.3-27.4-10.7-41.1-15.9c-8.7-3.3-17.4-6.3-26.1-9.4c-8.3-3-16.5-6-24.8-8.8
		c-2.2-0.6-3.8-2.5-4-4.8c-1.1-6.6-2.4-13.2-3.5-19.8c-0.2-1.1-0.3-2.2-0.4-3.3c0-2.9-1.6-5.6-4.1-7.2c-6.4-4.5-12.8-9-19.2-13.5
		c-17.6-12.2-35.3-24.3-52.9-36.4c-0.2-0.1-0.3-0.1-0.5-0.2c-1.3,0-2.3,0.9-3.4,1.5c-8.5,5-17.1,10-25.7,15c-1.6,1-3.2,2.1-5.2,2.4
		c0-1.8-0.1-3.5-0.1-5.3v-352c0-2.7,0.1-5.4,0.1-8.2c-0.1-1,0.1-1.9,0.7-2.7c0.6,0.1,1.2,0.2,1.9,0.3c6.7,0,13.3,0,19.9,0
		c0.6-0.1,1.2-0.2,1.8-0.4l2-0.3c1.3,1.8,2.6,3.6,3.9,5.5c16.4,24.6,32.7,49.3,49,73.9c13.3,19.9,26.5,39.9,39.9,59.8
		c1,1.4,1.6,3.1,3.4,3.9c1.9-0.2,3.1-1.6,4.5-2.5c9.5-6.5,18.9-13.2,28.3-19.7c17.6-12.2,35.2-24.4,52.8-36.7
		c1.8-1.2,3.9-2.3,5.1-4.3l3.1-1.2c1.3,0,1.4,1.6,2.6,2c0.3,0,0.6,0,0.8-0.1c0.7-0.4,1.4-0.8,2.1-1.2c36-23.8,73.4-45.4,111.4-65.9
		c7.3-3.9,14.7-7.7,22-11.7c2.1-1.2,4.4-1.8,6.8-1.7c4.8,0.1,9.5,0,13.8,0c1.5,1,1.3,2,1.3,2.9c0,4.3,0,8.6,0,13v75.3
		c0,1.8,0,3.5,0.1,5.3c-3.2,0.4-6.3,0.8-9.5,1.1c-17.7,1.4-35.4,2.8-53.1,4.2c-8,0.6-15.7,3.2-22.5,7.6c-2.4,1.5-4.3,3.8-5.4,6.5
		c-2,5.2-4.3,10.3-6.5,15.4c-7.4,17.5-14.9,34.9-22.4,52.4c-2.4,5.7-3.9,11.7-4.5,17.9c1.1,1,2.3,0.8,3.4,0.8
		c9.1,0.2,18.2,0.5,27.3,0.6c25.9,0.2,51.8,0.4,77.7-0.4c5.1-0.1,10.2-0.1,15.3-0.1c0,1.8,0.1,3.5,0.1,5.3v263.3c0,1.4,0,2.9,0,4.3
		c-0.1,0.6-0.3,1.2-0.5,1.8l-0.3-0.1l-0.1,0.3c-1.4,0-2.9,0.1-4.3,0.1H723.1C721.7,1023,720.3,1023,718.8,1023z"/>
	<path class="st3" d="M483.7,962.2c0,3.7-1,7.3-2.8,10.5c-4.2,7.5-9,14.7-14.5,21.4c-6.2,7.9-12.4,15.8-18.6,23.8
		c-4.6,5.9-9.2,11.9-13.8,17.8c-6.2,7.9-11.5,16.5-17.2,24.8c-6.1,9-11.9,18.2-18.1,27.1c-5.8,8.3-10.6,17.1-15.6,25.8
		c-2.3,4-4.6,8.1-6.9,12.1c-0.5,0.7-1,1.3-1.5,1.8c-7.5-5.1-14.6-10.9-21.8-16.4c-8.5-6.7-17-13.4-25.5-20.3
		c-6.8-5.5-13.5-11.2-20.3-16.8c-5.7-4.8-11.5-9.7-17.1-14.5c-2.5-2.2-5.1-4.4-7.6-6.6c-7.1-6.4-14.3-12.7-21.3-19.2
		c-2.6-2.3-5-4.9-7.2-7.7c-0.8-1.2-1.9-2.2-3.2-2.8c-0.5-1.2-1.3-2.2-2.2-3.1c-19.4-21.7-38.4-43.8-56.9-66.3
		c-25.7-31.5-50.3-63.8-73.1-97.5c-20.8-30.7-40.2-62.4-56.8-95.7c-11-21.7-20.3-44.2-27.8-67.3c-2-6.4-3.8-12.9-3.9-19.7
		c-0.1-5.9-0.3-11.8,0-17.8c0.2-2.7,1-5.4,2.4-7.7c6-10.2,12.9-19.8,20.6-28.8c14.3-16.9,30.5-31.9,47.5-46.1
		c10.2-8.5,20.7-16.6,31.5-24.4c1.3-0.9,2.8-1.6,3.4-3.2c1.4-0.4,2.7-1.1,3.8-2c19.8-14.1,40.1-27.2,61.1-39.4
		c8.3-4.8,16.6-9.5,24.9-14.3c0.3-0.2,0.6-0.3,0.9-0.4c2.5-1.3,3.1-1.2,5.1,0.6c2.9,2.6,5.7,5.1,8.5,7.7c5.5,5.1,11,10.2,16.5,15.3
		l17.9,16.6c-0.6,0.5-1.2,1.1-1.8,1.5c-4.1,3-8.3,5.9-12.5,8.8c-0.8,0.5-1.7,1-1.7,2.3c0.2,0.4,0.4,1,0.7,1.6
		c3.8,7.6,7.5,15.1,11.3,22.7c0.5,0.8,1,1.6,1.6,2.3c0.1,1.3,0.9,1,1.7,0.6c5.3-3,10.5-6.1,15.8-9.1c1.2-0.7,2.3-1.7,4.1-1.8
		c0.5,0.5,1,1.1,1.5,1.7c12.1,17.5,23.6,35.3,33,54.5c2.7,5.3,5,10.7,6.8,16.4c0.9,2.9,1.6,5.8,2.1,8.8c0.9,4.3-0.2,8.8-3.1,12.1
		c-2.2,2.7-4.7,5.3-7.4,7.5c-8.8,7.2-18.6,13-29.2,17.1c-6,2.6-12.4,4.3-18.9,5.2c-2.4,0.3-4.7,0.3-7,0.5c-1.3,3-1.4,3.7-1,6.6
		c0.8,5.5,2.1,11,3.8,16.3c4.7,14.8,10.5,29.1,17.4,43c25.2,51.7,58.6,99,98.9,140c0.9,1.1,2,2.1,3.3,2.8c0.5,0.6,1,1.2,1.6,1.8
		c8.3,8.4,17,16.4,25.9,24c10.8,9.2,21.9,17.9,33.5,26.2c3.5,2.7,7.3,5.2,11.2,7.3c0.4,0.5,0.8,1,1.3,1.4
		C472.5,955.4,477.9,959.1,483.7,962.2z"/>
	<path class="st4" d="M843.1,748.1c-5.1,0-10.2,0-15.3,0.1c-25.9,0.7-51.8,0.6-77.7,0.4c-9.1-0.1-18.2-0.4-27.3-0.6
		c-1.1,0-2.3,0.2-3.4-0.8c0.6-6.2,2.1-12.2,4.5-17.9c7.5-17.5,14.9-35,22.4-52.5c2.2-5.1,4.5-10.2,6.5-15.4c1.1-2.7,2.9-5,5.4-6.5
		c6.7-4.4,14.4-7,22.5-7.6c17.7-1.4,35.4-2.8,53.1-4.2c3.2-0.3,6.3-0.7,9.5-1.1c4.9-0.3,9.9-0.6,14.8-1c6.4-0.5,12.7-1.1,19.1-1.7
		c1.9-0.2,3.8,0.2,5.6-0.5c1.2-1,1.6-2.5,2.2-3.8c7.9-18.5,17.6-36.2,29.1-52.7c0.6-0.9,1.2-1.9,1.8-2.8c0.5-0.4,0.9-0.9,1.3-1.4
		c7.8-10.6,16.5-20.7,25.8-30c0.7-0.8,1.4-1.7,2.1-2.6c0.8-0.5,1.5-1.1,2.3-1.7c26.7-25,57.5-43.1,92-55.3c1.6-0.6,3.2-1.3,4.8-2
		c1.8-0.5,3.7-0.9,5.6-1.4c24.9-7.7,50.5-12.5,76.4-14.6c15.6-1.2,31.3-1.6,46.9-1c10.2,0.3,20.4,0.9,30.2,4.4
		c0.4,0.2,0.9,0.2,1.4,0.3c14.2,3.7,28.5,7.1,42.5,11.6c1.1,0.3,2.2,0.5,3.3,0.7c3.3,1.3,6.5,2.6,9.8,3.9
		c15.5,5.9,30.4,13.4,44.3,22.5c17.6,11.9,33.2,26.5,46.2,43.4c4.7,5.8,9,12,12.8,18.5c0.4,0.7,0.9,1.3,1.5,1.9
		c0.8,1.5,1.6,3.1,2.5,4.6c8.8,15.1,16,30.8,20.3,47.8c1.7,7,2.8,14.1,3.4,21.2c-1.4,0.8-2.8,1.6-4.1,2.5
		c-11.8,7.7-24.3,14.3-37.2,19.8c-26.5,11.4-54,19.9-81.8,27.1c-19.3,5-38.8,9.4-58.4,13.2c-12.4,2.4-24.8,4.7-37.2,6.8
		c-11.2,1.9-22.4,3.5-33.6,5.2c-10.4,1.5-20.8,3.1-31.3,4.4c-9.2,1.2-18.4,2.1-27.6,3.2c-10.3,1.2-20.6,2.5-30.9,3.5
		c-8.7,0.9-17.5,1.4-26.3,2.3c-4.5,0.5-8.9,0.7-13.4,1.1c-5.4,0.5-10.8,1.1-16.2,1.5c-7.2,0.5-14.3,0.9-21.5,1.3
		c-0.5,0-1,0.1-1.4,0.1c-7.2,0.5-14.3,1.2-21.5,1.5c-5.3,0.3-10.5,0.3-15.8,1.1c-6.5,0.1-13,0.3-19.5,0.7c-9.3,0.6-18.7,0.5-28,1.1
		c-4.3,0.3-8.6,0.2-12.8,0.3l-27,0.7C844.7,747.8,843.9,748,843.1,748.1z"/>
	<path class="st5" d="M271.8,568.9c-0.6-0.7-1.1-1.5-1.6-2.3c-3.8-7.5-7.6-15.1-11.3-22.7c-0.3-0.6-0.5-1.2-0.7-1.6
		c0-1.3,1-1.8,1.7-2.3c4.2-3,8.3-5.9,12.5-8.8c0.6-0.5,1.2-1,1.8-1.5c3.6-2.3,7.3-4.5,10.9-6.8c17.7-11.3,35.4-22.6,53.1-33.9
		c1.1-0.7,2-1.5,3.1-2.2c2.9-1.7,5.8-3.3,8.6-5.1c14-8.9,28-17.8,42-26.8c0.6-0.5,1.2-1,1.7-1.6c0.7-0.3,1.5-0.6,2.2-0.9
		c6.5-4.1,12.9-8.2,19.3-12.3c0.7-0.3,1.2-1,1.2-1.7c-0.3-0.4-0.6-1.1-1.1-1.8c-6.5-9.8-13-19.7-19.5-29.5c-0.6-0.9-1.4-1.8-2-2.6
		c-0.4-1.8-1.7-3.1-2.6-4.5c-19.4-29.5-38.9-58.9-58.4-88.3c-11.1-16.8-22.2-33.6-33.3-50.3c-12.1-18.3-24.1-36.5-36.2-54.8
		c-3.4-5.2-6.8-10.4-10-15.4c0.1-1.9,1.3-2.5,2.4-3.2c9.8-7.1,19.7-14.2,29.5-21.3c16.5-11.9,32.9-23.8,49.3-35.6
		c3.8-2.7,7.5-5.3,11.1-7.9c2.1,0.4,2.3,2.5,3.7,3.3c0.5,1.8,1.7,3.1,2.6,4.5c76.4,115.5,152.9,231.1,229.3,346.7l95.5,144.4
		c0.8,1.2,1.5,2.4,2.3,3.7c-1.2,2-3.3,3-5.1,4.3c-17.6,12.3-35.2,24.5-52.8,36.7c-9.5,6.6-18.9,13.2-28.3,19.7
		c-1.4,1-2.7,2.3-4.5,2.5c-1.8-0.8-2.5-2.5-3.4-3.9c-13.3-20-26.6-39.9-39.8-59.9c-16.4-24.6-32.7-49.3-49-73.9
		c-1.2-1.9-2.6-3.7-3.9-5.5c-0.3-0.6-0.5-1.2-0.9-1.7c-16.1-24.2-32.2-48.5-48.3-72.7c-0.5-1-1.3-1.9-2.2-2.6
		c-1.8,0.2-3.1,1.4-4.6,2.3c-40,24-80,48-120.1,72c-1.4,0.8-2.9,1.4-3.9,2.7c-0.9,0.3-1.8,0.7-2.6,1.2c-6.7,4-13.4,8-20.1,12
		C283.6,562,277.7,565.4,271.8,568.9z"/>
	<path class="st3" d="M1466.8,1375.4c4-4.6,9-8.1,13.5-12.2c4.9-4.4,10.4-7.9,15.7-11.7c11.6-8.2,23.2-16.4,34.8-24.7
		c1.4-1,2.8-2.2,4-3.5c10.8-10.7,21.5-21.4,32.3-32.1c1.2-1.2,2.3-2.7,4-3.3c6.5,5.9,11.9,13,15.9,20.8c2.8,5.4,5.6,10.8,8.6,16.1
		c5.7,10.3,9.3,21.4,12.3,32.7c2.1,8,3.7,16.2,4.8,24.4c0.6,4.7,0.7,9.6,1.2,14.3c0.8,6.5,1,13.1,0.7,19.6
		c-0.4,6.8-0.7,13.7-1.4,20.5c-0.7,5.9-1.3,11.7-2.2,17.6c-1.3,8.8-3.2,17.6-5.6,26.2c-0.3,1.2-0.8,2.4-1.5,3.5
		c-3.8,6.3-7.7,12.5-11.6,18.8c-1.3,2-2.7,4-4.3,5.8c-4.4,5.2-9,10.4-13.5,15.6c-1.4,1.5-3,2.9-4.7,4c-18.4,12.5-36.8,25-55.1,37.5
		l-23.8,16.2c-2.2,1.5-4.6,2.8-7.2,3.8c-11.3,4.4-22.6,8.9-33.9,13.3c-2.1,0.8-4.3,1.3-6.4,2c-16.4,4.8-32.8,9.6-49.2,14.4
		c-6.4,1.9-12.9,3.5-19.4,5.2c-1.9,0.5-3.8,0.4-5.7-0.1c-7.1-1.8-13.3-5.3-19.4-9.2c-1.3-1-2.3-2.3-3-3.7
		c-3.3-5.4-6.6-10.9-9.9-16.4c-0.8-1.4-1.6-2.8-2.5-4.1c-4.6-6.7-7-14.3-9.5-21.9c-2.3-7-4.4-14-6.1-21.2
		c-2.2-8.7-3.7-17.5-4.6-26.4c-0.5-5.2-0.8-10.5-0.7-15.8c0.2-7.2,1.3-14.3,3.3-21.2c1.4-4.4,3.7-8.5,6.8-12.1
		c8.1-9.9,18-17.2,30.8-19.9c4.3-0.9,8.7-2,13.3-0.9c1.4,0.2,2.9,0.3,4.3,0.2c2.5-0.1,5,0.5,7.3,1.6c1.4,2.7,2.5,5.6,3.4,8.6
		c1.2,5.1,2.6,10.2,4,15.3c2.1,7.7,7.7,11.1,15.6,9.8c6.2-1,12.2-2.8,17.8-5.6c4.3-2.1,8.8-3.9,13.2-5.7c9.1-3.8,17.4-8.9,24.3-16
		c9.4-9.5,15.2-22.1,16.3-35.4c0.2-2.5,1-5,0.8-7.6c-0.4-7.7-0.9-15.3-3-22.7c-0.2-0.4-0.3-0.9-0.4-1.4
		C1471,1383.7,1468.8,1379.6,1466.8,1375.4z"/>
	<path class="st2" d="M135.5,545.5c-0.6,1.6-2.1,2.3-3.4,3.2c-10.8,7.8-21.3,15.9-31.5,24.4c-17,14.1-33.2,29.2-47.5,46.1
		c-7.7,9-14.6,18.6-20.6,28.8c-1.4,2.3-2.2,5-2.4,7.7c-0.3,5.9-0.2,11.8,0,17.8c0.2,6.8,1.9,13.2,3.9,19.7
		c7.5,23.1,16.8,45.6,27.8,67.3c16.6,33.3,35.9,64.9,56.8,95.7c22.8,33.6,47.4,66,73.1,97.5c18.4,22.6,37.4,44.7,56.9,66.3
		c0.9,0.9,1.7,1.9,2.2,3.1c-1.8,0-3.5,0.1-5.3,0.1H17.6c-1.4-1-1.2-2-1.2-2.9c0-1.1,0-2.2,0-3.3c0-155,0-310,0-464.9
		c0-1.9-0.3-3.8,0.2-5.6c1.1-1.1,2.5-0.7,3.7-0.7c8.3,0,16.6,0,25,0L135.5,545.5z"/>
	<path class="st2" d="M726,203.5c0.5,54.6-44.7,99.2-99,99.2c-53.8,0-99.2-44.1-99.1-99.3c0.1-54.6,44.8-99.1,99.4-99
		S726.4,149.6,726,203.5z M564.2,156.9c-0.4,15.7,13,28.4,28.1,28.5c14.3,0.1,28.4-11.2,28.6-28.1c0.2-17.4-14.3-28.8-28.4-28.8
		C577.1,128.6,563.9,141.4,564.2,156.9z"/>
	<path class="st2" d="M1250.3,486.7c-1.1-0.2-2.2-0.4-3.3-0.7c-14-4.5-28.3-7.9-42.5-11.6c-0.5-0.1-1-0.2-1.4-0.3
		c-9.8-3.5-20-4.1-30.2-4.4c-15.6-0.6-31.3-0.2-46.9,1c-26,2-51.6,7-76.5,14.7c-1.8,0.6-3.7,1-5.6,1.4c-2.1-0.1-4.1-0.2-6.2-0.2
		c-26.5,0-53.1,0-79.7,0h-5c0.6-1.8,2.1-1.8,3.1-2.3c17-7.1,34.1-13.8,51.2-20.4c49.6-18.8,100.2-35.1,151.5-48.6
		c30.9-8.1,62.1-15.2,93.6-20.8c12.1-2.2,24.3-4.2,36.4-6.2c1.1-0.3,2.2-0.3,3.3,0c0.8,0.8,0.6,1.8,0.6,2.7
		c0.6,26.5,0.3,90.6-0.5,94.9c-1.2,1-2.7,0.6-4.1,0.6c-10.7,0-21.4,0-32.2,0C1254.1,486.5,1252.2,486.6,1250.3,486.7z"/>
	<path class="st6" d="M964.8,288.3c-0.2,33.4-27.5,60.2-60.9,60c-33.4-0.2-60.2-27.5-60-60.9c0.2-33.4,27.5-60.2,60.9-60
		c0.1,0,0.1,0,0.2,0c33.2,0.2,60,27.2,59.8,60.4C964.8,288,964.8,288.1,964.8,288.3z M887,247.6c-8.6-1.2-17.6,8.2-17.4,17.2
		c0.2,8.7,7.2,17.4,17.4,17.4s17.2-8.6,17.4-17.4C904.6,255.8,895.6,246.4,887,247.6z"/>
	<path class="st2" d="M550.4,10.8c-8,3.3-15.1,6.1-22,9.2c-7.1,3.2-14.2,6.6-21.2,10.1c-7,3.5-13.6,7-20.4,10.6S473.5,48,467,51.6
		c-1.1-0.3-1.1-0.9-1.1-1.6c0-12.3,0-24.6,0-36.9c0-0.5,0.1-1.1,0.3-1.6c0.2-0.2,0.3-0.4,0.5-0.5c0.1-0.1,0.3-0.1,0.5-0.1
		c1-0.1,1.9-0.1,2.9-0.1L550.4,10.8z"/>
	<path class="st2" d="M791.3,146.9c-10.1,0-18.3-8.2-18.3-18.3s8.2-18.3,18.3-18.3s18.3,8.2,18.3,18.3c0,0,0,0.1,0,0.1
		C809.5,138.8,801.3,146.9,791.3,146.9z"/>
	<path class="st6" d="M927.6,87.2c10.5-1.1,22.5,12.2,14.9,26c-3,5.6-8.2,8.5-14.9,8.8c-8.3,0.3-15.6-5.8-17.7-13.7
		c-2.5-9.3,5.7-21.9,16.8-21.1C926.9,87.3,927.3,87.2,927.6,87.2z"/>
	<path class="st2" d="M945,545.6c-0.6,0.9-1.3,1.8-2.1,2.6c-9.4,9.3-18,19.4-25.8,30c-0.4,0.5-0.8,0.9-1.3,1.4
		c-0.1-0.8-0.2-1.6-0.2-2.4c0-9.4,0-18.8,0-28.3c-0.2-0.9,0-1.9,0.4-2.8C919.6,545.3,931.3,545.1,945,545.6z"/>
	<path class="st1" d="M1740.9,1024.9c0.2-0.5,0.6-0.5,1-0.3C1741.7,1025.2,1741.3,1025.1,1740.9,1024.9z"/>
	<path class="st3" d="M872.4,747.1c4.3-0.1,8.6,0,12.8-0.3c9.3-0.7,18.7-0.5,28-1.1c6.5-0.4,13-0.6,19.5-0.7
		c0.3,1.2,0.5,2.5,0.9,3.7c3.1,11.1,6.2,22.1,9.5,33.2c2,6.7,3.6,13.6,6.4,20c4.3,9.8,8.3,19.7,12.6,29.5c2.1,4.8,3.8,9.9,6.6,14.4
		c5.5,8.7,11,17.3,16.5,25.9c3.1,4.2,6.6,8.1,10.5,11.5c2.8-1.8,5.9-3.3,8.4-5.9c-0.5-1.7-1-3.2-1.5-4.7
		c-4.7-14.4-9.3-28.9-13.2-43.6c-2.5-9.6-2-19,0.6-28.4c1.1-4.1,3.7-7.5,7.3-9.7c4.5-2.8,9.8-4.1,15.1-3.5
		c10.6,0.9,20.6,5.8,27.7,13.7c5.4,6,9.2,13.2,11.1,21c3,11.4,3.4,23,2.2,34.7c-0.2,1.1-0.3,2.2-0.1,3.3c1.6,6,3.2,12,6.8,17.3
		c6.1,8.5,14,15.5,23.2,20.5c11.7,6.6,24.6,9.8,37.7,12.2c8,1.5,16.2,1.9,24.3,2.6c2.7,0.3,5.4,0.3,8.1,0c10-1.5,19.9-2.9,29.8-4.8
		c14.7-2.8,29.3-6.4,44.2-8.7c14.7-2.4,29.2-5.8,43.4-10.1c22.9-6.9,44.9-15.8,65.5-28c11.2-6.6,21.6-14.3,31.2-23
		c1.5-1.2,2.8-2.7,3.7-4.3c1.5-3.2,3.2-6.2,4.8-9.4c2.1-4.3,4.1-8.7,6.1-13c0.1,0.3,0.1,0.6,0.2,0.9c0.9,3.9,0,7.5-1.8,11
		c-3.9,7.8-8.1,15.6-12.6,23.1c-1.1,1.8-2.1,3.6-3.1,5.4c-0.8,1-1.6,2-2.3,3.1c-9.3,14.3-19.8,27.9-31.4,40.5
		c-9.7,10.6-20.2,20.5-31.5,29.4c-2.4,1.9-5,3.5-6.9,5.8c-0.6,0.3-1.1,0.6-1.7,0.9c-6.8,5-13.8,9.7-21,14c-0.8,0.5-1.5,1.2-2,2
		c-1,0-1.9,0.3-2.7,0.8c-25.7,14.8-53.7,24.9-82.9,30c-8,1.5-16.1,2.5-24.2,3.1c-2.7,0.1-5.4,0.6-8.1,0.9c-1.4,0-2.9,0-4.3,0
		c-26.2,1-52.4-1-78.2-5.7c-25.3-4.4-50.1-11.9-73.6-22.3c-28.3-12.6-53.8-29.4-75.6-51.5c-0.8-0.8-1.7-1.5-2.5-2.2
		c-2.4-2.8-4.7-5.7-7.1-8.4c-10.9-12.4-20.1-26.1-27.4-40.9c-5.4-10.8-9.7-22.2-12.6-34c-2.8-11-4.1-22.3-3.9-33.7v-0.5
		c0-11.4,2.3-22.6,6.7-33.1C871.9,748.9,872.2,748,872.4,747.1z"/>
	<path class="st2" d="M916,1022.8c-0.7-1.2-0.5-2.5-0.5-3.7c0-38.4,0-76.8,0-115.2c0-1.1,0.2-2.2,0.2-3.3c0.8,0.7,1.7,1.4,2.5,2.2
		c21.8,22.1,47.3,38.9,75.6,51.5c23.6,10.4,48.3,17.8,73.6,22.3c25.8,4.8,52,6.7,78.2,5.7c1.4,0,2.9,0,4.3,0c-1.3,1.4-3,1.7-4.7,2.2
		c-8.2,2.7-16.4,5.3-24.6,7.9c-10,3.2-20,6.5-30.2,9.4c-11,3.2-22.2,6.1-33.2,9.1c-13.6,3.7-27.1,7.3-40.7,11
		c-2.6,0.9-5.3,1.1-8,0.8c-1.4-0.4-2.9-0.3-4.2,0.4c-3.8,0-7.7,0.1-11.5,0.1h-70.8c-1.9,0-3.8-0.1-5.7-0.1c0-0.1-0.1-0.2-0.1-0.3
		L916,1022.8z"/>
	<path class="st2" d="M1292.7,930.5c0,10.5,0,21,0,31.4c-0.8-0.1-1.5-0.2-2.3-0.5c-3.5-2.2-7.2-3.9-10.6-6.3
		c-3.8-2.7-7.5-5.7-11.9-7.7c0.5-0.8,1.2-1.5,2-2c7.2-4.3,14.2-9,21-14C1291.5,931,1292.1,930.7,1292.7,930.5z"/>
	<path class="st2" d="M465.7,950.5c0.1-4.2,0.1-8.5,0.2-12.7c0-1.9,0.1-3.8,0.2-5.7c3.1,1.1,5.3,3.5,7.9,5.3c3,2.1,5.8,4.5,8.7,6.7
		c1.4,0.9,2.2,2.4,2.2,4c0,3.5,0.1,7,0.1,10.5c0.2,1.3-0.3,2.6-1.2,3.5c-5.8-3.1-11.2-6.8-16.7-10.3
		C466.5,951.5,466.1,951,465.7,950.5z"/>
	<path class="st5" d="M1382.1,811.3c-2,4.3-4,8.7-6.1,13c-1.5,3.2-3.2,6.2-4.8,9.4c-0.9,1.7-2.2,3.2-3.7,4.3
		c-9.6,8.7-20,16.4-31.2,23c-20.6,12.1-42.7,21.1-65.5,28c-14.2,4.4-28.7,7.7-43.4,10.1c-14.8,2.3-29.4,5.9-44.2,8.7
		c-9.9,1.9-19.8,3.3-29.8,4.8c-2.7,0.3-5.4,0.3-8.1,0c-8.1-0.7-16.2-1.1-24.3-2.6c-13.1-2.5-26-5.6-37.7-12.2
		c-9.2-5-17.1-12-23.2-20.5c-3.7-5.2-5.2-11.3-6.8-17.3c-0.2-1.1-0.1-2.2,0.1-3.3c1.2-11.7,0.8-23.3-2.2-34.7
		c-1.9-7.8-5.7-15-11.1-21c-7.2-7.9-17.1-12.8-27.7-13.7c-5.3-0.5-10.6,0.7-15.1,3.5c-3.6,2.2-6.2,5.6-7.3,9.7
		c-2.6,9.4-3.1,18.8-0.6,28.4c3.9,14.7,8.5,29.1,13.2,43.6c0.5,1.5,1,3,1.5,4.7c-2.5,2.5-5.6,4.1-8.4,5.9
		c-3.9-3.5-7.4-7.3-10.5-11.5c-5.5-8.6-11-17.2-16.5-25.9c-2.8-4.5-4.5-9.5-6.6-14.4c-4.3-9.8-8.3-19.7-12.6-29.5
		c-2.8-6.5-4.5-13.3-6.4-20c-3.2-11-6.3-22.1-9.5-33.2c-0.3-1.2-0.6-2.5-0.9-3.7c5.2-0.8,10.5-0.8,15.8-1.1c7.2-0.4,14.3-1,21.5-1.5
		c0.5,0,1-0.1,1.4-0.1c7.2-0.4,14.4-0.8,21.5-1.3c5.4-0.4,10.8-1,16.2-1.5c4.5-0.4,8.9-0.6,13.4-1.1c8.7-0.9,17.5-1.4,26.3-2.3
		c10.3-1,20.6-2.3,30.9-3.5c9.2-1,18.4-2,27.6-3.2c10.4-1.4,20.9-2.9,31.3-4.4c11.2-1.7,22.4-3.3,33.6-5.2
		c12.4-2.1,24.8-4.4,37.2-6.8c19.6-3.8,39.1-8.2,58.4-13.2c27.9-7.2,55.3-15.7,81.8-27.1c13-5.5,25.4-12.1,37.2-19.8
		c1.3-0.9,2.7-1.6,4.1-2.5c2.2,2.7,2.7,6.1,3.7,9.3c2.5,8.1,4.4,16.3,5.7,24.7c0.7,4.6,1.1,9.2,1.5,13.8c0.6,6,0.8,12.1,0.6,18.2
		c-0.2,12.1-1.4,24.2-3.5,36.2c-3.3,18.7-8.5,37-15.6,54.7C1382.9,808.6,1382.6,810,1382.1,811.3z"/>
	<path class="st6" d="M1595.2,657.4c28.1-0.7,54.2,22.8,53.9,54.3c-0.3,31.8-26.6,53.7-54.3,53.7s-54.1-22.4-53.9-54.5
		C1541.1,679.8,1567,656.6,1595.2,657.4z M1568.2,680.5c-7.3-0.7-15.4,4.8-15.6,15.3c-0.2,9.4,7.2,15.5,15.6,15.4
		s14.9-5.9,15.4-15.2C1584.2,687.5,1576.9,680.6,1568.2,680.5L1568.2,680.5z"/>
	<path class="st6" d="M191.6,193.8c41.9-0.7,77.5,34.6,77.3,77.4c-0.2,41.8-33.9,77.3-77.7,77.1c-43.5-0.2-76.9-35.6-77-77.4
		C114,228.2,149.6,193,191.6,193.8z M175.8,249.8c1-11.7-10.7-22.7-21.9-22.4c-12.3,0.4-22.2,9.6-22.2,22.2
		c0,13.1,10.2,21.7,21.8,22.1C166.3,272.1,176.6,260.3,175.8,249.8z"/>
	<path class="st1" d="M466.7,545.8c0.6-0.2,1.2-0.3,1.8-0.4c6.8,0,13.6,0,20.4,0c0.5,0,0.9,0.1,1.4,0.2c-0.6,0.2-1.2,0.4-1.8,0.4
		c-6.7,0-13.3,0-19.9,0C467.9,546,467.3,545.9,466.7,545.8z"/>
	<path class="st1" d="M842.6,1022.8l-0.1,0.3l-0.3-0.1c0-0.1,0.1-0.2,0.1-0.3L842.6,1022.8z"/>
	<path class="st2" d="M312.3,545.3c2.1,0.1,4.1,0.2,6.2,0.2c23.2,0,46.4,0,69.6,0c1.7,0,3.5-0.3,5.3,0.4c0.1,0.6,0.2,1.2,0.3,1.9
		c0,1.4,0,2.9,0,4.3c0,111,0,221.9,0,332.9c0,2.1-0.1,4.2-0.1,6.2c-1.3-0.7-2.4-1.6-3.3-2.8c-40.3-41-73.7-88.3-98.9-140
		c-6.9-13.9-12.7-28.2-17.4-43c-1.7-5.3-3-10.8-3.8-16.3c-0.4-2.9-0.3-3.6,1-6.6c2.2-0.2,4.6-0.2,7-0.5c6.5-0.9,12.9-2.6,18.9-5.2
		c10.6-4.1,20.4-9.9,29.2-17.2c2.7-2.3,5.1-4.8,7.4-7.5c2.8-3.4,4-7.8,3-12.1c-0.5-3-1.3-5.9-2.1-8.8c-1.8-5.6-4.1-11.1-6.8-16.4
		c-9.4-19.1-20.9-37-33-54.5c-0.5-0.6-0.9-1.2-1.5-1.7c-1.7,0-2.8,1-4.1,1.8c-5.3,3-10.5,6.1-15.8,9.1c-0.7,0.4-1.5,0.7-1.7-0.6
		c5.9-3.5,11.9-6.9,17.8-10.4c6.7-4,13.4-8,20.1-12C310.6,546,311.4,545.6,312.3,545.3z"/>
	<path class="st1" d="M916,1022.8l0.3-0.1c0,0.1,0.1,0.2,0.1,0.3l-0.3,0.1L916,1022.8z"/>
</g>
</svg>
