<svg id="LOGO-IcleanPSD_Image" data-name="LOGO-IcleanPSD Image" xmlns="http://www.w3.org/2000/svg" viewBox="0 0 1756.8 1668.48"><defs><style>.cls-1{fill:#fff;}.cls-2{fill:#69bb8d;}.cls-3{fill:#0194d2;}.cls-4{fill:#f9a988;}.cls-5{fill:#fe4c5b;}.cls-6{fill:#4d4d50;}.cls-7{fill:#99c5e4;}</style></defs><title>LOGO-Iclean</title><path class="cls-1" d="M1757.76,1669.44H1V1h1756.8ZM945.93,546.6c-13.67-.54-25.41-.34-29,.49a4.42,4.42,0,0,0-.44,2.77q0,14.13,0,28.27a21.17,21.17,0,0,0,.25,2.37c-.59,1-1.14,1.92-1.78,2.83A290.87,290.87,0,0,0,885.81,636c-.56,1.3-.9,2.75-2.15,3.77-1.78.66-3.72.28-5.61.45-6.36.58-12.71,1.15-19.07,1.65-4.93.39-9.86.67-14.79,1,0-1.76-.08-3.51-.08-5.27V562.34c0-4.32,0-8.64,0-13,0-.92.21-2-1.33-2.91-4.25,0-9,.1-13.8,0a13.22,13.22,0,0,0-6.83,1.74c-7.32,3.93-14.72,7.72-22,11.66-38,20.48-75.35,42-111.36,65.87a20.28,20.28,0,0,1-2.06,1.22,2.15,2.15,0,0,1-.83.07c-1.17-.32-1.28-2-2.61-2l-3.11,1.21c-.77-1.22-1.52-2.45-2.31-3.65L582.33,478.24Q467.66,304.9,353,131.55c-1-1.46-2.18-2.78-2.63-4.53,1.9-.62.44-2.25,1.26-3.81l43-27.11V92.62l-.15-81.57a1.07,1.07,0,0,0-.14-.46,6.9,6.9,0,0,0-.68-.62c-1.53,0-3.43-.12-5.32-.12H23.6c-1.12,0-2.24,0-3.36,0A3,3,0,0,0,17.36,11V480.46c0,1.28,0,2.56,0,3.83,0,.93-.23,1.94,1,3,1.48,0,3.37.08,5.26.08H335.14c2.4,0,4.79.13,7.19.19-1,.76-2,1.57-3.06,2.25q-26.56,17-53.15,33.89c-3.63,2.31-7.29,4.55-10.94,6.82L257.24,514q-8.25-7.65-16.49-15.31c-2.81-2.6-5.66-5.15-8.52-7.71-2-1.83-2.56-1.87-5.1-.6-.28.14-.58.27-.85.43-8.31,4.75-16.66,9.43-24.92,14.26Q170,523.43,140.28,544.51a10.69,10.69,0,0,1-3.79,2l-90.2,0c-8.31,0-16.63,0-24.95,0-1.23,0-2.57-.36-3.72.72-.51,1.81-.25,3.74-.25,5.63q0,232.47,0,464.93c0,1.12,0,2.24,0,3.35,0,.93-.19,2,1.23,2.9H246.49c1.75,0,3.51-.07,5.27-.11a7.82,7.82,0,0,1,3.22,2.78,55.15,55.15,0,0,0,7.17,7.71c7.06,6.46,14.21,12.82,21.34,19.2q3.75,3.35,7.57,6.62,8.55,7.29,17.15,14.53c6.72,5.63,13.44,11.27,20.26,16.79q12.64,10.25,25.45,20.26c7.17,5.58,14.2,11.36,21.75,16.44-1.4,3.71-4,6.66-8.39,9.46a11.39,11.39,0,0,1-3.33-2.59q-10.51-9.48-21-19c-.67-.6-1.23-1.54-2.77-1.05-2.36,12.15-4.76,24.48-7.16,36.77.8.88,1.39,1.64,2.08,2.28q14.54,13.61,29.12,27.17c3.75,3.48,7.53,6.93,11.45,10.21q12,10,24.09,19.8c4.85,3.92,9.39,8.23,14.75,11.48q31.37,19.05,62.75,38.07c6.56,4,13.13,7.82,20.44,10.44,14.89,5.34,29.5,11.5,44.44,16.68,26.11,9.07,52.19,18.25,78.86,25.61,3.85,1.07,7.63,2.45,11.53,3.24,16.75,3.39,33.54,6.59,50.31,9.89,15.35,3,30.7,6.08,46.06,9.09,7.84,1.54,15.66,3.13,23.54,4.45,8.37,1.4,16.9.85,25.35,1.55,10,.83,20.11,1,30.18,1.38l1.43.06c8.93.53,17.86,1.38,26.8,1.53,15.35.26,30.71.09,46.07.1,1.28,0,2.56,0,3.84,0a5.34,5.34,0,0,1,4.92,2.4c.19,1.53-.52,2.81-1.07,4.13l-4.92,12c-4.93,12-10.12,23.83-13.74,36.3-1.61,5.52-3.53,11-5.23,16.45-3.2,10.37-6.73,20.65-9.28,31.23-1.94,8.08-4.18,16.08-6.28,24.12-4.82,18.39-9.51,36.81-15,55-5.32,17.75-10.32,35.58-14.39,53.68-5,22.44-10.46,44.8-15.67,67.2-.32,1.36-1.1,2.7-.64,4.18a2.89,2.89,0,0,0,2.23.62c17.54.64,448.37,0,453-.7a7,7,0,0,0,1.22-3.57c2-13.26,4-26.53,6.07-39.78a108.57,108.57,0,0,1,3.21-15c3.26-10.69,6.15-21.5,9.41-32.2,2.14-7,3.84-14.19,6.55-21,3.35-8.48,6.58-17,9.89-25.48,3.19-8.19,6-16.55,9.72-24.51,8.19-17.7,16.28-35.45,25.24-52.78s17.6-34.47,26.42-51.69a56.68,56.68,0,0,1,3.42-5.76q9.22-13.76,18.53-27.43c.42-.61.74-1.46,1.69-1.35s.86.95,1.06,1.52c.84,2.42,1.69,4.83,2.48,7.26a18.21,18.21,0,0,0,9.85,11.13q8,3.87,16,7.62a29.72,29.72,0,0,0,4.49,1.63c3.23.92,6.51,1.64,9.72,2.62a22.09,22.09,0,0,0,6.14.85,115.15,115.15,0,0,0,18.17-1.09c6.54-.92,12.83-2.41,18.43-6.1,1.92,4.21,4.23,8.28,4.22,13.12a5.06,5.06,0,0,0,.37,1.38c2.16,7.42,2.64,15.05,3,22.71.13,2.6-.6,5.07-.82,7.61a56.87,56.87,0,0,1-16.32,35.41c-6.87,7.12-15.18,12.19-24.27,16-4.43,1.84-8.88,3.59-13.2,5.7a63.79,63.79,0,0,1-17.77,5.56c-7.88,1.3-13.49-2.18-15.58-9.84-1.39-5.08-2.75-10.17-4-15.29a45.27,45.27,0,0,0-3.36-8.6,15.6,15.6,0,0,0-7.28-1.59,19.29,19.29,0,0,1-4.31-.16c-4.54-1.08-8.91,0-13.26.88-12.78,2.7-22.71,10-30.82,19.86a34.47,34.47,0,0,0-6.75,12.06,81.76,81.76,0,0,0-3.33,21.22,128.15,128.15,0,0,0,.66,15.78,184.73,184.73,0,0,0,4.61,26.38c1.77,7.12,3.82,14.19,6.14,21.16,2.52,7.56,4.94,15.21,9.53,21.9.91,1.31,1.68,2.72,2.51,4.09,3.29,5.48,6.55,11,9.89,16.43a10.47,10.47,0,0,0,3,3.71c6,4,12.29,7.45,19.37,9.25a11.32,11.32,0,0,0,5.69.1c6.49-1.69,13-3.33,19.43-5.19,16.42-4.73,32.8-9.57,49.2-14.37,2.14-.63,4.33-1.16,6.4-2,11.31-4.42,22.57-9,33.9-13.35a35,35,0,0,0,7.17-3.78l23.79-16.19q27.56-18.75,55.12-37.49a23.68,23.68,0,0,0,4.72-4c4.5-5.2,9-10.36,13.48-15.6a51.29,51.29,0,0,0,4.27-5.78q5.89-9.32,11.6-18.75a14.07,14.07,0,0,0,1.48-3.51,227.84,227.84,0,0,0,5.56-26.21c.91-5.83,1.55-11.7,2.23-17.57.79-6.83,1-13.68,1.44-20.53a115,115,0,0,0-.69-19.62c-.53-4.75-.6-9.57-1.24-14.31a191,191,0,0,0-4.77-24.41c-3-11.28-6.62-22.37-12.31-32.66q-4.41-8-8.56-16.1A74,74,0,0,0,1572,1289c.7-1.9,2.34-3,3.68-4.35a160.56,160.56,0,0,0,15.79-17.37,19,19,0,0,0,3.81-9.08,20.47,20.47,0,0,0-1-10.31c-7.73-20.65-15.23-41.38-22.83-62.08q-8.43-22.95-16.91-45.87c-.31-.85-.32-2-2-2.17-4.13,3.59-8.48,7.35-12.8,11.12q-15.36,13.41-30.69,26.84c-.57.51-1.11,1.19-2.28.76-.26-.56-.6-1.26-.92-2q-7-15.77-14-31.54a41.35,41.35,0,0,0-2.41-4.68q-10.54-17.16-21.15-34.28a23.4,23.4,0,0,0-2.62-3.41c-5.09-5.53-10.23-11-15.33-16.52q-9.61-10.39-19.18-20.81a43.33,43.33,0,0,0-5.65-5.17q-14.31-10.87-28.54-21.89c-4-3.08-8-6.2-12.22-9.5l2-.81c1.92,0,3.84.09,5.76.09h343.56c1.92,0,3.84-.08,5.76-.13.43.24.83.31,1-.28.74-2,.39-4.12.39-6.18q0-232.22,0-464.43c0-1.12,0-2.24,0-3.35,0-.93.21-1.93-.92-3.05-1.52,0-3.4-.12-5.29-.12H1372.43c-1.12,0-2.24,0-3.36,0a3.48,3.48,0,0,0-3,1c0,1.4,0,3.14,0,4.88q-.09,11.75-.2,23.5a15.29,15.29,0,0,1-1.47-1.87,144.75,144.75,0,0,0-12.82-18.46A198.68,198.68,0,0,0,1305.3,514,226.26,226.26,0,0,0,1261,491.5q-4.89-1.9-9.77-3.85c1.92-.08,3.83-.24,5.74-.24,10.72,0,21.44,0,32.16,0,1.39,0,2.89.42,4.13-.57.79-4.39,1.13-68.41.51-94.95,0-.94.17-1.94-.59-2.72a5.47,5.47,0,0,0-3.3,0c-12.13,2.06-24.27,4.07-36.39,6.23-31.48,5.63-62.62,12.76-93.56,20.83a1508.39,1508.39,0,0,0-151.51,48.55q-25.8,9.74-51.24,20.37c-1,.43-2.48.51-3.11,2.27h5q39.84,0,79.67,0c2.08,0,4.15.16,6.23.24-1.62.66-3.22,1.37-4.86,2-34.4,12.19-65.26,30.26-92,55.28A25.52,25.52,0,0,1,945.93,546.6ZM1742.31,11.89c-1.44,0-3.33-.12-5.21-.12H1372.35c-1.12,0-2.24,0-3.36,0a3.33,3.33,0,0,0-3,1q0,236.82,0,474.29a11.93,11.93,0,0,0,.36,1.94,25.65,25.65,0,0,0,6.27.31h363.79c1.28,0,2.56,0,3.84,0,.94,0,1.94.12,2.68-.7.37-3.47.67-466,.3-474.59A2.46,2.46,0,0,0,1742.31,11.89ZM727,204.49c.39-54-44-98.88-98.75-99s-99.32,44.39-99.39,99c-.08,55.19,45.26,99.26,99.09,99.27C682.27,303.7,727.46,259.08,727,204.49Zm238.81,84.75a60.44,60.44,0,1,0-61,60.06A60.34,60.34,0,0,0,965.79,289.24ZM551.41,11.76H471c-1,0-1.91.07-2.86.12a1.16,1.16,0,0,0-.46.12,3.52,3.52,0,0,0-.55.5,9,9,0,0,0-.26,1.62q0,18.45,0,36.89c0,.64,0,1.28,1.11,1.57,6.5-3.56,13.18-7.28,19.92-10.88s13.52-7.21,20.38-10.63,14-6.9,21.17-10.09C536.35,17.89,543.41,15.1,551.41,11.76ZM792.22,147.89a18.32,18.32,0,0,0,.27-36.64,18.32,18.32,0,1,0-.27,36.64ZM928.54,88.21c-.32,0-.64,0-1,0-11.11-.79-19.28,11.84-16.78,21.11,2.14,8,9.43,14.06,17.72,13.74,6.76-.27,11.88-3.21,14.93-8.8C951,100.41,939,87.13,928.54,88.21Z" transform="translate(-0.96 -0.96)"/><path class="cls-2" d="M1386.77,1025.86l-2,.81c4.24,3.3,8.22,6.42,12.22,9.5q14.25,11,28.54,21.89a43.33,43.33,0,0,1,5.65,5.17q9.57,10.41,19.18,20.81c5.1,5.52,10.24,11,15.33,16.52a23.4,23.4,0,0,1,2.62,3.41q10.6,17.12,21.15,34.28a41.35,41.35,0,0,1,2.41,4.68q7,15.75,14,31.54c.32.72.66,1.42.92,2,1.17.43,1.71-.25,2.28-.76q15.36-13.41,30.69-26.84c4.32-3.77,8.67-7.53,12.8-11.12,1.65.2,1.66,1.32,2,2.17q8.46,22.93,16.91,45.87c7.6,20.7,15.1,41.43,22.83,62.08a20.47,20.47,0,0,1,1,10.31,19,19,0,0,1-3.81,9.08,160.56,160.56,0,0,1-15.79,17.37c-1.34,1.33-3,2.45-3.68,4.35-1.74.62-2.78,2.11-4,3.34q-16.15,16-32.28,32.08a33.17,33.17,0,0,1-4,3.46c-11.57,8.24-23.18,16.41-34.75,24.65-5.32,3.79-10.88,7.29-15.74,11.69-4.48,4.07-9.47,7.58-13.47,12.18-5.6,3.69-11.89,5.18-18.43,6.1a115.15,115.15,0,0,1-18.17,1.09,22.09,22.09,0,0,1-6.14-.85c-3.21-1-6.49-1.7-9.72-2.62a29.72,29.72,0,0,1-4.49-1.63q-8.05-3.75-16-7.62a18.21,18.21,0,0,1-9.85-11.13c-.79-2.43-1.64-4.84-2.48-7.26-.2-.57-.24-1.27-1.06-1.52s-1.27.74-1.69,1.35q-9.29,13.7-18.53,27.43a56.68,56.68,0,0,0-3.42,5.76c-8.82,17.22-17.53,34.5-26.42,51.69s-17,35.08-25.24,52.78c-3.69,8-6.53,16.32-9.72,24.51-3.31,8.49-6.54,17-9.89,25.48-2.71,6.85-4.41,14-6.55,21-3.26,10.7-6.15,21.51-9.41,32.2a108.57,108.57,0,0,0-3.21,15c-2,13.25-4,26.52-6.07,39.78a7,7,0,0,1-1.22,3.57c-4.62.68-435.45,1.34-453,.7a2.89,2.89,0,0,1-2.23-.62c-.46-1.48.32-2.82.64-4.18,5.21-22.4,10.62-44.76,15.67-67.2,4.07-18.1,9.07-35.93,14.39-53.68,5.45-18.22,10.14-36.64,15-55,2.1-8,4.34-16,6.28-24.12,2.55-10.58,6.08-20.86,9.28-31.23,1.7-5.5,3.62-10.93,5.23-16.45,3.62-12.47,8.81-24.33,13.74-36.3l4.92-12c.55-1.32,1.26-2.6,1.07-4.13a5.34,5.34,0,0,0-4.92-2.4c-1.28,0-2.56,0-3.84,0-15.36,0-30.72.16-46.07-.1-8.94-.15-17.87-1-26.8-1.53l-1.43-.06c-10.07-.43-20.15-.55-30.18-1.38-8.45-.7-17-.15-25.35-1.55-7.88-1.32-15.7-2.91-23.54-4.45-15.36-3-30.71-6.08-46.06-9.09-16.77-3.3-33.56-6.5-50.31-9.89-3.9-.79-7.68-2.17-11.53-3.24-26.67-7.36-52.75-16.54-78.86-25.61-14.94-5.18-29.55-11.34-44.44-16.68-7.31-2.62-13.88-6.48-20.44-10.44q-31.39-19-62.75-38.07c-5.36-3.25-9.9-7.56-14.75-11.48q-12.12-9.8-24.09-19.8c-3.92-3.28-7.7-6.73-11.45-10.21q-14.61-13.53-29.12-27.17c-.69-.64-1.28-1.4-2.08-2.28,2.4-12.29,4.8-24.62,7.16-36.77,1.54-.49,2.1.45,2.77,1.05q10.51,9.46,21,19a11.39,11.39,0,0,0,3.33,2.59c4.39-2.8,7-5.75,8.39-9.46a16.4,16.4,0,0,0,1.5-1.85c2.33-4,4.62-8,6.91-12.05,5-8.75,9.83-17.55,15.59-25.84,6.2-8.92,12-18.09,18.14-27.08,5.64-8.33,10.94-16.89,17.17-24.82,4.64-5.9,9.19-11.87,13.81-17.79q9.27-11.91,18.6-23.77a150.63,150.63,0,0,0,14.45-21.4,20.78,20.78,0,0,0,2.83-10.48,4.24,4.24,0,0,0,1.16-3.51c0-3.51-.12-7-.08-10.52a4.66,4.66,0,0,0-2.19-4c-2.92-2.2-5.72-4.59-8.72-6.68-2.59-1.81-4.78-4.24-7.85-5.35-2.21-2.78-5.35-4.45-8-6.69-1.31-1.09-2.88-1.91-3.82-3.52,1.29-1.64,3.14-2.27,4.73-3.26,2.41-1.51,5.12-2.56,7.08-4.74,1.95-.32,3.54-1.44,5.19-2.39,8.58-4.95,17.12-10,25.67-15,1.09-.64,2.08-1.5,3.38-1.54a2.29,2.29,0,0,1,.5.19q26.46,18.19,52.91,36.4c6.44,4.44,12.78,9,19.22,13.49a8.47,8.47,0,0,1,4.07,7.17,19.75,19.75,0,0,0,.38,3.33c1.17,6.59,2.42,13.16,3.53,19.76a5.43,5.43,0,0,0,4,4.77c8.32,2.83,16.58,5.82,24.84,8.78,8.72,3.12,17.47,6.17,26.13,9.44,13.74,5.21,27.41,10.59,41.13,15.86,3.87,1.49,7.66,3.22,11.73,4.14,4.35,1,8.71,1.95,13.09,2.82,4.07.81,8.13,1.69,12.34,1.37,1.56-.11,3.2-.39,4.72.39-1.15.58-2.57,0-3.9,1,4.51,1,8.85,1.88,13.16,2.89a239.9,239.9,0,0,0,31.63,5.27c5.88.57,11.73,1.45,17.59,2.19,6.5.82,13,1.66,19.49,2.47,6.33.79,12.67,1.58,19,2.32,7.91.93,15.73,2.38,23.8,1.8,9.57-.68,19.17-.37,28.76-.92,11-.63,22-.37,33.07-1,6.54-.38,13.11-.29,19.67-.43a28.5,28.5,0,0,0,3.82-.25q11.11-1.8,22.21-3.68,27.63-4.71,55.25-9.45a22.26,22.26,0,0,0,2.8-.64c.89-.27,2,.26,2.68-1l-3.28-.54a5.65,5.65,0,0,1,4.18-.38,17.88,17.88,0,0,0,8-.79c13.54-3.71,27.1-7.35,40.65-11,11.08-3,22.2-5.87,33.23-9.09,10.11-2.94,20.12-6.24,30.15-9.43,8.22-2.61,16.41-5.28,24.61-7.94,1.65-.54,3.44-.8,4.7-2.2,2.69-.3,5.37-.73,8.07-.87a203.13,203.13,0,0,0,24.2-3.07,253.28,253.28,0,0,0,82.93-30,4.62,4.62,0,0,1,2.71-.79c4.37,1.95,8.06,5,11.9,7.69,3.37,2.4,7.08,4.13,10.56,6.29a7.48,7.48,0,0,0,2.27.55,7.64,7.64,0,0,0,3,2.29c4.86,2.73,9.77,5.39,14.57,8.23,5.61,3.33,11.58,6,16.8,10.06,11.46,8.9,23,17.61,34.6,26.39,1,.77,1.89,1.74,3.25,1.91a9.91,9.91,0,0,0,3,3c3.07,2.26,6.24,4.41,9.1,6.92C1380.63,1023.89,1383.28,1025.65,1386.77,1025.86Z" transform="translate(-0.96 -0.96)"/><path class="cls-3" d="M1742.31,11.89a2.46,2.46,0,0,1,1,2.13c.37,8.62.07,471.12-.3,474.59-.74.82-1.74.68-2.68.7-1.28,0-2.56,0-3.84,0H1372.66a25.65,25.65,0,0,1-6.27-.31,11.93,11.93,0,0,1-.36-1.94q0-237.31,0-474.29a3.33,3.33,0,0,1,3-1c1.12,0,2.24,0,3.36,0H1737.1C1739,11.77,1740.87,11.86,1742.31,11.89Z" transform="translate(-0.96 -0.96)"/><path class="cls-3" d="M1386.77,1025.86c-3.49-.21-6.14-2-8.71-4.22-2.86-2.51-6-4.66-9.1-6.92a9.91,9.91,0,0,1-3-3c0-1.28.09-2.56.09-3.83q0-75.46,0-150.92c0-1.44-.12-2.87-.18-4.3,1-1.79,2-3.6,3.12-5.37,4.54-7.5,8.68-15.22,12.6-23.06,1.79-3.58,2.64-7.12,1.75-11-.07-.31-.12-.63-.18-.94.42-1.37.75-2.78,1.27-4.1A271.89,271.89,0,0,0,1400,753.53a232.27,232.27,0,0,0,3.47-36.16,162.53,162.53,0,0,0-.64-18.18c-.45-4.6-.81-9.23-1.52-13.79a177.34,177.34,0,0,0-5.65-24.7c-1-3.17-1.46-6.57-3.65-9.27a132.56,132.56,0,0,0-3.38-21.23c-4.33-17-11.46-32.78-20.29-47.85-.88-1.51-1.68-3.07-2.52-4.61q.1-11.75.2-23.49c0-1.74,0-3.48,0-4.88a3.48,3.48,0,0,1,3-1c1.12,0,2.24,0,3.36,0h364.63c1.89,0,3.77.08,5.29.12,1.13,1.12.89,2.12.92,3.05,0,1.11,0,2.23,0,3.35q0,232.22,0,464.43c0,2.06.35,4.16-.38,6.17-.44-.23-.8-.19-1,.29-1.92,0-3.84.13-5.76.13H1392.53C1390.61,1026,1388.69,1025.89,1386.77,1025.86Zm209.4-367.46c-28.15-.86-54.09,22.37-54.28,53.5-.19,32.13,26.27,54.4,53.94,54.47s54-21.85,54.28-53.66C1650.38,681.2,1624.27,657.68,1596.17,658.4Z" transform="translate(-0.96 -0.96)"/><path class="cls-3" d="M342.33,487.59c-2.4-.06-4.79-.19-7.19-.19H23.66c-1.89,0-3.78-.06-5.26-.08-1.26-1.08-1-2.09-1-3-.05-1.27,0-2.55,0-3.83V11a3,3,0,0,1,2.88-1.12c1.12,0,2.24,0,3.36,0H388.35c1.89,0,3.79.08,5.32.12a6.9,6.9,0,0,1,.68.62,1.07,1.07,0,0,1,.14.46l.15,81.57V96.1l-43,27.11c-.82,1.56.64,3.19-1.26,3.8-1.41-.76-1.59-2.83-3.69-3.26-3.61,2.56-7.39,5.2-11.14,7.91q-24.67,17.81-49.33,35.63-14.76,10.67-29.54,21.3c-1,.72-2.24,1.33-2.35,3.19,3.23,5,6.59,10.2,10,15.39Q282.38,234.58,300.5,262q16.63,25.2,33.29,50.38,29.22,44.18,58.42,88.35c1,1.45,2.19,2.77,2.62,4.54-.06.64-.17,1.27-.17,1.91q0,23.48.06,46.94a13.75,13.75,0,0,1-1.74,1.6q-21,13.41-42,26.78C348.12,484.25,345.2,485.89,342.33,487.59ZM192.6,194.72c-42-.8-77.6,34.47-77.5,77.19.09,41.81,33.54,77.19,77,77.38,43.83.19,77.54-35.31,77.74-77.15C270.08,229.27,234.5,194,192.6,194.72Z" transform="translate(-0.96 -0.96)"/><path class="cls-3" d="M719.79,1023.92c-1.52-.78-3.16-.5-4.72-.39-4.21.32-8.27-.56-12.34-1.37-4.38-.87-8.74-1.83-13.09-2.82-4.07-.92-7.86-2.65-11.73-4.14-13.72-5.27-27.39-10.65-41.13-15.86-8.66-3.27-17.41-6.32-26.13-9.44-8.26-3-16.52-5.95-24.84-8.78a5.43,5.43,0,0,1-4-4.77c-1.11-6.6-2.36-13.17-3.53-19.76a19.75,19.75,0,0,1-.38-3.33,8.47,8.47,0,0,0-4.07-7.17c-6.44-4.46-12.78-9.05-19.22-13.49q-26.43-18.24-52.91-36.4a2.29,2.29,0,0,0-.5-.19c-1.3,0-2.29.9-3.38,1.54-8.55,5-17.09,10-25.67,15-1.65,1-3.24,2.07-5.19,2.39-.05-1.75-.14-3.51-.14-5.27v-352c0-2.72.06-5.44.09-8.15a3.65,3.65,0,0,1,.71-2.71,11.94,11.94,0,0,0,1.86.28q10,0,19.92,0a7.68,7.68,0,0,0,1.79-.44l2-.34c1.29,1.82,2.65,3.6,3.88,5.47q24.54,36.94,49.05,73.91Q566,655.6,586,685.53c.95,1.43,1.63,3.13,3.42,3.9,1.88-.2,3.13-1.57,4.54-2.54,9.47-6.54,18.88-13.16,28.33-19.73q26.38-18.33,52.77-36.65c1.8-1.25,3.87-2.27,5.09-4.26l3.11-1.21c1.33,0,1.44,1.64,2.61,2a2.15,2.15,0,0,0,.83-.07,20.28,20.28,0,0,0,2.06-1.22c36-23.83,73.37-45.39,111.36-65.87,7.31-3.94,14.71-7.73,22-11.66a13.22,13.22,0,0,1,6.83-1.74c4.77.14,9.55,0,13.8,0,1.54.95,1.33,2,1.33,2.91,0,4.31,0,8.63,0,13v75.29c0,1.76,0,3.51.08,5.27-3.18.36-6.34.8-9.52,1.06-17.69,1.41-35.39,2.75-53.08,4.19a47.29,47.29,0,0,0-22.46,7.64,13.52,13.52,0,0,0-5.39,6.51c-2,5.19-4.35,10.3-6.54,15.44Q736,704,724.79,730.21a61.86,61.86,0,0,0-4.52,17.88c1.11,1,2.28.81,3.37.84,9.12.22,18.23.53,27.34.59,25.91.19,51.82.37,77.73-.37,5.11-.14,10.23-.08,15.34-.1,0,1.75.06,3.51.06,5.27v263.27c0,1.44,0,2.88,0,4.32a9.38,9.38,0,0,1-.47,1.82l-.27-.08-.09.26c-1.44,0-2.87.12-4.3.12H724.09C722.65,1024,721.22,1024,719.79,1023.92Z" transform="translate(-0.96 -0.96)"/><path class="cls-4" d="M484.67,963.17a20.78,20.78,0,0,1-2.83,10.48,150.63,150.63,0,0,1-14.45,21.4q-9.36,11.84-18.6,23.77c-4.62,5.92-9.17,11.89-13.81,17.79-6.23,7.93-11.53,16.49-17.17,24.82-6.1,9-11.94,18.16-18.14,27.08-5.76,8.29-10.61,17.09-15.59,25.84-2.29,4-4.58,8.05-6.91,12.05a16.4,16.4,0,0,1-1.5,1.85c-7.55-5.08-14.58-10.86-21.75-16.44q-12.82-10-25.45-20.26c-6.82-5.52-13.54-11.16-20.26-16.79q-8.62-7.21-17.15-14.53-3.82-3.27-7.57-6.62c-7.13-6.38-14.28-12.74-21.34-19.2a55.15,55.15,0,0,1-7.17-7.71,7.82,7.82,0,0,0-3.22-2.78,9.45,9.45,0,0,0-2.22-3.08q-29.13-32.55-56.86-66.3c-25.72-31.48-50.31-63.81-73.14-97.45-20.85-30.74-40.16-62.39-56.75-95.66A469.53,469.53,0,0,1,35,694.12c-2-6.42-3.76-12.86-3.93-19.66-.15-5.92-.28-11.83,0-17.75A16.44,16.44,0,0,1,33.49,649,204.19,204.19,0,0,1,54.12,620.2c14.31-16.91,30.46-31.93,47.47-46.07q15.31-12.74,31.48-24.38c1.27-.93,2.8-1.63,3.42-3.25a10.69,10.69,0,0,0,3.79-2q29.66-21.1,61.08-39.45c8.26-4.83,16.61-9.51,24.92-14.26.27-.16.57-.29.85-.43,2.54-1.27,3.05-1.23,5.1.6,2.86,2.56,5.71,5.11,8.52,7.71Q249,506.31,257.24,514l17.94,16.56c-.61.51-1.18,1.07-1.82,1.53-4.15,3-8.33,5.9-12.49,8.85-.77.55-1.67,1-1.72,2.34.18.41.4,1,.68,1.57q5.66,11.34,11.33,22.68a22.45,22.45,0,0,0,1.58,2.35c.14,1.29.92,1,1.66.61,5.27-3,10.52-6.07,15.79-9.08,1.23-.7,2.32-1.72,4.06-1.75a19.6,19.6,0,0,1,1.47,1.69c12.1,17.49,23.64,35.33,33,54.47a108.55,108.55,0,0,1,6.75,16.38,81.1,81.1,0,0,1,2.14,8.83,14.2,14.2,0,0,1-3.08,12.12,58.28,58.28,0,0,1-7.35,7.55A108.09,108.09,0,0,1,298,677.84a73.82,73.82,0,0,1-18.87,5.23c-2.35.29-4.74.34-7,.49-1.31,3-1.44,3.7-1,6.62a104.88,104.88,0,0,0,3.84,16.3,307.4,307.4,0,0,0,17.41,43,532.53,532.53,0,0,0,98.89,140,10.24,10.24,0,0,0,3.28,2.75c.53.6,1,1.22,1.58,1.79q12.48,12.53,25.91,24,16.19,13.8,33.45,26.16a82.42,82.42,0,0,0,11.18,7.28,9.09,9.09,0,0,0,1.34,1.36C473.46,956.4,478.88,960.09,484.67,963.17Z" transform="translate(-0.96 -0.96)"/><path class="cls-5" d="M844.05,749.05c-5.11,0-10.23,0-15.34.1-25.91.74-51.82.56-77.73.37-9.11-.06-18.22-.37-27.34-.59-1.09,0-2.26.19-3.37-.84a61.86,61.86,0,0,1,4.52-17.88Q736,704,747.2,677.74c2.19-5.14,4.49-10.25,6.54-15.44a13.52,13.52,0,0,1,5.39-6.51,47.29,47.29,0,0,1,22.46-7.64c17.69-1.44,35.39-2.78,53.08-4.19,3.18-.26,6.34-.7,9.52-1.06,4.93-.32,9.86-.6,14.79-1,6.36-.5,12.71-1.07,19.07-1.65,1.89-.17,3.83.21,5.61-.45,1.25-1,1.59-2.47,2.15-3.77a290.87,290.87,0,0,1,29.12-52.71c.64-.91,1.19-1.88,1.78-2.83a13.87,13.87,0,0,0,1.3-1.36,263.24,263.24,0,0,1,25.84-30,30.46,30.46,0,0,0,2.08-2.58,25.52,25.52,0,0,0,2.27-1.72c26.69-25,57.55-43.09,92-55.28,1.64-.58,3.24-1.29,4.85-2,1.85-.47,3.73-.85,5.55-1.43A352,352,0,0,1,1127,471.56a408.06,408.06,0,0,1,46.92-1c10.22.32,20.42.88,30.17,4.43.45.16.94.2,1.4.32,14.2,3.71,28.5,7.09,42.48,11.6,1.06.34,2.17.5,3.26.74q4.89,1.94,9.77,3.85A226.26,226.26,0,0,1,1305.3,514a198.68,198.68,0,0,1,46.21,43.39,144.75,144.75,0,0,1,12.82,18.46,15.29,15.29,0,0,0,1.47,1.87c.84,1.53,1.64,3.09,2.52,4.6,8.83,15.07,16,30.85,20.29,47.85a132.56,132.56,0,0,1,3.38,21.23c-1.37.83-2.76,1.6-4.1,2.47a241.65,241.65,0,0,1-37.21,19.81c-26.49,11.38-54,19.86-81.82,27.1-19.33,5-38.81,9.37-58.4,13.22q-18.56,3.66-37.22,6.8c-11.17,1.88-22.4,3.49-33.61,5.15-10.42,1.54-20.84,3.07-31.29,4.43-9.18,1.19-18.4,2.13-27.6,3.18-10.31,1.18-20.6,2.46-30.93,3.5-8.74.89-17.52,1.37-26.25,2.29-4.45.47-8.92.69-13.37,1.06-5.41.46-10.8,1.1-16.22,1.49-7.17.51-14.35.86-21.53,1.28-.48,0-1,.06-1.43.09-7.17.52-14.33,1.15-21.5,1.53-5.27.28-10.55.3-15.78,1.07-6.49.1-13,.28-19.46.72-9.32.62-18.69.46-28,1.13-4.27.31-8.57.24-12.85.34l-27,.7C845.62,748.81,844.84,749,844.05,749.05Z" transform="translate(-0.96 -0.96)"/><path class="cls-6" d="M272.74,569.87a22.45,22.45,0,0,1-1.58-2.35q-5.7-11.32-11.33-22.68c-.28-.57-.5-1.16-.68-1.57.05-1.34,1-1.79,1.72-2.34,4.16-2.95,8.34-5.89,12.49-8.85.64-.46,1.21-1,1.82-1.53,3.65-2.27,7.31-4.51,10.94-6.82q26.58-16.92,53.15-33.89c1.06-.68,2-1.49,3.06-2.25,2.87-1.7,5.79-3.34,8.61-5.13q21-13.35,42-26.78a13.75,13.75,0,0,0,1.74-1.6,15.48,15.48,0,0,0,2.16-.94q9.69-6.15,19.34-12.34a2.1,2.1,0,0,0,1.24-1.7c-.27-.44-.64-1.12-1.06-1.77q-9.75-14.74-19.52-29.48c-.61-.92-1.37-1.75-2.05-2.62-.43-1.77-1.66-3.09-2.62-4.54Q363,356.5,333.79,312.34,317.14,287.16,300.5,262q-18.11-27.39-36.18-54.79c-3.43-5.19-6.79-10.41-10-15.39.11-1.86,1.34-2.47,2.35-3.19q14.76-10.67,29.54-21.3,24.68-17.81,49.33-35.63c3.75-2.71,7.53-5.35,11.14-7.91,2.1.43,2.28,2.5,3.69,3.26.45,1.76,1.66,3.08,2.63,4.54Q467.64,304.9,582.33,478.24L677.82,622.6c.79,1.2,1.54,2.43,2.31,3.65-1.22,2-3.29,3-5.09,4.26q-26.35,18.38-52.77,36.65c-9.45,6.57-18.86,13.19-28.33,19.73-1.41,1-2.66,2.34-4.54,2.54-1.79-.77-2.47-2.47-3.42-3.9Q566,655.59,546.14,625.64q-24.54-36.95-49.05-73.91c-1.23-1.87-2.59-3.65-3.88-5.47-.3-.56-.54-1.16-.89-1.68Q468.19,508.24,444,471.9a6.92,6.92,0,0,0-2.18-2.59c-1.8.17-3.13,1.41-4.61,2.3q-60,36-120.06,72c-1.35.81-2.89,1.39-3.92,2.68a25.48,25.48,0,0,0-2.6,1.18c-6.73,4-13.42,8-20.15,12C284.6,563,278.66,566.4,272.74,569.87Z" transform="translate(-0.96 -0.96)"/><path class="cls-4" d="M1467.8,1376.36c4-4.6,9-8.11,13.47-12.18,4.86-4.4,10.42-7.9,15.74-11.69,11.57-8.24,23.18-16.41,34.75-24.65a33.17,33.17,0,0,0,4-3.46q16.15-16,32.28-32.08c1.23-1.23,2.27-2.72,4-3.34a74,74,0,0,1,15.92,20.8q4.14,8.13,8.56,16.1c5.69,10.29,9.26,21.38,12.31,32.66a191,191,0,0,1,4.77,24.41c.64,4.74.71,9.56,1.24,14.31a115,115,0,0,1,.69,19.62c-.4,6.85-.65,13.7-1.44,20.53-.68,5.87-1.32,11.74-2.23,17.57a227.84,227.84,0,0,1-5.56,26.21,14.07,14.07,0,0,1-1.48,3.51q-5.73,9.42-11.6,18.75a51.29,51.29,0,0,1-4.27,5.78c-4.44,5.24-9,10.4-13.48,15.6a23.68,23.68,0,0,1-4.72,4q-27.59,18.71-55.12,37.49l-23.79,16.19a35,35,0,0,1-7.17,3.78c-11.33,4.37-22.59,8.93-33.9,13.35-2.07.81-4.26,1.34-6.4,2-16.4,4.8-32.78,9.64-49.2,14.37-6.44,1.86-12.94,3.5-19.43,5.19a11.32,11.32,0,0,1-5.69-.1c-7.08-1.8-13.33-5.29-19.37-9.25a10.47,10.47,0,0,1-3-3.71c-3.34-5.45-6.6-10.95-9.89-16.43-.83-1.37-1.6-2.78-2.51-4.09-4.59-6.69-7-14.34-9.53-21.9-2.32-7-4.37-14-6.14-21.16a184.73,184.73,0,0,1-4.61-26.38,128.15,128.15,0,0,1-.66-15.78,81.76,81.76,0,0,1,3.33-21.22,34.47,34.47,0,0,1,6.75-12.06c8.11-9.91,18-17.16,30.82-19.86,4.35-.92,8.72-2,13.26-.88a19.29,19.29,0,0,0,4.31.16,15.6,15.6,0,0,1,7.28,1.59,45.27,45.27,0,0,1,3.36,8.6c1.25,5.12,2.61,10.21,4,15.29,2.09,7.66,7.7,11.14,15.58,9.84a63.79,63.79,0,0,0,17.77-5.56c4.32-2.11,8.77-3.86,13.2-5.7,9.09-3.8,17.4-8.87,24.27-16a56.87,56.87,0,0,0,16.32-35.41c.22-2.54,1-5,.82-7.61-.38-7.66-.86-15.29-3-22.71a5.06,5.06,0,0,1-.37-1.38C1472,1384.64,1469.72,1380.57,1467.8,1376.36Z" transform="translate(-0.96 -0.96)"/><path class="cls-3" d="M136.49,546.5c-.62,1.62-2.15,2.32-3.42,3.25q-16.14,11.68-31.48,24.38c-17,14.14-33.16,29.16-47.47,46.07A204.19,204.19,0,0,0,33.49,649a16.44,16.44,0,0,0-2.39,7.67c-.3,5.92-.17,11.83,0,17.75.17,6.8,1.89,13.24,3.93,19.66a469.53,469.53,0,0,0,27.78,67.31c16.59,33.27,35.9,64.92,56.75,95.66,22.83,33.64,47.42,66,73.14,97.45q27.65,33.83,56.86,66.3a9.45,9.45,0,0,1,2.22,3.08c-1.76,0-3.52.11-5.27.11H18.6c-1.42-.95-1.2-2-1.23-2.9,0-1.11,0-2.23,0-3.35q0-232.47,0-464.93c0-1.89-.26-3.82.25-5.63,1.15-1.08,2.49-.72,3.72-.72,8.32,0,16.64,0,25,0Z" transform="translate(-0.96 -0.96)"/><path class="cls-3" d="M727,204.49c.48,54.59-44.71,99.21-99.05,99.21-53.83,0-99.17-44.08-99.09-99.27.07-54.58,44.82-99.13,99.39-99S727.37,150.54,727,204.49ZM565.2,157.82c-.38,15.68,13,28.41,28.13,28.51,14.29.1,28.41-11.18,28.6-28.11.19-17.35-14.27-28.81-28.44-28.75C578.06,129.53,564.9,142.36,565.2,157.82Z" transform="translate(-0.96 -0.96)"/><path class="cls-3" d="M1251.27,487.65c-1.09-.24-2.2-.4-3.26-.74-14-4.51-28.28-7.89-42.48-11.6-.46-.12-1-.16-1.4-.32-9.75-3.55-20-4.11-30.17-4.43a408.06,408.06,0,0,0-46.92,1,352,352,0,0,0-76.49,14.66c-1.82.58-3.7,1-5.55,1.43-2.07-.08-4.14-.24-6.22-.24q-39.82,0-79.67,0h-5c.63-1.76,2.08-1.84,3.11-2.27q25.46-10.59,51.24-20.37A1508.39,1508.39,0,0,1,1160,416.2c30.94-8.07,62.08-15.2,93.56-20.83,12.12-2.16,24.26-4.17,36.39-6.23a5.47,5.47,0,0,1,3.3,0c.76.78.57,1.78.59,2.72.62,26.54.28,90.56-.51,94.95-1.24,1-2.74.57-4.13.57-10.72,0-21.44,0-32.16,0C1255.1,487.41,1253.19,487.57,1251.27,487.65Z" transform="translate(-0.96 -0.96)"/><path class="cls-7" d="M965.79,289.24A60.44,60.44,0,1,1,906,228.37,60.12,60.12,0,0,1,965.79,289.24ZM888,248.55c-8.6-1.17-17.6,8.23-17.42,17.16.18,8.69,7.24,17.4,17.42,17.4s17.23-8.62,17.41-17.39C905.61,256.76,896.57,247.38,888,248.55Z" transform="translate(-0.96 -0.96)"/><path class="cls-3" d="M551.41,11.76c-8,3.34-15.06,6.13-22,9.23-7.14,3.19-14.18,6.6-21.17,10.09s-13.62,7-20.38,10.63S474.46,49,468,52.59c-1.09-.29-1.11-.93-1.11-1.57q0-18.44,0-36.89a9,9,0,0,1,.26-1.62,3.52,3.52,0,0,1,.55-.5,1.16,1.16,0,0,1,.46-.12c.95-.05,1.91-.12,2.86-.12Z" transform="translate(-0.96 -0.96)"/><path class="cls-3" d="M792.22,147.89a18.32,18.32,0,1,1,18.32-18.18A18.34,18.34,0,0,1,792.22,147.89Z" transform="translate(-0.96 -0.96)"/><path class="cls-7" d="M928.54,88.21c10.5-1.08,22.45,12.2,14.91,26.05-3.05,5.59-8.17,8.53-14.93,8.8-8.29.32-15.58-5.77-17.72-13.74-2.5-9.27,5.67-21.9,16.78-21.11C927.9,88.23,928.22,88.21,928.54,88.21Z" transform="translate(-0.96 -0.96)"/><path class="cls-3" d="M945.93,546.6a30.46,30.46,0,0,1-2.08,2.58,263.24,263.24,0,0,0-25.84,30,13.87,13.87,0,0,1-1.3,1.36,21.17,21.17,0,0,1-.25-2.37q0-14.13,0-28.27a4.42,4.42,0,0,1,.44-2.77C920.52,546.26,932.26,546.06,945.93,546.6Z" transform="translate(-0.96 -0.96)"/><path class="cls-2" d="M1741.85,1025.82c.24-.48.6-.52,1-.29C1742.68,1026.13,1742.28,1026.06,1741.85,1025.82Z" transform="translate(-0.96 -0.96)"/><path class="cls-4" d="M873.4,748.09c4.28-.1,8.58,0,12.85-.34,9.33-.67,18.7-.51,28-1.13,6.49-.44,13-.62,19.46-.72.29,1.25.52,2.5.87,3.73,3.14,11.06,6.23,22.14,9.48,33.17,2,6.73,3.59,13.57,6.44,20.05,4.3,9.8,8.33,19.73,12.61,29.53,2.11,4.83,3.75,9.88,6.59,14.37q8.22,13,16.49,25.88a74.77,74.77,0,0,0,10.47,11.52c2.83-1.75,5.88-3.33,8.42-5.87-.55-1.7-1.05-3.2-1.54-4.71-4.66-14.44-9.34-28.87-13.2-43.56-2.52-9.58-2-19,.61-28.38a16.24,16.24,0,0,1,7.33-9.71,23.9,23.9,0,0,1,15.14-3.51,42.05,42.05,0,0,1,27.72,13.7,47.76,47.76,0,0,1,11.08,21c3,11.44,3.41,23,2.23,34.72a9.61,9.61,0,0,0-.1,3.33c1.61,6,3.18,12,6.84,17.27a68.38,68.38,0,0,0,23.15,20.46c11.71,6.61,24.57,9.75,37.66,12.2,8,1.5,16.17,1.9,24.28,2.56a35.73,35.73,0,0,0,8.14,0c10-1.46,19.91-2.94,29.79-4.81,14.74-2.79,29.31-6.4,44.16-8.71A321.52,321.52,0,0,0,1271.76,890c22.87-6.92,44.89-15.85,65.53-28a185.81,185.81,0,0,0,31.22-23,14.92,14.92,0,0,0,3.7-4.35c1.54-3.16,3.22-6.25,4.75-9.41,2.09-4.31,4.1-8.65,6.14-13,.06.31.11.63.18.94.89,3.91,0,7.45-1.75,11-3.92,7.84-8.06,15.56-12.6,23.06-1.07,1.77-2.08,3.58-3.12,5.37-.76,1-1.59,2-2.28,3.07a305,305,0,0,1-31.39,40.45,265.69,265.69,0,0,1-31.52,29.39c-2.37,1.87-5,3.48-6.95,5.83a13.33,13.33,0,0,0-1.67.9q-10.17,7.54-21,14a4.89,4.89,0,0,0-2,2,4.62,4.62,0,0,0-2.71.79,253.28,253.28,0,0,1-82.93,30,203.13,203.13,0,0,1-24.2,3.07c-2.7.14-5.38.57-8.07.87-1.44,0-2.88,0-4.32,0a358.62,358.62,0,0,1-78.22-5.73,319.19,319.19,0,0,1-73.62-22.26c-28.29-12.63-53.79-29.39-75.6-51.53-.78-.79-1.67-1.46-2.5-2.19-2.37-2.8-4.69-5.65-7.11-8.4a188.43,188.43,0,0,1-27.43-40.89A162.71,162.71,0,0,1,869.7,818a124.08,124.08,0,0,1-3.88-33.66v-.48a83,83,0,0,1,6.74-33.08A25.18,25.18,0,0,0,873.4,748.09Z" transform="translate(-0.96 -0.96)"/><path class="cls-1" d="M313.26,546.26c1-1.29,2.57-1.87,3.92-2.68q60-36,120.06-72c1.48-.89,2.81-2.13,4.61-2.3A6.92,6.92,0,0,1,444,471.9q24.15,36.33,48.29,72.68c.35.52.59,1.12.89,1.68l-2,.34a7.52,7.52,0,0,0-1.39-.25q-10.2,0-20.39,0a9,9,0,0,0-1.8.42,3.65,3.65,0,0,0-.71,2.71c0,2.71-.09,5.43-.09,8.15v352c0,1.76.09,3.52.14,5.27-2,2.18-4.67,3.23-7.08,4.74-1.59,1-3.44,1.62-4.73,3.26.94,1.61,2.51,2.43,3.82,3.52,2.66,2.24,5.8,3.91,8,6.69-.05,1.88-.13,3.76-.16,5.65-.08,4.23-.13,8.47-.2,12.7a82.42,82.42,0,0,1-11.18-7.28Q438.16,931.86,422,918q-13.46-11.47-25.91-24c-.56-.57-1-1.19-1.57-1.79,0-2.08.11-4.16.11-6.24q0-166.43,0-332.86c0-1.44,0-2.88,0-4.32a15.21,15.21,0,0,0-.3-1.88c-1.79-.79-3.57-.44-5.28-.44q-34.77,0-69.55,0C317.41,546.47,315.33,546.33,313.26,546.26Z" transform="translate(-0.96 -0.96)"/><path class="cls-1" d="M873.4,748.09a25.18,25.18,0,0,1-.84,2.72,83,83,0,0,0-6.74,33.08v.48A124.08,124.08,0,0,0,869.7,818a162.71,162.71,0,0,0,12.54,34.1A188.43,188.43,0,0,0,909.67,893c2.42,2.75,4.74,5.6,7.11,8.4-.09,1.11-.24,2.22-.24,3.33q0,57.63,0,115.25c0,1.26-.19,2.56.5,3.73l.1.27.26-.09c1.91,0,3.83.12,5.74.12h70.92c3.84,0,7.67,0,11.5-.08l3.28.54c-.64,1.21-1.79.68-2.68,1a22.26,22.26,0,0,1-2.8.64q-27.61,4.73-55.25,9.45-11.08,1.89-22.21,3.68a28.5,28.5,0,0,1-3.82.25c-6.56.14-13.13,0-19.67.43-11,.66-22.06.4-33.07,1-9.59.55-19.19.24-28.76.92-8.07.58-15.89-.87-23.8-1.8-6.35-.74-12.69-1.53-19-2.32-6.5-.81-13-1.65-19.49-2.47-5.86-.74-11.71-1.62-17.59-2.19a239.9,239.9,0,0,1-31.63-5.27c-4.31-1-8.65-1.9-13.16-2.89,1.33-1,2.75-.4,3.9-1,1.43,0,2.86.11,4.3.11H838.94c1.43,0,2.86-.08,4.29-.12l.26.09.11-.27a9.38,9.38,0,0,0,.47-1.82c.07-1.44,0-2.88,0-4.32V754.32c0-1.76,0-3.52-.06-5.27.79-.09,1.57-.24,2.35-.26Z" transform="translate(-0.96 -0.96)"/><path class="cls-3" d="M917,1023.73c-.69-1.17-.5-2.47-.5-3.73q0-57.63,0-115.25c0-1.11.15-2.22.24-3.33.83.73,1.72,1.4,2.5,2.19,21.81,22.14,47.31,38.9,75.6,51.53a319.19,319.19,0,0,0,73.62,22.26,358.62,358.62,0,0,0,78.22,5.73c1.44,0,2.88,0,4.32,0-1.26,1.4-3,1.66-4.7,2.2-8.2,2.66-16.39,5.33-24.61,7.94-10,3.19-20,6.49-30.15,9.43-11,3.22-22.15,6.09-33.23,9.09-13.55,3.67-27.11,7.31-40.65,11a17.88,17.88,0,0,1-8,.79,5.65,5.65,0,0,0-4.18.38c-3.83,0-7.66.08-11.5.08H923.14c-1.91,0-3.83-.08-5.74-.12a2,2,0,0,0-.09-.26Z" transform="translate(-0.96 -0.96)"/><path class="cls-1" d="M1293.67,931.45c2-2.35,4.58-4,6.95-5.83a265.69,265.69,0,0,0,31.52-29.39,305,305,0,0,0,31.39-40.45c.69-1.07,1.52-2,2.28-3.07.06,1.43.18,2.86.18,4.3q0,75.45,0,150.92c0,1.27-.06,2.55-.09,3.83-1.36-.17-2.25-1.14-3.25-1.91-11.55-8.78-23.14-17.49-34.6-26.39-5.22-4-11.19-6.73-16.8-10.06-4.8-2.84-9.71-5.5-14.57-8.23a7.64,7.64,0,0,1-3-2.29Q1293.68,947.16,1293.67,931.45Z" transform="translate(-0.96 -0.96)"/><path class="cls-3" d="M1293.67,931.45q0,15.72,0,31.43a7.48,7.48,0,0,1-2.27-.55c-3.48-2.16-7.19-3.89-10.56-6.29-3.84-2.73-7.53-5.74-11.9-7.69a4.89,4.89,0,0,1,2-2q10.85-6.51,21-14A13.33,13.33,0,0,1,1293.67,931.45Z" transform="translate(-0.96 -0.96)"/><path class="cls-3" d="M466.63,951.47c.07-4.23.12-8.47.2-12.7,0-1.89.11-3.77.16-5.65,3.07,1.11,5.26,3.54,7.85,5.35,3,2.09,5.8,4.48,8.72,6.68a4.66,4.66,0,0,1,2.19,4c0,3.5.07,7,.08,10.52a4.24,4.24,0,0,1-1.16,3.51c-5.79-3.08-11.21-6.77-16.7-10.34A9.09,9.09,0,0,1,466.63,951.47Z" transform="translate(-0.96 -0.96)"/><path class="cls-6" d="M1383.1,812.31c-2,4.33-4,8.67-6.14,13-1.53,3.16-3.21,6.25-4.75,9.41a14.92,14.92,0,0,1-3.7,4.35,185.81,185.81,0,0,1-31.22,23c-20.64,12.14-42.66,21.07-65.53,28a321.52,321.52,0,0,1-43.37,10.06c-14.85,2.31-29.42,5.92-44.16,8.71-9.88,1.87-19.84,3.35-29.79,4.81a35.73,35.73,0,0,1-8.14,0c-8.11-.66-16.25-1.06-24.28-2.56-13.09-2.45-26-5.59-37.66-12.2a68.38,68.38,0,0,1-23.15-20.46c-3.66-5.25-5.23-11.26-6.84-17.27a9.61,9.61,0,0,1,.1-3.33c1.18-11.7.77-23.28-2.23-34.72a47.76,47.76,0,0,0-11.08-21,42.05,42.05,0,0,0-27.72-13.7,23.9,23.9,0,0,0-15.14,3.51,16.24,16.24,0,0,0-7.33,9.71c-2.57,9.39-3.13,18.8-.61,28.38,3.86,14.69,8.54,29.12,13.2,43.56.49,1.51,1,3,1.54,4.71-2.54,2.54-5.59,4.12-8.42,5.87a74.77,74.77,0,0,1-10.47-11.52q-8.26-12.93-16.49-25.88c-2.84-4.49-4.48-9.54-6.59-14.37-4.28-9.8-8.31-19.73-12.61-29.53-2.85-6.48-4.45-13.32-6.44-20.05-3.25-11-6.34-22.11-9.48-33.17-.35-1.23-.58-2.48-.87-3.73,5.23-.77,10.51-.79,15.78-1.07,7.17-.38,14.33-1,21.5-1.53.47,0,1-.07,1.43-.09,7.18-.42,14.36-.77,21.53-1.28,5.42-.39,10.81-1,16.22-1.49,4.45-.37,8.92-.59,13.37-1.06,8.73-.92,17.51-1.4,26.25-2.29,10.33-1,20.62-2.32,30.93-3.5,9.2-1.05,18.42-2,27.6-3.18,10.45-1.36,20.87-2.89,31.29-4.43,11.21-1.66,22.44-3.27,33.61-5.15q18.66-3.17,37.22-6.8c19.59-3.85,39.07-8.19,58.4-13.22,27.87-7.24,55.33-15.72,81.82-27.1a241.65,241.65,0,0,0,37.21-19.81c1.34-.87,2.73-1.64,4.1-2.47,2.19,2.7,2.68,6.1,3.65,9.27a177.34,177.34,0,0,1,5.65,24.7c.71,4.56,1.07,9.19,1.52,13.79a162.53,162.53,0,0,1,.64,18.18,232.27,232.27,0,0,1-3.47,36.16,271.89,271.89,0,0,1-15.61,54.68C1383.85,809.53,1383.52,810.94,1383.1,812.31Z" transform="translate(-0.96 -0.96)"/><path class="cls-7" d="M1596.17,658.4c28.1-.72,54.21,22.8,53.94,54.31-.27,31.81-26.63,53.74-54.28,53.66S1541.7,744,1541.89,711.9C1542.08,680.77,1568,657.54,1596.17,658.4Zm-27,23.11c-7.27-.71-15.41,4.78-15.59,15.27-.16,9.42,7.19,15.47,15.63,15.38s14.93-5.89,15.45-15.19C1585.18,688.47,1577.9,681.53,1569.22,681.51Z" transform="translate(-0.96 -0.96)"/><path class="cls-7" d="M192.6,194.72c41.9-.69,77.48,34.55,77.26,77.42-.2,41.84-33.91,77.34-77.74,77.15-43.48-.19-76.93-35.57-77-77.38C115,229.19,150.55,193.92,192.6,194.72Zm-15.88,56c1-11.68-10.68-22.71-21.91-22.37-12.26.36-22.23,9.58-22.19,22.24,0,13.06,10.25,21.72,21.83,22.09C167.31,273.09,177.59,261.3,176.72,250.72Z" transform="translate(-0.96 -0.96)"/><path class="cls-1" d="M394.83,405.23c.68.87,1.44,1.7,2.05,2.62q9.78,14.73,19.52,29.48c.42.65.79,1.33,1.06,1.77a2.1,2.1,0,0,1-1.24,1.7q-9.66,6.18-19.34,12.34a15.48,15.48,0,0,1-2.16.94q0-23.47-.06-46.94C394.66,406.5,394.77,405.87,394.83,405.23Z" transform="translate(-0.96 -0.96)"/><path class="cls-2" d="M467.63,546.76a9,9,0,0,1,1.8-.42q10.2,0,20.39,0a7.52,7.52,0,0,1,1.39.25,7.88,7.88,0,0,1-1.8.44q-10,0-19.92,0A11.94,11.94,0,0,1,467.63,546.76Z" transform="translate(-0.96 -0.96)"/><path class="cls-2" d="M843.6,1023.73l-.11.27-.26-.09a2.77,2.77,0,0,0,.1-.26Z" transform="translate(-0.96 -0.96)"/><path class="cls-3" d="M313.26,546.26c2.07.07,4.15.21,6.22.21q34.77,0,69.55,0c1.71,0,3.49-.35,5.28.44a15.21,15.21,0,0,1,.3,1.88c.05,1.44,0,2.88,0,4.32q0,166.43,0,332.86c0,2.08-.07,4.16-.11,6.24a10.17,10.17,0,0,1-3.29-2.75,532.53,532.53,0,0,1-98.89-140,307.4,307.4,0,0,1-17.41-43,104.88,104.88,0,0,1-3.84-16.3c-.42-2.92-.29-3.62,1-6.62,2.25-.15,4.64-.2,7-.49A73.82,73.82,0,0,0,298,677.84a108.09,108.09,0,0,0,29.23-17.15,58.28,58.28,0,0,0,7.35-7.55A14.2,14.2,0,0,0,337.63,641a81.1,81.1,0,0,0-2.14-8.83,108.55,108.55,0,0,0-6.75-16.38c-9.38-19.14-20.92-37-33-54.47a19.6,19.6,0,0,0-1.47-1.69c-1.74,0-2.83,1.05-4.06,1.75-5.27,3-10.52,6.06-15.79,9.08-.74.43-1.52.68-1.66-.61,5.92-3.47,11.86-6.91,17.77-10.41,6.73-4,13.42-8,20.15-12A25.48,25.48,0,0,1,313.26,546.26Z" transform="translate(-0.96 -0.96)"/><path class="cls-1" d="M565.2,157.82c-.3-15.46,12.86-28.29,28.29-28.35,14.17-.06,28.63,11.4,28.44,28.75-.19,16.93-14.31,28.21-28.6,28.11C578.16,186.23,564.82,173.5,565.2,157.82Z" transform="translate(-0.96 -0.96)"/><path class="cls-1" d="M888,248.55c8.57-1.17,17.61,8.21,17.41,17.17-.18,8.77-7.3,17.4-17.41,17.39s-17.24-8.71-17.42-17.4C870.4,256.78,879.4,247.38,888,248.55Z" transform="translate(-0.96 -0.96)"/><path class="cls-2" d="M917,1023.73l.27-.08a2,2,0,0,1,.09.26l-.26.09Z" transform="translate(-0.96 -0.96)"/><path class="cls-1" d="M1569.22,681.51c8.68,0,16,7,15.49,15.46-.52,9.3-7.12,15.09-15.45,15.19s-15.79-6-15.63-15.38C1553.81,686.29,1562,680.8,1569.22,681.51Z" transform="translate(-0.96 -0.96)"/><path class="cls-1" d="M176.72,250.72c.87,10.58-9.41,22.37-22.27,22-11.58-.37-21.78-9-21.83-22.09,0-12.66,9.93-21.88,22.19-22.24C166,228,177.76,239,176.72,250.72Z" transform="translate(-0.96 -0.96)"/></svg>