<svg id="LOGO-IcleanPSD_Image_copy" data-name="LOGO-IcleanPSD Image copy" xmlns="http://www.w3.org/2000/svg" viewBox="0 0 1756.8 1668.48"><defs><style>.cls-1{fill:#fff;}.cls-2{fill:#9e9e9e;}.cls-3{fill:#6e6e6e;}.cls-4{fill:#bebebe;}.cls-5{fill:#4d4d4d;}</style></defs><title>LOGO-Iclean_bw</title><path class="cls-1" d="M1,1h1756.8V1669.44H1ZM17.41,547.32c0,1.76-.06,3.51-.06,5.27q0,232.68,0,465.35c0,1.75.06,3.51.09,5.27a1.45,1.45,0,0,0,1.4,1.08c1.6,0,3.2.07,4.79.07H248.25c5,0,4.55-.49,7.24,3.24a15,15,0,0,0,1.64,1.75,169.29,169.29,0,0,0,12.53,11.86c4.78,4,9.15,8.45,13.86,12.53,7.73,6.68,15.58,13.22,23.38,19.82,6.7,5.67,13.31,11.46,20.15,17q18.09,14.57,36.45,28.79c3.9,3,7.63,6.31,12,8.65a5,5,0,0,1-1.62,3.87c-2.17,2-3.83,4.67-6.84,6-1.18-1-2.28-1.91-3.34-2.87q-10.5-9.48-21-19c-.68-.61-1.31-1.52-2.58-.76-2.26,11.49-4.52,23.07-6.84,34.65a4.11,4.11,0,0,0,1.61,4.18c7.87,7.27,15.7,14.59,23.55,21.87,5.28,4.9,10.4,10,15.89,14.61,10.26,8.66,20.71,17.09,31.14,25.56a82.88,82.88,0,0,0,9.2,6.89q31.2,18.84,62.34,37.78c6.83,4.14,13.57,8.46,21.33,10.78,1.68.5,3.33,1.11,5,1.76,23.17,9.21,46.69,17.46,70.27,25.56,15.11,5.18,30.42,9.75,45.75,14.24,5,1.48,10,3.2,15.24,4.15,10.67,2,21.3,4.19,31.94,6.29q13.15,2.6,26.32,5.15c13.93,2.75,27.86,5.53,41.8,8.25,6.11,1.19,12.22,2.38,18.36,3.36,8.71,1.39,17.54.84,26.3,1.6,9.71.84,19.48.9,29.22,1.3.32,0,.64,0,1,0,8.89,1.25,17.87,1.14,26.79,1.48,15.33.58,30.7.18,46.06.19l3.84,0c2.05,0,3.76.61,4.78,2.41a7.33,7.33,0,0,1-.85,3.79q-2.6,6.18-5.13,12.4c-4.52,11.1-9.47,22-12.86,33.55-1,3.22-2,6.41-3,9.61-3.2,10-6.67,20-9.56,30.15-3.54,12.44-6.72,25-9.85,37.54-5.38,21.54-11.44,42.89-17.68,64.19-2.2,7.51-4.52,15-6.36,22.6-4,16.6-7.76,33.27-11.65,49.9q-4.47,19.13-9,38.23a3.54,3.54,0,0,0-.08,2.34c.26.15.53.44.8.44q226.26,0,452.54-.12a11.62,11.62,0,0,0,2-.37,30.26,30.26,0,0,0,1-3.68c2-13.25,4-26.52,6.07-39.76a106.69,106.69,0,0,1,3.07-14.51c3.29-10.85,6.22-21.81,9.54-32.65,2-6.56,3.58-13.26,6.09-19.67,4.08-10.42,8-20.88,12.08-31.31,2.54-6.55,4.81-13.24,7.78-19.6,8-17.23,15.86-34.58,24.59-51.49,9.25-17.9,18.33-35.88,27.5-53.82a49,49,0,0,1,2.93-4.94q9.36-13.93,18.8-27.82c.42-.62.76-1.45,2.11-1.27a42.64,42.64,0,0,1,2.77,7.83,18.34,18.34,0,0,0,4.54,7.76,18.11,18.11,0,0,0,6.14,4.45c1.62.68,3.14,1.6,4.76,2.29,6.44,2.76,12.49,6.5,19.49,7.89a44.69,44.69,0,0,1,5.57,1.45,17,17,0,0,0,5.66.8,139.74,139.74,0,0,0,17.21-.89c7.06-.91,13.77-2.49,19.9-6.19,1.89,4.21,4.12,8.32,4.13,13.13a6,6,0,0,0,.42,1.37c2,6.95,2.56,14.08,3,21.24.18,2.91-.61,5.71-.8,8.56a57.57,57.57,0,0,1-11.07,29.66,59.27,59.27,0,0,1-11,11.3,81.33,81.33,0,0,1-21.18,12c-3.13,1.22-6.24,2.47-9.23,4a72.15,72.15,0,0,1-18.56,6.2,15.19,15.19,0,0,1-5.25.13c-2.84-.45-5.61-1.25-7.71-3.49a11.4,11.4,0,0,1-2.71-5c-1.53-5.7-3.08-11.4-4.59-17.1a44.82,44.82,0,0,0-3.27-8.23,14.19,14.19,0,0,0-7.15-1.6c-3.68,0-7.36,0-11-.06-7.1-.14-13.5,2.34-19.64,5.48a52.07,52.07,0,0,0-15.61,12.54c-3.45,4-6.78,8.09-8.54,13.2a82.47,82.47,0,0,0-3.76,20.16,104.78,104.78,0,0,0,1,22.93,192.12,192.12,0,0,0,4.24,22,258.15,258.15,0,0,0,10.49,32.81,42.51,42.51,0,0,0,3.87,7.68c1.41,2.12,2.6,4.4,3.91,6.59,3.19,5.35,6.35,10.72,9.63,16a12.33,12.33,0,0,0,3.3,4,67.68,67.68,0,0,0,17.52,8.72,13.34,13.34,0,0,0,8,.31c11.23-3.09,22.47-6.14,33.68-9.28,8.91-2.5,17.79-5.09,26.67-7.7,4.74-1.4,9.52-2.72,14.15-4.44q12.8-4.75,25.42-10c6-2.49,12.16-4.55,17.64-8.43,15.13-10.69,30.59-20.92,45.91-31.34,10.3-7,20.56-14.08,30.91-21a30,30,0,0,0,6-5.47c3.45-4,6.79-8.06,10.3-12a70.89,70.89,0,0,0,7.24-9.52c2.56-4.05,5.14-8.1,7.52-12.25,1.81-3.17,4.1-6.09,5-9.78A307.48,307.48,0,0,0,1613,1447c.38-3.17.56-6.35,1-9.5,1-7.12,1.11-14.3,1.63-21.44.5-6.89-.56-13.71-.91-20.56-.22-4.3-.51-8.61-1.14-12.86a212.38,212.38,0,0,0-4.6-23.44c-3.08-11.6-6.78-23-12.56-33.56-2.84-5.19-5.44-10.52-8.41-15.62-1.84-3.17-3.42-6.48-5.59-9.49-3-4.19-6.8-7.62-10.3-11.34.38-1.88,1.92-2.9,3.15-4.12,5.67-5.63,11.33-11.24,16.1-17.72a18.63,18.63,0,0,0,3.87-8.55,21.88,21.88,0,0,0-1.1-11.24c-7.43-19.73-14.56-39.58-21.83-59.38q-8.91-24.3-17.87-48.57c-.27-.74-.39-1.58-1.76-1.87-5,4-9.94,8.55-15,13s-10,8.92-15.17,13.23-9.72,9.08-15.29,13a11.78,11.78,0,0,1-1-1.44q-7.27-16.42-14.55-32.87a35.61,35.61,0,0,0-2.24-4.23q-10.67-17.36-21.38-34.69a18.13,18.13,0,0,0-2-2.68c-3.88-4.25-7.81-8.46-11.72-12.68q-11.22-12.15-22.47-24.29a49.3,49.3,0,0,0-4.78-4.7c-3.09-2.53-6.33-4.88-9.5-7.31q-15-11.52-30-23.08c-.83-.64-2-1.06-2.35-2.62,1.92,0,3.77-.13,5.61-.13h345.94c1.6,0,3.2,0,4.8,0a1.44,1.44,0,0,0,1.47-1c.08-1.75.22-3.5.22-5.26q0-232.7,0-465.39c0-1.76-.1-3.51-.15-5.27-.17-.45-.36-.93-.91-1-1.43-.07-2.87-.14-4.3-.14H1371.45c-1.44,0-2.87.07-4.31.13-.55,0-.76.48-1,.91q-.12,13.67-.26,27.33a.55.55,0,0,1-.18.39,3,3,0,0,1-.71.22c-1.46-2.35-2.91-4.8-4.49-7.16s-3.28-4.74-5-7.05-3.47-4.6-5.27-6.84-3.66-4.46-5.54-6.63S1341,545.1,1339,543s-4-4.17-6-6.2-4.13-4-6.27-5.94-4.32-3.81-6.55-5.63-4.49-3.6-6.8-5.33-4.64-3.4-7-5-4.81-3.16-7.27-4.66-4.94-3-7.46-4.35-5.06-2.74-7.63-4-5.15-2.57-7.76-3.78-5.24-2.38-7.89-3.49-5.37-2.08-8-3.2-5.36-1.75-8.41-3.43a12.13,12.13,0,0,1,5.14-.58c10.56,0,21.12,0,31.68,0,1.55,0,3.21.43,4.59-.59.82-1.22.52-2.54.53-3.78,0-5.76,0-11.52,0-17.28q0-35.76,0-71.51c0-1.7.49-3.5-.52-5.08a6.43,6.43,0,0,0-3.4,0c-14,2.42-28.05,4.74-42,7.3-34.44,6.33-68.48,14.4-102.26,23.61q-69.9,19-137.58,44.91c-17,6.47-33.89,13.4-50.81,20.17-1,.42-2.48.5-3,1.92.31.19.42.32.53.32l86.39.05,1,0c.32,0,.64,0,1,.09a1,1,0,0,1,.44.18c.1.06.14.2.37.6a35.85,35.85,0,0,1-6.1,2.34c-33,12.06-62.72,29.52-88.47,53.52a7.8,7.8,0,0,1-5.94,2.37c-7.36-.15-14.72-.07-22.08,0-1.4,0-2.87-.33-4.23.51-.87,1.47-.48,3.1-.49,4.65,0,8.48-.11,17,0,25.44a12,12,0,0,1-2.29,7.58,281,281,0,0,0-28.08,50.68c-.7,1.6-1.11,3.36-2.54,4.69-12.49,1-25.07,2.06-37.64,3.07a6,6,0,0,1-1.51-.34c-.75-1.83-.43-3.77-.44-5.65q0-42.48,0-84.95c0-1.72.38-3.5-.47-5.2a4.73,4.73,0,0,0-2.78-.49c-3.68,0-7.36.13-11,0a15.64,15.64,0,0,0-8.22,2c-32.31,16.93-64.18,34.62-95.35,53.56-12.71,7.72-25.33,15.6-37.69,23.87A4.94,4.94,0,0,1,686,627c-1.1-.37-1.37-1.81-2.61-2-1.23.13-2.21,1.46-3.61.79-.74-1.23-1.44-2.48-2.23-3.68q-138.91-210-277.85-420-23.42-35.4-46.81-70.81c-1-1.44-2.33-2.69-2.37-4.61.3-.32.93-.75.86-.95-.62-1.75.22-2.71,1.65-3.48.84-.45,1.62-1,2.44-1.53L391.56,98c1.07-.67,2.32-1.13,3.07-2.67V37.11q0-12,0-24c0-1.07.29-2.27-1.19-3.33H24.28c-1.28,0-2.56,0-3.83,0-.94,0-1.94-.18-2.69.63a3.24,3.24,0,0,0-.32.88c-.06,1.44-.09,2.88-.08,4.32q0,235.15.12,470.33a.93.93,0,0,0,.15.45,3.83,3.83,0,0,0,.5.59c1.76.67,3.85.34,5.9.34q155.49,0,311,0c1.76,0,3.52,0,5.27.09a1.37,1.37,0,0,1,1.33,1.14c-1.37.8-2.78,1.55-4.11,2.4q-18.16,11.55-36.31,23.13c-8.47,5.39-17,10.72-25.48,16.07-1.69-.29-2.76-1.51-3.9-2.62-2.76-2.67-5.46-5.39-8.28-8-7-6.48-14.12-12.92-21.19-19.37q-5.12-4.68-10.26-9.34c-.23-.21-.48-.42-.72-.62a2.91,2.91,0,0,0-3.15-.4,17.86,17.86,0,0,0-2.15,1.06c-6,3.4-11.88,6.85-17.86,10.21-13.35,7.51-26.34,15.62-39.17,24q-13.83,9-27.4,18.43a12.85,12.85,0,0,1-7.87,2.67q-55.36-.15-110.71-.06c-1.43,0-2.87,0-4.31.08A1.38,1.38,0,0,0,17.41,547.32ZM1743.12,11.84c-2.28-.05-4.16-.14-6-.14H1372.35c-1.12,0-2.24,0-3.36,0a3.22,3.22,0,0,0-3,1q0,236.76,0,474.22a10.48,10.48,0,0,0,.36,1.9c2.14.66,4.23.37,6.27.37q181.89,0,363.77,0c1.44,0,2.87,0,4.31,0a3.09,3.09,0,0,0,2.38-.92ZM727,204.61c.57-54-44-98.94-98.55-99.21-54.25-.27-99.4,44-99.58,98.78-.17,55.28,45.26,99.39,98.91,99.46C682.53,303.71,727.45,258.7,727,204.61ZM905.8,228.42a60.44,60.44,0,1,0,60.08,61C966.22,255.11,937.69,227.85,905.8,228.42ZM467.34,11.84c-.74,4.7-.69,36.63,0,40.65,1.64-.15,2.9-1.2,4.26-1.93,10.56-5.64,21-11.45,31.66-17,14.59-7.6,29.38-14.79,44.92-20.29.83-.3,1.81-.46,2.23-1.45Zm324.89,99.41c-9.54-.34-18.33,7.83-18.38,18.14a18.35,18.35,0,1,0,36.69,0C810.51,118.92,801.41,110.84,792.23,111.25ZM928.4,88.17a23.25,23.25,0,0,0-5.84.6,17.41,17.41,0,0,0-9.7,25.64c3.32,5.79,8.59,8.55,15.47,8.62a17.31,17.31,0,0,0,16.4-11.69C949.29,98.4,938,87,928.4,88.17Z" transform="translate(-0.96 -0.96)"/><path class="cls-2" d="M1467.88,1376.41c-6.13,3.7-12.84,5.28-19.9,6.19a139.74,139.74,0,0,1-17.21.89,17,17,0,0,1-5.66-.8,44.69,44.69,0,0,0-5.57-1.45c-7-1.39-13-5.13-19.49-7.89-1.62-.69-3.14-1.61-4.76-2.29a18.11,18.11,0,0,1-6.14-4.45,18.34,18.34,0,0,1-4.54-7.76,42.64,42.64,0,0,0-2.77-7.83c-1.35-.18-1.69.65-2.11,1.27q-9.43,13.89-18.8,27.82a49,49,0,0,0-2.93,4.94c-9.17,17.94-18.25,35.92-27.5,53.82-8.73,16.91-16.54,34.26-24.59,51.49-3,6.36-5.24,13.05-7.78,19.6-4,10.43-8,20.89-12.08,31.31-2.51,6.41-4.07,13.11-6.09,19.67-3.32,10.84-6.25,21.8-9.54,32.65a106.69,106.69,0,0,0-3.07,14.51c-2.07,13.24-4,26.51-6.07,39.76a30.26,30.26,0,0,1-1,3.68,11.62,11.62,0,0,1-2,.37q-226.27.09-452.54.12c-.27,0-.54-.29-.8-.44a3.54,3.54,0,0,1,.08-2.34q4.54-19.11,9-38.23c3.89-16.63,7.62-33.3,11.65-49.9,1.84-7.6,4.16-15.09,6.36-22.6,6.24-21.3,12.3-42.65,17.68-64.19,3.13-12.55,6.31-25.1,9.85-37.54,2.89-10.13,6.36-20.1,9.56-30.15,1-3.2,2-6.39,3-9.61,3.39-11.52,8.34-22.45,12.86-33.55q2.53-6.21,5.13-12.4a7.33,7.33,0,0,0,.85-3.79c-1-1.8-2.73-2.42-4.78-2.41l-3.84,0c-15.36,0-30.73.39-46.06-.19-8.92-.34-17.9-.23-26.79-1.48-.31,0-.63,0-1,0-9.74-.4-19.51-.46-29.22-1.3-8.76-.76-17.59-.21-26.3-1.6-6.14-1-12.25-2.17-18.36-3.36-13.94-2.72-27.87-5.5-41.8-8.25q-13.15-2.58-26.32-5.15c-10.64-2.1-21.27-4.33-31.94-6.29-5.21-1-10.19-2.67-15.24-4.15-15.33-4.49-30.64-9.06-45.75-14.24-23.58-8.1-47.1-16.35-70.27-25.56-1.63-.65-3.28-1.26-5-1.76-7.76-2.32-14.5-6.64-21.33-10.78q-31.18-18.88-62.34-37.78a82.88,82.88,0,0,1-9.2-6.89c-10.43-8.47-20.88-16.9-31.14-25.56-5.49-4.63-10.61-9.71-15.89-14.61-7.85-7.28-15.68-14.6-23.55-21.87a4.11,4.11,0,0,1-1.61-4.18c2.32-11.58,4.58-23.16,6.84-34.65,1.27-.76,1.9.15,2.58.76q10.5,9.46,21,19c1.06,1,2.16,1.86,3.34,2.87,3-1.29,4.67-3.93,6.84-6a5,5,0,0,0,1.62-3.87,6.52,6.52,0,0,0,1.39-1.26c4.05-7,8-14.17,12.1-21.18,2.5-4.26,4.7-8.69,7.57-12.75,4-5.59,7.75-11.3,11.58-17q6.68-9.91,13.3-19.88c3.46-5.17,6.69-10.51,10.42-15.47,6.12-8.14,12.59-16,18.86-24.05,5.19-6.64,10.26-13.38,15.45-20,5-6.41,10-12.79,14.05-19.88,2.39-4.19,4.55-8.41,4.48-13.41,1.1-1,1.06-2.25,1.06-3.52,0-3.19-.12-6.37,0-9.55a5.56,5.56,0,0,0-2.61-5.23c-2.6-1.81-4.92-4-7.55-5.79-2.88-1.92-5.17-4.73-8.66-5.72-1-1.72-2.64-2.71-4.11-3.92-2.53-2.1-5.42-3.78-7.68-6.36,1.29-1.78,3.16-2.39,4.76-3.38,2.41-1.49,5.15-2.53,7-4.81,2.12-.31,3.87-1.51,5.65-2.53,6.22-3.57,12.37-7.29,18.57-10.91,3.29-1.91,6.62-3.75,9.77-5.53,2.63,1.25,4.51,3,6.6,4.46q17.94,12.35,35.92,24.64,11.84,8.13,23.63,16.32,3.54,2.44,7,5a8.77,8.77,0,0,1,3.77,5.88c1.28,8.16,2.66,16.31,4,24.48a5.17,5.17,0,0,0,3.82,4.41c2.57.86,5.07,1.92,7.63,2.8,16.31,5.58,32.59,11.19,48.65,17.46,10.25,4,20.54,7.91,30.82,11.85,6.69,2.57,13.22,5.6,20.36,6.84,1.72.3,3.41.78,5.14,1.08,5.78,1,11.43,2.38,17.45,2.36,42.7-.21,85.4-.1,128.11-.09a1.71,1.71,0,0,1-1.58.87c-1.44,0-2.87,0-4.31,0H722.28c-2,0-4,.07-5.93.11a129.42,129.42,0,0,0,13.85,3.69,235.61,235.61,0,0,0,30.69,5c5.71.54,11.4,1.39,17.1,2.11,6.81.86,13.61,1.75,20.42,2.6,6,.75,12,1.46,18.05,2.21,7.74,1,15.4,2.34,23.3,1.83,9.56-.63,19.15-.31,28.74-.9,11.48-.7,23-.38,34.5-1,10.67-.61,21.38.07,32-2.09,10.15-2.08,20.43-3.59,30.65-5.33q15.57-2.67,31.14-5.3c4.05-.7,8.08-1.43,12.12-2.14a18.59,18.59,0,0,0-6-.75H922.73l-4.32,0a1.67,1.67,0,0,1-1.57-.87l95.41,0a15.5,15.5,0,0,0,3.8-.31c7.86-2,15.7-4.17,23.53-6.29q12.69-3.42,25.36-6.88c11.21-3.07,22.49-5.9,33.6-9.32,16.3-5,32.49-10.43,48.69-15.77,1.29-.43,2.92-.4,3.81-1.78a1.85,1.85,0,0,1,2.1-.73,5.64,5.64,0,0,0,2.78.28c4-.88,8.21-.88,12.29-1.27,5.71-.54,11.33-1.53,16.94-2.52a258.18,258.18,0,0,0,25.47-6.07,244.47,244.47,0,0,0,35.29-13.19,180.45,180.45,0,0,0,20.42-10.5,4.61,4.61,0,0,1,2.77-.54c2.31.31,3.89,2,5.62,3.25a158.78,158.78,0,0,0,17.12,10.84c.49.28,1.23.12,1.85.17a6.89,6.89,0,0,0,2.93,2.38q11.91,6.64,23.8,13.35a55.29,55.29,0,0,1,6.06,3.84q18.51,14,36.92,28.15a4.39,4.39,0,0,0,2.54,1.21,8.84,8.84,0,0,0,3,3c3.34,2.45,6.76,4.83,9.87,7.55a11.54,11.54,0,0,0,8.23,3q175.38-.11,350.76-.06c1.76,0,3.52,0,5.28-.07a1.44,1.44,0,0,1-1.47,1c-1.6,0-3.2,0-4.8,0H1390.85c-1.84,0-3.69.09-5.61.13.39,1.56,1.52,2,2.35,2.62q15,11.58,30,23.08c3.17,2.43,6.41,4.78,9.5,7.31a49.3,49.3,0,0,1,4.78,4.7q11.26,12.12,22.47,24.29c3.91,4.22,7.84,8.43,11.72,12.68a18.13,18.13,0,0,1,2,2.68q10.71,17.33,21.38,34.69a35.61,35.61,0,0,1,2.24,4.23q7.3,16.43,14.55,32.87a11.78,11.78,0,0,0,1,1.44c5.57-3.89,10.2-8.71,15.29-13s10.13-8.8,15.17-13.23,9.95-9,15-13c1.37.29,1.49,1.13,1.76,1.87q8.94,24.29,17.87,48.57c7.27,19.8,14.4,39.65,21.83,59.38a21.88,21.88,0,0,1,1.1,11.24,18.63,18.63,0,0,1-3.87,8.55c-4.77,6.48-10.43,12.09-16.1,17.72-1.23,1.22-2.77,2.24-3.15,4.12-1.89.37-2.87,1.95-4.1,3.17q-11.74,11.65-23.42,23.39c-6,6-12.07,11.78-19.16,16.53-9,6-17.74,12.45-26.49,18.84-7.71,5.63-16,10.58-22.64,17.54a6,6,0,0,1-1.11.91A31.43,31.43,0,0,0,1467.88,1376.41Z" transform="translate(-0.96 -0.96)"/><path class="cls-3" d="M843.81,1023.34c-42.71,0-85.41-.12-128.11.09-6,0-11.67-1.33-17.45-2.36-1.73-.3-3.42-.78-5.14-1.08-7.14-1.24-13.67-4.27-20.36-6.84-10.28-3.94-20.57-7.85-30.82-11.85-16.06-6.27-32.34-11.88-48.65-17.46-2.56-.88-5.06-1.94-7.63-2.8a5.17,5.17,0,0,1-3.82-4.41c-1.3-8.17-2.68-16.32-4-24.48a8.77,8.77,0,0,0-3.77-5.88q-3.47-2.57-7-5-11.79-8.18-23.63-16.32-18-12.33-35.92-24.64c-2.09-1.45-4-3.21-6.6-4.46-3.15,1.78-6.48,3.62-9.77,5.53-6.2,3.62-12.35,7.34-18.57,10.91-1.78,1-3.53,2.22-5.65,2.53,0-1.75-.15-3.51-.15-5.27q0-178.44,0-356.87c0-1.76.12-3.51.18-5.27,1.41-.07,2.82-.2,4.23-.2q11.1,0,22.18,0a4.32,4.32,0,0,1,2,2q10.91,16.59,21.85,33.15,25.56,38.45,51.16,76.87c6.51,9.84,13.37,19.45,19.42,29.6a2,2,0,0,0,2.14,1.1c.73-.6,1.55-1.37,2.46-2q18.09-12.51,36.18-25c10.87-7.54,21.68-15.16,32.54-22.71,5.49-3.82,11-7.62,16.57-11.34a3.85,3.85,0,0,0,2-3c1.4.67,2.38-.66,3.61-.79,1.24.17,1.51,1.61,2.61,2a4.94,4.94,0,0,0,2.56-1.2c12.36-8.27,25-16.15,37.69-23.87,31.17-18.94,63-36.63,95.35-53.56a15.64,15.64,0,0,1,8.22-2c3.68.18,7.36,0,11,0a4.73,4.73,0,0,1,2.78.49c.85,1.7.47,3.48.47,5.2q0,42.46,0,84.95c0,1.88-.31,3.82.44,5.65a6,6,0,0,0,1.51.34c12.57-1,25.15-2,37.64-3.07,1.43-1.33,1.84-3.09,2.54-4.69a281,281,0,0,1,28.08-50.68A12,12,0,0,0,916.6,577c-.14-8.48-.07-17,0-25.44,0-1.55-.38-3.18.49-4.65,1.36-.84,2.83-.5,4.23-.51,7.36,0,14.72-.11,22.08,0a7.8,7.8,0,0,0,5.94-2.37c25.75-24,55.48-41.46,88.47-53.52a35.85,35.85,0,0,0,6.1-2.34c-.23-.4-.27-.54-.37-.6a1,1,0,0,0-.44-.18c-.31,0-.63-.07-1-.09l-1,0-86.39-.05c-.11,0-.22-.13-.53-.32.48-1.42,1.93-1.5,3-1.92,16.92-6.77,33.78-13.7,50.81-20.17q67.71-25.74,137.58-44.91c33.78-9.21,67.82-17.28,102.26-23.61,14-2.56,28-4.88,42-7.3a6.43,6.43,0,0,1,3.4,0c1,1.58.52,3.38.52,5.08q.06,35.76,0,71.51c0,5.76,0,11.52,0,17.28,0,1.24.29,2.56-.53,3.78-1.38,1-3,.58-4.59.59-10.56,0-21.12,0-31.68,0a12.13,12.13,0,0,0-5.14.58c3,1.68,5.83,2.32,8.41,3.43s5.36,2.09,8,3.2,5.28,2.28,7.89,3.49,5.2,2.48,7.76,3.78,5.12,2.64,7.63,4,5,2.85,7.46,4.35,4.89,3,7.27,4.66,4.73,3.29,7,5,4.58,3.5,6.8,5.33,4.41,3.7,6.55,5.63,4.22,3.92,6.27,5.94,4,4.09,6,6.2,3.87,4.26,5.75,6.44,3.74,4.38,5.54,6.63,3.55,4.52,5.27,6.84,3.39,4.65,5,7.05,3,4.81,4.49,7.16a3,3,0,0,0,.71-.22.55.55,0,0,0,.18-.39q.15-13.66.26-27.34c1.76,0,3.52-.07,5.28-.07h365.93c1.91,0,3.83.08,5.75.13,0,1.76.15,3.51.15,5.27q0,232.69,0,465.39c0,1.76-.14,3.51-.22,5.26-1.76,0-3.52.07-5.28.07q-175.38,0-350.76.06a11.54,11.54,0,0,1-8.23-3c-3.11-2.72-6.53-5.1-9.87-7.55a8.84,8.84,0,0,1-3-3c0-1.76.06-3.52.06-5.27q0-76,0-151.92c0-2.69,1.44-4.81,2.77-7a252.79,252.79,0,0,0,12.63-22.93c1.65-3.44,3.24-6.88,2-10.86a5.24,5.24,0,0,1,0-1.43,7.2,7.2,0,0,1,.63-3.25c2.1-4.83,3.8-9.8,5.53-14.78a248,248,0,0,0,9.4-35c.78-4,1.54-8.11,2.13-12.19.62-4.24,1.1-8.5,1.5-12.76.24-2.53.48-5.08.68-7.59a155.55,155.55,0,0,0,0-23.94c-.18-2.35-.6-4.72-.66-7.11a11.82,11.82,0,0,0-.2-3.33c-1.12-3.21-1-6.6-1.56-9.88-1.5-9.48-4.24-18.61-7-27.74-.31-1-.63-2.17-1.6-2.57a2.11,2.11,0,0,0-2,.32c-4.36,3-9,5.54-13.51,8.17a282,282,0,0,1-30,14.84c-11,4.72-22.34,8.57-33.64,12.48-7.22,2.5-14.58,4.63-21.93,6.72-10,2.82-19.93,5.63-30,8.09-10.2,2.49-20.44,4.83-30.69,7.11-12.11,2.69-24.32,4.85-36.48,7.28-5.14,1-10.31,1.9-15.47,2.81-5.64,1-11.25,2.26-16.93,2.83-5.39.55-10.64,1.84-16,2.32s-11,1.95-16.47,2.5c-5.86.58-11.63,1.75-17.51,2.21-6.32.5-12.56,1.86-18.87,2.61-6.94.83-13.92,1.39-20.88,2.08a6.74,6.74,0,0,0-1.43.17c-4.31,1.36-8.84.88-13.25,1.5-4.69.65-9.44,1.65-14.26,1.24a7.88,7.88,0,0,0-1.42.18c-5,.55-10.09,1.37-15.16,1.57-5.42.21-10.75,1.55-16.2,1.13a2,2,0,0,0-1,.12c-2.46,1-5,.68-7.58.76a13.19,13.19,0,0,0-3.34.14c-3.61,1.09-7.29.7-11,.84a10.4,10.4,0,0,0-2.86.17c-3,1-6,.67-9,.77-1.75.06-3.6-.24-5.25.21-3.16.85-6.33.66-9.52.75-1.75.05-3.59-.28-5.26.14-4.42,1.1-8.89.78-13.34.8a32.89,32.89,0,0,0-8,1c-1.59-.06-3.17-.18-4.76-.15-5.07.07-10.13.47-15.19.76-12.82.71-25.68.85-38.52,1.23-.95,0-1.9.12-2.84.18l-26.38.76a2.11,2.11,0,0,0-2,1.21c0,1.38-.08,3.27-.08,5.17q0,131,0,262C844.08,1019.2,843.9,1021.27,843.81,1023.34Zm752.24-364.92c-29.09-.91-54.09,23.36-54.17,53.53-.08,32.07,26.27,54.33,54.07,54.35s53.93-22,54.17-53.77C1650.35,682,1625.14,657.54,1596.05,658.42Z" transform="translate(-0.96 -0.96)"/><path class="cls-3" d="M1743.12,11.84V488.32a3.09,3.09,0,0,1-2.38.92c-1.44,0-2.87,0-4.31,0q-181.89,0-363.77,0c-2,0-4.13.29-6.27-.37a10.48,10.48,0,0,1-.36-1.9q0-237.28,0-474.22a3.22,3.22,0,0,1,3-1c1.12,0,2.24,0,3.36,0h364.72C1739,11.7,1740.84,11.79,1743.12,11.84Z" transform="translate(-0.96 -0.96)"/><path class="cls-3" d="M341.63,488.58a1.37,1.37,0,0,0-1.33-1.14c-1.75-.06-3.51-.09-5.27-.09q-155.5,0-311,0c-2.05,0-4.14.33-5.9-.34a3.83,3.83,0,0,1-.5-.59.93.93,0,0,1-.15-.45q-.06-235.17-.12-470.33c0-1.44,0-2.88.08-4.32a3.24,3.24,0,0,1,.32-.88c.75-.81,1.75-.61,2.69-.63,1.27,0,2.55,0,3.83,0H393.43c1.48,1.06,1.19,2.26,1.19,3.33q0,12,0,24V95.36c-.75,1.54-2,2-3.07,2.67l-36.13,22.75c-.82.51-1.6,1.08-2.44,1.53-1.43.77-2.27,1.73-1.65,3.48.07.2-.56.63-.86.95-1.69-.31-1.73-2.78-3.9-2.8-.36.21-.92.49-1.43.85-5.34,3.76-10.72,7.47-16,11.32-11.34,8.25-22.57,16.64-33.93,24.84s-23.1,16.44-34.65,24.67c-1.69,1.2-3.34,2.44-4.93,3.77-1.4,1.17-1.5,2.16-.49,3.77,2.31,3.63,4.61,7.27,7,10.87q17.92,27.14,35.9,54.27,16.62,25.15,33.19,50.33,17.92,27.15,35.91,54.27,13.08,19.74,26.2,39.47a5,5,0,0,1,1.3,3v33.81c0,4.12,0,8.25,0,12.38,0,.92-.17,1.94.87,2.52-1,1.37-2.71,1.46-4,2.33-7.53,5-15.23,9.69-22.83,14.58C359.62,476.82,350.64,482.72,341.63,488.58ZM269.78,271.87c.35-43-35.62-77.14-76.92-77.33-41.85-.19-77.67,34.18-77.75,77-.08,41.05,32.61,77.56,77.23,77.63A77.05,77.05,0,0,0,269.78,271.87Z" transform="translate(-0.96 -0.96)"/><path class="cls-4" d="M484.73,963.08c.07,5-2.09,9.22-4.48,13.41-4,7.09-9.05,13.47-14.05,19.88-5.19,6.65-10.26,13.39-15.45,20-6.27,8-12.74,15.91-18.86,24.05-3.73,5-7,10.3-10.42,15.47q-6.64,9.94-13.3,19.88c-3.83,5.68-7.62,11.39-11.58,17-2.87,4.06-5.07,8.49-7.57,12.75-4.11,7-8,14.13-12.1,21.18a6.52,6.52,0,0,1-1.39,1.26c-4.4-2.34-8.13-5.63-12-8.65q-18.36-14.22-36.45-28.79c-6.84-5.5-13.45-11.29-20.15-17-7.8-6.6-15.65-13.14-23.38-19.82-4.71-4.08-9.08-8.54-13.86-12.53a169.29,169.29,0,0,1-12.53-11.86,15,15,0,0,1-1.64-1.75c-2.69-3.73-2.24-3.24-7.24-3.24H23.64c-1.59,0-3.19,0-4.79-.07a1.45,1.45,0,0,1-1.4-1.08c2.08.07,4.16.2,6.23.2H245.43c1.12,0,2.24,0,3.36,0,.71,0,1.62.33,2.11-.93-2.42-2.8-4.9-5.69-7.42-8.54-3.39-3.83-6.89-7.57-10.23-11.44q-10.49-12.16-20.85-24.42c-7.22-8.54-14.51-17-21.53-25.74-9.73-12.06-19.39-24.18-28.82-36.48q-20.72-27-40-55.09-14.8-21.54-28.4-43.86c-7.77-12.68-15.22-25.55-22.19-38.68-6.3-11.85-12.34-23.85-17.82-36.13A429.25,429.25,0,0,1,35.3,694.75c-1.85-5.94-3.58-11.81-4-18.16-.39-6.08-.43-12.13-.41-18.19a18.2,18.2,0,0,1,2.48-9.14,196.1,196.1,0,0,1,12.15-18.39c8.09-11,17.39-20.87,26.88-30.59,2.9-3,6.14-5.6,9.11-8.51,6.4-6.27,13.21-12.09,20.11-17.78q15.9-13.11,32.63-25.18c.45-.33,1.24-.53,1-1.47-1.32-.58-2.75-.3-4.14-.3q-54.22,0-108.47,0c-1.75,0-3.51.18-5.26.28a1.38,1.38,0,0,1,1.35-1.11c1.44-.06,2.88-.08,4.31-.08q55.35,0,110.71.06a12.85,12.85,0,0,0,7.87-2.67q13.54-9.43,27.4-18.43c12.83-8.36,25.82-16.47,39.17-24,6-3.36,11.91-6.81,17.86-10.21a17.86,17.86,0,0,1,2.15-1.06,2.91,2.91,0,0,1,3.15.4c.24.2.49.41.72.62q5.13,4.67,10.26,9.34c7.07,6.45,14.16,12.89,21.19,19.37,2.82,2.6,5.52,5.32,8.28,8,1.14,1.11,2.21,2.33,3.9,2.62-4,2.86-8,5.69-11.92,8.58-1.64,1.19-3.45,2.19-4.63,3.66a4.23,4.23,0,0,0,.12,1.22q6.51,12.95,13.05,25.87c.33,1,.85,1.65,2,1.09a4,4,0,0,0,2.37-2.07l2.54-1.37a2.08,2.08,0,0,0,2.3-1.47,4.1,4.1,0,0,0,2.5-1.36,2.9,2.9,0,0,0,3-1.76,16.63,16.63,0,0,0,5.65-3.18c2.2.26,3.11,2,4.19,3.58,8.06,11.9,16,23.86,23.1,36.38,4.41,7.79,8.56,15.71,12.18,23.88a77.82,77.82,0,0,1,5.31,16.36,15.77,15.77,0,0,1-3,13.51,54.07,54.07,0,0,1-11.05,10.54A111.13,111.13,0,0,1,288,681.15a57.2,57.2,0,0,1-14.12,2.28c-2.06.05-2.86.91-3,2.93a10.61,10.61,0,0,0,0,2.39c.36,2.36.7,4.73,1.22,7.06a180.35,180.35,0,0,0,8.2,26,404.14,404.14,0,0,0,21.6,46.44c6.88,12.63,14.15,25,22,37.08a529.76,529.76,0,0,0,38,51.63c9.32,11.17,19,22,29.33,32.23,1,1,1.83,2.25,3.32,2.65a19.41,19.41,0,0,0,1.7,2.29c7.32,7.54,14.9,14.82,22.9,21.61s15.92,13.17,24.11,19.46c7.05,5.42,14.4,10.45,21.65,15.62a5.94,5.94,0,0,0,1.79.55,13.54,13.54,0,0,0,2,1.93C474,956.64,479.12,960.27,484.73,963.08Z" transform="translate(-0.96 -0.96)"/><path class="cls-5" d="M284.09,564.33a4.1,4.1,0,0,1-2.5,1.36,1.64,1.64,0,0,0-2.3,1.47l-2.54,1.37c-1.62-.36-2.89.88-4.4,1q-6.54-12.93-13.05-25.87a4.23,4.23,0,0,1-.12-1.22c1.18-1.47,3-2.47,4.63-3.66,3.95-2.89,7.95-5.72,11.92-8.58,8.5-5.35,17-10.68,25.48-16.07q18.17-11.53,36.31-23.13c1.33-.85,2.74-1.6,4.11-2.4,9-5.86,18-11.76,27-17.58,7.6-4.89,15.3-9.61,22.83-14.58,1.32-.87,3.05-1,4-2.33,6.56-4.2,13.12-8.38,19.66-12.61.89-.58,2.08-.93,2.32-2.45-7.09-10.74-14.26-21.6-21.46-32.45a6.35,6.35,0,0,0-1.41-1.2,5,5,0,0,0-1.3-3q-13.12-19.72-26.2-39.47-18-27.13-35.91-54.27Q314.6,283.48,298,258.3q-17.92-27.15-35.9-54.27c-2.37-3.6-4.67-7.24-7-10.87-1-1.61-.91-2.6.49-3.77,1.59-1.33,3.24-2.57,4.93-3.77,11.55-8.23,23.16-16.37,34.65-24.67s22.59-16.59,33.93-24.84c5.28-3.85,10.66-7.56,16-11.32.51-.36,1.07-.64,1.43-.85,2.17,0,2.21,2.49,3.9,2.8,0,1.92,1.42,3.17,2.37,4.61q23.37,35.42,46.81,70.81,138.93,210,277.85,420c.79,1.2,1.49,2.45,2.23,3.68a3.85,3.85,0,0,1-2,3c-5.56,3.72-11.08,7.52-16.57,11.34-10.86,7.55-21.67,15.17-32.54,22.71q-18.06,12.54-36.18,25c-.91.63-1.73,1.4-2.46,2a2,2,0,0,1-2.14-1.1c-6.05-10.15-12.91-19.76-19.42-29.6q-25.5-38.49-51.16-76.87-11-16.53-21.85-33.15a4.32,4.32,0,0,0-2-2c0-.76.2-1.58-.71-2-.35-.54-.7-1.07-1.06-1.6q-24.57-36.93-49.16-73.86a.9.9,0,0,0-.39-.26,3.24,3.24,0,0,0-.59-.15c-1.63.38-3,1.54-4.5,2.43q-59.24,35.47-118.47,71c-1.5.9-3,1.7-4.58,2.56-1.71,1.14-3.38,2.35-5.14,3.41-3.95,2.38-8,4.63-11.91,7-1.57,1-3.55,1.55-4.2,3.63a16.63,16.63,0,0,1-5.65,3.18C285.66,562.49,284.35,562.53,284.09,564.33Z" transform="translate(-0.96 -0.96)"/><path class="cls-4" d="M1467.88,1376.41a31.43,31.43,0,0,1,7.28-6.86,6,6,0,0,0,1.11-.91c6.68-7,14.93-11.91,22.64-17.54,8.75-6.39,17.49-12.81,26.49-18.84,7.09-4.75,13.2-10.51,19.16-16.53q11.65-11.74,23.42-23.39c1.23-1.22,2.21-2.8,4.1-3.17,3.5,3.72,7.28,7.15,10.3,11.34,2.17,3,3.75,6.32,5.59,9.49,3,5.1,5.57,10.43,8.41,15.62,5.78,10.59,9.48,22,12.56,33.56a212.38,212.38,0,0,1,4.6,23.44c.63,4.25.92,8.56,1.14,12.86.35,6.85,1.41,13.67.91,20.56-.52,7.14-.61,14.32-1.63,21.44-.45,3.15-.63,6.33-1,9.5a307.48,307.48,0,0,1-6.2,32.87c-.86,3.69-3.15,6.61-5,9.78-2.38,4.15-5,8.2-7.52,12.25a70.89,70.89,0,0,1-7.24,9.52c-3.51,3.92-6.85,8-10.3,12a30,30,0,0,1-6,5.47c-10.35,6.93-20.61,14-30.91,21-15.32,10.42-30.78,20.65-45.91,31.34-5.48,3.88-11.63,5.94-17.64,8.43q-12.62,5.2-25.42,10c-4.63,1.72-9.41,3-14.15,4.44-8.88,2.61-17.76,5.2-26.67,7.7-11.21,3.14-22.45,6.19-33.68,9.28a13.34,13.34,0,0,1-8-.31,67.68,67.68,0,0,1-17.52-8.72,12.33,12.33,0,0,1-3.3-4c-3.28-5.29-6.44-10.66-9.63-16-1.31-2.19-2.5-4.47-3.91-6.59a42.51,42.51,0,0,1-3.87-7.68,258.15,258.15,0,0,1-10.49-32.81,192.12,192.12,0,0,1-4.24-22,104.78,104.78,0,0,1-1-22.93,82.47,82.47,0,0,1,3.76-20.16c1.76-5.11,5.09-9.22,8.54-13.2a52.07,52.07,0,0,1,15.61-12.54c6.14-3.14,12.54-5.62,19.64-5.48,3.67.07,7.35.07,11,.06a14.19,14.19,0,0,1,7.15,1.6,44.82,44.82,0,0,1,3.27,8.23c1.51,5.7,3.06,11.4,4.59,17.1a11.4,11.4,0,0,0,2.71,5c2.1,2.24,4.87,3,7.71,3.49a15.19,15.19,0,0,0,5.25-.13,72.15,72.15,0,0,0,18.56-6.2c3-1.52,6.1-2.77,9.23-4a81.33,81.33,0,0,0,21.18-12,59.27,59.27,0,0,0,11-11.3,57.57,57.57,0,0,0,11.07-29.66c.19-2.85,1-5.65.8-8.56-.46-7.16-1.07-14.29-3-21.24a6,6,0,0,1-.42-1.37C1472,1384.73,1469.77,1380.62,1467.88,1376.41Z" transform="translate(-0.96 -0.96)"/><path class="cls-3" d="M17.41,547.32c1.75-.1,3.51-.28,5.26-.28q54.24,0,108.47,0c1.39,0,2.82-.28,4.14.3.22.94-.57,1.14-1,1.47q-16.75,12-32.63,25.18c-6.9,5.69-13.71,11.51-20.11,17.78-3,2.91-6.21,5.54-9.11,8.51-9.49,9.72-18.79,19.63-26.88,30.59a196.1,196.1,0,0,0-12.15,18.39,18.2,18.2,0,0,0-2.48,9.14c0,6.06,0,12.11.41,18.19.41,6.35,2.14,12.22,4,18.16a429.25,429.25,0,0,0,18.36,47.34c5.48,12.28,11.52,24.28,17.82,36.13,7,13.13,14.42,26,22.19,38.68q13.65,22.27,28.4,43.86,19.27,28.07,40,55.09c9.43,12.3,19.09,24.42,28.82,36.48,7,8.7,14.31,17.2,21.53,25.74q10.36,12.25,20.85,24.42c3.34,3.87,6.84,7.61,10.23,11.44,2.52,2.85,5,5.74,7.42,8.54-.49,1.26-1.4.89-2.11.93-1.12.06-2.24,0-3.36,0H23.68c-2.07,0-4.15-.13-6.23-.2,0-1.76-.09-3.52-.09-5.27q0-232.68,0-465.35C17.35,550.83,17.39,549.08,17.41,547.32Z" transform="translate(-0.96 -0.96)"/><path class="cls-3" d="M727,204.61c.49,54.09-44.43,99.1-99.22,99-53.65-.07-99.08-44.18-98.91-99.46.18-54.77,45.33-99.05,99.58-98.78C683,105.67,727.53,150.63,727,204.61Zm-161.73-47.1c-.59,15.22,12.21,28.48,27.85,28.75a28.44,28.44,0,0,0,28.85-28.32c.13-16.32-13.54-28.43-28.19-28.5C577.86,129.37,565,142.57,565.23,157.51Z" transform="translate(-0.96 -0.96)"/><path class="cls-4" d="M905.8,228.42c31.89-.57,60.42,26.69,60.08,61a60.49,60.49,0,1,1-60.08-61Zm-.53,37c.64-8.4-8.43-18.08-17.54-16.82-8.09-1.16-17.38,8-17.07,16.88C871,276,878.54,283.16,888.27,283,898.22,282.77,905.23,275.43,905.27,265.39Z" transform="translate(-0.96 -0.96)"/><path class="cls-3" d="M467.34,11.84h83.08c-.42,1-1.4,1.15-2.23,1.45-15.54,5.5-30.33,12.69-44.92,20.29-10.62,5.53-21.1,11.34-31.66,17-1.36.73-2.62,1.78-4.26,1.93C466.65,48.47,466.6,16.54,467.34,11.84Z" transform="translate(-0.96 -0.96)"/><path class="cls-3" d="M792.23,111.25c9.18-.41,18.28,7.67,18.31,18.16a18.35,18.35,0,1,1-36.69,0C773.9,119.08,782.69,110.91,792.23,111.25Z" transform="translate(-0.96 -0.96)"/><path class="cls-4" d="M928.4,88.17C938,87,949.29,98.4,944.73,111.34A17.31,17.31,0,0,1,928.33,123c-6.88-.07-12.15-2.83-15.47-8.62a17.41,17.41,0,0,1,9.7-25.64A23.25,23.25,0,0,1,928.4,88.17Z" transform="translate(-0.96 -0.96)"/><path class="cls-2" d="M1743.13,549.24c-1.92,0-3.84-.13-5.75-.13H1371.45c-1.76,0-3.52,0-5.28.07.21-.42.42-.88,1-.9,1.44-.06,2.87-.13,4.31-.13h366.47c1.43,0,2.87.07,4.3.14C1742.77,548.31,1743,548.79,1743.13,549.24Z" transform="translate(-0.96 -0.96)"/><path class="cls-4" d="M1383.34,812.3a5.24,5.24,0,0,0,0,1.43c1.25,4-.34,7.42-2,10.86a252.79,252.79,0,0,1-12.63,22.93c-1.33,2.15-2.77,4.27-2.77,7a2.13,2.13,0,0,0-2.1.85c-.64.92-1.27,1.84-1.88,2.77a294.09,294.09,0,0,1-20.66,27.53c-2.37,2.81-4.95,5.42-7.28,8.25-6,7.31-12.85,13.79-19.77,20.16a205.63,205.63,0,0,1-18.78,15.54,5.05,5.05,0,0,0-1.7,2.79,2.92,2.92,0,0,0-2.69.5,205,205,0,0,1-20.34,13.46,2.86,2.86,0,0,0-1.68,2.15,4.61,4.61,0,0,0-2.77.54,180.45,180.45,0,0,1-20.42,10.5,244.47,244.47,0,0,1-35.29,13.19,258.18,258.18,0,0,1-25.47,6.07c-5.61,1-11.23,2-16.94,2.52-4.08.39-8.25.39-12.29,1.27a5.64,5.64,0,0,1-2.78-.28,1.85,1.85,0,0,0-2.1.73c-15,0-30,.7-45-.81-8.26-.83-16.48-1.78-24.71-2.84a313.52,313.52,0,0,1-34.27-6.62,306.35,306.35,0,0,1-50.79-17.09,265,265,0,0,1-34.32-18.12,227.6,227.6,0,0,1-42.61-34,7,7,0,0,0-2.58-2.09c-3.21-3.75-6.53-7.41-9.61-11.26a214.36,214.36,0,0,1-16.42-23c-9-14.86-16.15-30.46-20.5-47.31a123.21,123.21,0,0,1-4.34-33.57c0-2.08,0-4.16,0-6.24a73.32,73.32,0,0,1,1.66-12.77,97,97,0,0,1,4.26-14.7c.54-1.52,1.19-3,.73-4.64.94-.06,1.89-.15,2.84-.18,12.84-.38,25.7-.52,38.52-1.23,5.06-.29,10.12-.69,15.19-.76,1.59,0,3.17.09,4.76.15.39,1.71.7,3.44,1.18,5.12,3.22,11.37,6.42,22.75,9.76,34.08,1.75,6,3.26,12,5.76,17.77,5.23,12,10.28,24.1,15.41,36.16a56.6,56.6,0,0,0,4.37,8.52c4.6,7.11,9.17,14.25,13.56,21.49,3.17,5.25,7.34,9.65,11.4,14.15a7.5,7.5,0,0,0,1.47.89l8.08-5.32c.11-2-.67-3.46-1.17-5-3.94-12-7.82-24-11.21-36.16-1.24-4.46-2.7-8.91-3.34-13.47a52.15,52.15,0,0,1,2.2-23.67,15.89,15.89,0,0,1,6.26-8.25,23.49,23.49,0,0,1,16-4,42.41,42.41,0,0,1,27.37,13.43,46.82,46.82,0,0,1,11.12,20.44,95.81,95.81,0,0,1,2.41,35.65,11.53,11.53,0,0,0,0,3.8c1.94,8.55,5.47,16.29,11.57,22.78a76,76,0,0,0,25.73,18c9.74,4.16,20,6.66,30.37,8.54,8.36,1.52,16.82,1.9,25.25,2.58a29.61,29.61,0,0,0,8.6-.36c2.8-.59,5.68-.81,8.52-1.27,6.93-1.15,13.88-2.2,20.77-3.54,15-2.91,30-6.34,45.11-8.85A325.33,325.33,0,0,0,1295,882.07a281.24,281.24,0,0,0,41.57-19.64,200.58,200.58,0,0,0,32-23.51,18.49,18.49,0,0,0,4.33-5.67c3-6,6.13-11.94,8.63-18.19C1382,814.06,1382.25,812.9,1383.34,812.3Z" transform="translate(-0.96 -0.96)"/><path class="cls-1" d="M314,545.3c1.53-.86,3.08-1.66,4.58-2.56q59.24-35.5,118.47-71c1.49-.89,2.87-2.05,4.5-2.43a3.24,3.24,0,0,1,.59.15.9.9,0,0,1,.39.26q24.58,36.93,49.16,73.86c.36.53.71,1.06,1.06,1.6a2,2,0,0,1-2,1c-2.54,0-5.09,0-7.63,0q-7.15,0-14.32,0c-.81,0-1.59.13-1.75,1.15-.06,1.76-.18,3.51-.18,5.27q0,178.44,0,356.87c0,1.76.1,3.52.15,5.27-1.88,2.28-4.62,3.32-7,4.81-1.6,1-3.47,1.6-4.76,3.38,2.26,2.58,5.15,4.26,7.68,6.36,1.47,1.21,3.14,2.2,4.11,3.92q-.12,9-.25,18.1a5.94,5.94,0,0,1-1.79-.55c-7.25-5.17-14.6-10.2-21.65-15.62q-12.28-9.44-24.11-19.46c-8-6.79-15.58-14.07-22.9-21.61a19.41,19.41,0,0,1-1.7-2.29c0-1.59.07-3.19.07-4.79V552.3c0-1,0-1.92,0-2.87s.21-1.95-1-2.89c-1.4,0-3.13-.12-4.87-.12H319.66c-1.44,0-2.88,0-4.31-.06A1.4,1.4,0,0,1,314,545.3Z" transform="translate(-0.96 -0.96)"/><path class="cls-1" d="M872.55,748c.46,1.66-.19,3.12-.73,4.64a97,97,0,0,0-4.26,14.7,73.32,73.32,0,0,0-1.66,12.77c0,2.08,0,4.16,0,6.24a123.21,123.21,0,0,0,4.34,33.57c4.35,16.85,11.54,32.45,20.5,47.31a214.36,214.36,0,0,0,16.42,23c3.08,3.85,6.4,7.51,9.61,11.26-.06,1.43-.16,2.87-.16,4.3q0,56.67,0,113.34c0,1.42.18,2.85.28,4.27a1.67,1.67,0,0,0,1.57.87l4.32,0h80.13a18.59,18.59,0,0,1,6,.75c-4,.71-8.07,1.44-12.12,2.14q-15.57,2.65-31.14,5.3c-10.22,1.74-20.5,3.25-30.65,5.33-10.61,2.16-21.32,1.48-32,2.09-11.5.66-23,.34-34.5,1-9.59.59-19.18.27-28.74.9-7.9.51-15.56-.87-23.3-1.83-6-.75-12-1.46-18.05-2.21-6.81-.85-13.61-1.74-20.42-2.6-5.7-.72-11.39-1.57-17.1-2.11a235.61,235.61,0,0,1-30.69-5,129.42,129.42,0,0,1-13.85-3.69c2,0,3.95-.11,5.93-.11H837.92c1.44,0,2.87,0,4.31,0a1.71,1.71,0,0,0,1.58-.87c.09-2.07.27-4.14.27-6.21q0-131,0-262c0-1.9.06-3.79.08-5.17a2.11,2.11,0,0,1,2-1.21Z" transform="translate(-0.96 -0.96)"/><path class="cls-3" d="M916.84,1023.34c-.1-1.42-.28-2.85-.28-4.27q0-56.67,0-113.34c0-1.43.1-2.87.16-4.3a7,7,0,0,1,2.58,2.09,227.6,227.6,0,0,0,42.61,34,265,265,0,0,0,34.32,18.12A306.35,306.35,0,0,0,1047,972.75a313.52,313.52,0,0,0,34.27,6.62c8.23,1.06,16.45,2,24.71,2.84,15,1.51,30,.76,45,.81-.89,1.38-2.52,1.35-3.81,1.78-16.2,5.34-32.39,10.76-48.69,15.77-11.11,3.42-22.39,6.25-33.6,9.32q-12.68,3.47-25.36,6.88c-7.83,2.12-15.67,4.24-23.53,6.29a15.5,15.5,0,0,1-3.8.31Z" transform="translate(-0.96 -0.96)"/><path class="cls-1" d="M1293.81,932.37a5.05,5.05,0,0,1,1.7-2.79A205.63,205.63,0,0,0,1314.29,914c6.92-6.37,13.78-12.85,19.77-20.16,2.33-2.83,4.91-5.44,7.28-8.25A294.09,294.09,0,0,0,1362,858.1c.61-.93,1.24-1.85,1.88-2.77a2.13,2.13,0,0,1,2.1-.85q0,76,0,151.92c0,1.75,0,3.51-.06,5.27a4.39,4.39,0,0,1-2.54-1.21q-18.44-14.1-36.92-28.15a55.29,55.29,0,0,0-6.06-3.84q-11.88-6.72-23.8-13.35a6.89,6.89,0,0,1-2.93-2.38Z" transform="translate(-0.96 -0.96)"/><path class="cls-3" d="M1293.81,932.37l-.12,30.37c-.62,0-1.36.11-1.85-.17a158.78,158.78,0,0,1-17.12-10.84c-1.73-1.29-3.31-2.94-5.62-3.25a2.86,2.86,0,0,1,1.68-2.15,205,205,0,0,0,20.34-13.46A2.92,2.92,0,0,1,1293.81,932.37Z" transform="translate(-0.96 -0.96)"/><path class="cls-3" d="M466.71,951.37q.12-9,.25-18.1c3.49,1,5.78,3.8,8.66,5.72,2.63,1.76,4.95,4,7.55,5.79a5.56,5.56,0,0,1,2.61,5.23c-.11,3.18,0,6.36,0,9.55,0,1.27,0,2.57-1.06,3.52-5.61-2.81-10.72-6.44-16-9.78A13.54,13.54,0,0,1,466.71,951.37Z" transform="translate(-0.96 -0.96)"/><path class="cls-5" d="M1383.34,812.3c-1.09.6-1.35,1.76-1.75,2.76-2.5,6.25-5.64,12.18-8.63,18.19a18.49,18.49,0,0,1-4.33,5.67,200.58,200.58,0,0,1-32,23.51A281.24,281.24,0,0,1,1295,882.07a325.33,325.33,0,0,1-64.62,17.55c-15.13,2.51-30.07,5.94-45.11,8.85-6.89,1.34-13.84,2.39-20.77,3.54-2.84.46-5.72.68-8.52,1.27a29.61,29.61,0,0,1-8.6.36c-8.43-.68-16.89-1.06-25.25-2.58-10.4-1.88-20.63-4.38-30.37-8.54a76,76,0,0,1-25.73-18c-6.1-6.49-9.63-14.23-11.57-22.78a11.53,11.53,0,0,1,0-3.8,95.81,95.81,0,0,0-2.41-35.65,46.82,46.82,0,0,0-11.12-20.44,42.41,42.41,0,0,0-27.37-13.43,23.49,23.49,0,0,0-16,4,15.89,15.89,0,0,0-6.26,8.25,52.15,52.15,0,0,0-2.2,23.67c.64,4.56,2.1,9,3.34,13.47,3.39,12.16,7.27,24.17,11.21,36.16.5,1.49,1.28,2.93,1.17,5l-8.08,5.32a7.5,7.5,0,0,1-1.47-.89c-4.06-4.5-8.23-8.9-11.4-14.15-4.39-7.24-9-14.38-13.56-21.49a56.6,56.6,0,0,1-4.37-8.52c-5.13-12.06-10.18-24.15-15.41-36.16-2.5-5.75-4-11.8-5.76-17.77-3.34-11.33-6.54-22.71-9.76-34.08-.48-1.68-.79-3.41-1.18-5.12a32.89,32.89,0,0,1,8-1c4.45,0,8.92.3,13.34-.8,1.67-.42,3.51-.09,5.26-.14,3.19-.09,6.36.1,9.52-.75,1.65-.45,3.5-.15,5.25-.21,3-.1,6.07.22,9-.77a10.4,10.4,0,0,1,2.86-.17c3.66-.14,7.34.25,11-.84a13.19,13.19,0,0,1,3.34-.14c2.54-.08,5.12.22,7.58-.76a2,2,0,0,1,1-.12c5.45.42,10.78-.92,16.2-1.13,5.07-.2,10.11-1,15.16-1.57a7.88,7.88,0,0,1,1.42-.18c4.82.41,9.57-.59,14.26-1.24,4.41-.62,8.94-.14,13.25-1.5a6.74,6.74,0,0,1,1.43-.17c7-.69,13.94-1.25,20.88-2.08,6.31-.75,12.55-2.11,18.87-2.61,5.88-.46,11.65-1.63,17.51-2.21,5.52-.55,11-2,16.47-2.5s10.66-1.77,16-2.32c5.68-.57,11.29-1.83,16.93-2.83,5.16-.91,10.33-1.78,15.47-2.81,12.16-2.43,24.37-4.59,36.48-7.28,10.25-2.28,20.49-4.62,30.69-7.11,10-2.46,20-5.27,30-8.09,7.35-2.09,14.71-4.22,21.93-6.72,11.3-3.91,22.64-7.76,33.64-12.48a282,282,0,0,0,30-14.84c4.56-2.63,9.15-5.2,13.51-8.17a2.11,2.11,0,0,1,2-.32c1,.4,1.29,1.55,1.6,2.57,2.79,9.13,5.53,18.26,7,27.74.51,3.28.44,6.67,1.56,9.88a11.82,11.82,0,0,1,.2,3.33c.06,2.39.48,4.76.66,7.11a155.55,155.55,0,0,1,0,23.94c-.2,2.51-.44,5.06-.68,7.59-.4,4.26-.88,8.52-1.5,12.76-.59,4.08-1.35,8.14-2.13,12.19a248,248,0,0,1-9.4,35c-1.73,5-3.43,10-5.53,14.78A7.2,7.2,0,0,0,1383.34,812.3Z" transform="translate(-0.96 -0.96)"/><path class="cls-4" d="M1596.05,658.42c29.09-.88,54.3,23.59,54.07,54.11-.24,31.76-26.43,53.79-54.17,53.77S1541.8,744,1541.88,712C1542,681.78,1567,657.51,1596.05,658.42Zm-27,23.1c-8.57-.65-15.26,6.6-15.53,14.85-.29,9,7.67,15.71,15.35,15.85s16.1-6.73,15.76-15.91C1584.37,688.06,1577.7,680.86,1569.09,681.52Z" transform="translate(-0.96 -0.96)"/><path class="cls-2" d="M467,547.39c.16-1,.94-1.15,1.75-1.15q7.15,0,14.32,0c2.54,0,5.09,0,7.63,0a2,2,0,0,0,2-1c.91.43.73,1.25.71,2q-11.09,0-22.18,0C469.82,547.19,468.41,547.32,467,547.39Z" transform="translate(-0.96 -0.96)"/><path class="cls-4" d="M269.78,271.87a77.05,77.05,0,0,1-77.44,77.35c-44.62-.07-77.31-36.58-77.23-77.63.08-42.87,35.9-77.24,77.75-77C234.16,194.73,270.13,228.84,269.78,271.87Zm-93.09-21.44c.55-12-9.92-22-22.09-22.12-10.52-.07-22.13,9-22,22.45a22.2,22.2,0,0,0,22.07,21.9C167.23,272.91,177.7,261.29,176.69,250.43Z" transform="translate(-0.96 -0.96)"/><path class="cls-1" d="M394.63,405.38a6.35,6.35,0,0,1,1.41,1.2c7.2,10.85,14.37,21.71,21.46,32.45-.24,1.52-1.43,1.87-2.32,2.45-6.54,4.23-13.1,8.41-19.66,12.61-1-.58-.87-1.6-.87-2.52,0-4.13,0-8.26,0-12.38Z" transform="translate(-0.96 -0.96)"/><path class="cls-3" d="M314,545.3a1.4,1.4,0,0,0,1.4,1.05c1.43,0,2.87.06,4.31.06h69.06c1.74,0,3.47.08,4.87.12,1.24.94,1,2,1,2.89s0,1.91,0,2.87V887.05c0,1.6,0,3.2-.07,4.79-1.49-.4-2.31-1.66-3.32-2.65-10.33-10.24-20-21.06-29.33-32.23a529.76,529.76,0,0,1-38-51.63c-7.81-12.06-15.08-24.45-22-37.08a404.14,404.14,0,0,1-21.6-46.44,180.35,180.35,0,0,1-8.2-26c-.52-2.33-.86-4.7-1.22-7.06a10.61,10.61,0,0,1,0-2.39c.15-2,.95-2.88,3-2.93A57.2,57.2,0,0,0,288,681.15a111.13,111.13,0,0,0,35.45-17.51A54.07,54.07,0,0,0,334.5,653.1a15.77,15.77,0,0,0,3-13.51,77.82,77.82,0,0,0-5.31-16.36c-3.62-8.17-7.77-16.09-12.18-23.88-7.09-12.52-15-24.48-23.1-36.38-1.08-1.6-2-3.32-4.19-3.58.65-2.08,2.63-2.66,4.2-3.63,3.93-2.42,8-4.67,11.91-7C310.57,547.65,312.24,546.44,314,545.3Z" transform="translate(-0.96 -0.96)"/><path class="cls-3" d="M272.35,569.51c1.51-.1,2.78-1.34,4.4-1a4,4,0,0,1-2.37,2.07C273.2,571.16,272.68,570.52,272.35,569.51Z" transform="translate(-0.96 -0.96)"/><path class="cls-3" d="M284.09,564.33c.26-1.8,1.57-1.84,3-1.76A2.9,2.9,0,0,1,284.09,564.33Z" transform="translate(-0.96 -0.96)"/><path class="cls-3" d="M279.29,567.16a1.64,1.64,0,0,1,2.3-1.47A2.08,2.08,0,0,1,279.29,567.16Z" transform="translate(-0.96 -0.96)"/><path class="cls-1" d="M565.23,157.51c-.27-14.94,12.63-28.14,28.51-28.07,14.65.07,28.32,12.18,28.19,28.5a28.44,28.44,0,0,1-28.85,28.32C577.44,186,564.64,172.73,565.23,157.51Z" transform="translate(-0.96 -0.96)"/><path class="cls-1" d="M905.27,265.39c0,10-7,17.38-17,17.58-9.73.19-17.25-7-17.61-17.52-.31-8.85,9-18,17.07-16.88C896.84,247.31,905.91,257,905.27,265.39Z" transform="translate(-0.96 -0.96)"/><path class="cls-1" d="M1569.09,681.52c8.61-.66,15.28,6.54,15.58,14.79.34,9.18-8,16-15.76,15.91s-15.64-6.86-15.35-15.85C1553.83,688.12,1560.52,680.87,1569.09,681.52Z" transform="translate(-0.96 -0.96)"/><path class="cls-1" d="M176.69,250.43c1,10.86-9.46,22.48-22,22.23a22.2,22.2,0,0,1-22.07-21.9c-.15-13.49,11.46-22.52,22-22.45C166.77,228.4,177.24,238.43,176.69,250.43Z" transform="translate(-0.96 -0.96)"/></svg>