<svg id="Layer_1" data-name="Layer 1" xmlns="http://www.w3.org/2000/svg" viewBox="0 0 441.25 512"><defs><style>.cls-1{fill:#030303;}.cls-2{fill:#232323;}</style></defs><title>ventje</title><g id="RxAIk2"><path class="cls-1" d="M1,396c3.36-2.17,4.66-5.17,5.42-9.21,3.22-17.14,17.4-29.77,36-32.58a6,6,0,0,0,4.69-2.82C65,325.1,83.41,299.18,100.72,272.55c10.31-15.85,24.1-25.73,42-30.72,27.07-7.55,54.62-13.12,81.89-19.83,9.68-2.39,19.38-4.71,29.12-6.82a4.39,4.39,0,0,0,3.5-2.9q20.61-44.53,41.35-89a8.17,8.17,0,0,0,.38-5.76c-2.06-8.39-4.17-16.77-6.12-25.19A7.13,7.13,0,0,0,288.3,87c-13.74-6.27-27.39-12.73-41.61-19.37l8.49-18.4,140.94,66-8.46,18.34c-8.75-4.06-17.28-8-25.79-12-5.42-2.53-10.91-4.93-16.21-7.67a6.32,6.32,0,0,0-6.49.09q-12,6.14-24.12,11.94a7.89,7.89,0,0,0-4,4.11Q291,173.45,270.73,216.78c-1.06,2.27-.89,3.72.5,5.81,7.29,10.91,2.39,24.43-10.34,27.6-21,5.22-42,10-63.1,14.75-4.23,1-6.36,2.3-6.3,7.33.37,30.82-.84,61.71.78,92.45,2,37.23,6.19,74.34,9.44,111.5.38,4.31.86,8.62,1.1,12.94C203.42,500,197.93,507.28,185,513H175c-.34-.32-.61-.8-1-.94-10.49-3.74-15.33-11.32-16.12-22.27-1.14-15.94-2.73-31.86-4.17-47.78-.6-6.56-1.3-13.11-2.08-20.91-1.57,3.44-1.38,5.77-1.58,8-1.95,21.39-3.83,42.79-5.87,64.17-.73,7.7-4.88,13.28-11.6,17-1.8,1-3.71,1.81-5.57,2.71H116c-.1-.79-.75-1-1.35-1.23-11.31-5.43-15.48-12.12-14.65-24.52.78-11.62,2-23.22,3-34.82,2.52-28.19,5.5-56.34,7.41-84.56,1-15,.18-30.08.18-45.88L79.87,366.92a40.57,40.57,0,0,1,11,22.21A6.78,6.78,0,0,0,93.42,394c3.1,2.49,3.21,7.27-.06,9-4,2.05-3.92,5.22-4.31,8.63-1.88,16.53-3.71,33.07-5.77,49.58-1.17,9.39-5,12.55-14.59,12.57-13.49,0-27,0-40.47,0-9.86,0-13.94-3.6-15-13.37-1.47-13.07-2.56-26.19-4.47-39.18C7.65,414.07,9.91,405.3,1,401Zm71.05-19.09c-13.82,5.21-20.23,2.83-27.94-10.21C30.18,368.12,19,378.94,18.29,391.82H78.77C77.86,385.9,76,380.92,72.05,376.91ZM31.93,406.19c-3,0-5.95-.07-8.93,0-2.72.07-4.47,1.58-4.47,4.28,0,2.48,1.7,4,4.18,4,6.12.1,12.24.09,18.36,0,2.7,0,4.57-1.52,4.48-4.25s-2-4-4.68-4.09C37.89,406.15,34.91,406.18,31.93,406.19Z" transform="translate(-1 -1)"/><path class="cls-1" d="M441,330.94c-23.15.08-46.31.22-69.46.23q-77.73,0-155.46,0h-4.19V307.09H417.24V25.65H44.59V306.74H60.2c-5.79,8.41-11,16-16.2,23.55-.7,1-1.72.86-2.69.86-7,0-13.91,0-21.31,0V1H441Q441,166,441,330.94Z" transform="translate(-1 -1)"/><path class="cls-2" d="M441,330.94Q441,166,441,1c2.09,1.11.94,3,.94,4.5Q442,126.75,442,248v83Z" transform="translate(-1 -1)"/><path class="cls-1" d="M151.29,223.25a44.7,44.7,0,0,1-44.85-45.1c0-24.6,20.38-44.94,44.78-44.79a44.95,44.95,0,0,1,.07,89.89Z" transform="translate(-1 -1)"/><path class="cls-1" d="M359.69,157.38c4.36,7.84,8.22,15,10.72,22.73,1.75,5.47.24,10.22-4,13.28a11.7,11.7,0,0,1-13.11.21c-4.27-2.87-6-7.75-4.37-13.13C351.31,172.48,355.39,165.26,359.69,157.38Z" transform="translate(-1 -1)"/><path class="cls-1" d="M330.5,202.34c4.46,7.91,8.56,15.44,11,23.72,1.5,5.06-.38,9.17-4.46,12.25a11.42,11.42,0,0,1-13.07.08c-4.11-3-6-7.2-4.57-12.22C321.83,217.84,326,210.31,330.5,202.34Z" transform="translate(-1 -1)"/></g></svg>